<svg width="145" height="65" viewBox="0 0 145 65" fill="none" xmlns="http://www.w3.org/2000/svg">
<g clip-path="url(#clip0_45_522)">
<path d="M17.7937 34.9795C22.3636 28.3878 22.2664 24.8754 21.2941 23.0951C20.5648 21.6517 19.009 20.8818 16.9186 20.8818C15.6059 20.8818 14.0502 21.2186 12.4945 21.8441C7.58418 23.7687 5.34782 24.9235 0.243083 27.9066L0 28.051V28.2915V29.6869V30.0718L0.388934 30.1199C1.55573 30.3124 1.99328 30.4567 1.99328 31.9964L2.47945 60.6729C2.47945 61.8277 2.0419 62.3569 0.826485 62.405H0.388934V62.8381V64.0409V64.5221H0.875098L15.8976 64.1853C18.6201 64.1372 21.051 62.4531 22.8498 59.3738C24.4055 56.6794 25.4264 53.0226 25.5723 49.3178C25.7182 45.7091 25.0861 42.3411 23.8221 39.791C22.4609 37.1928 20.3703 35.5088 17.7937 34.9795ZM8.55651 39.358L8.70234 29.2538C10.2581 27.9066 12.7375 26.5594 14.2933 26.5594C14.8281 26.5594 15.1684 26.7037 15.4115 27.0405C15.7518 27.5217 15.9949 28.6765 15.0712 31.3228C13.8557 34.9795 11.1818 37.4334 8.55651 39.358ZM16.3838 58.219C15.0225 59.6625 13.2723 60.4323 11.2304 60.4323C10.404 60.4323 9.52884 60.288 8.65378 60.0474L8.55651 45.2761C10.5012 42.1005 12.6403 40.3203 14.4391 40.3203C16.7727 40.3203 18.3771 43.544 18.8632 49.1734C19.2035 52.8302 18.3285 56.1501 16.3838 58.219Z" fill="white"/>
<path d="M46.672 25.4528L46.8664 25.3085L46.8178 25.0679C45.7483 17.1289 43.1716 12.7986 39.6712 12.7986C38.9419 12.7986 38.164 12.991 37.3861 13.4241C33.8372 15.3006 30.5313 21.1706 28.2949 29.4945C26.1557 37.4816 25.3779 55.9577 33.351 62.5013C35.004 63.8967 37.0458 64.5703 39.2822 64.5703C41.2269 64.5703 43.4147 64.041 45.7968 63.0306L46.0886 62.9344V62.6457L46.7206 45.2762V44.795H46.2344H44.9218H44.5328L44.4842 45.1799C43.4146 55.0435 40.4004 55.8133 39.5253 55.8133C37.3376 55.8133 34.5664 52.1566 33.4968 45.1318C33.351 44.0252 33.1565 41.427 33.6913 40.4166C37.8237 32.3814 46.6233 25.549 46.672 25.4528ZM40.8865 24.9235C40.2546 25.4047 38.5044 26.8481 35.4901 30.4568C34.372 31.804 33.351 33.2474 32.6704 34.306C32.9134 30.3605 33.4483 27.1368 35.0525 23.5763C36.2193 21.0262 37.4834 19.5347 38.4557 19.5347C39.5739 19.4384 40.4976 21.4593 40.8865 24.9235Z" fill="white"/>
<path d="M99.2752 57.5455L98.7888 29.6869C98.594 19.8715 97.9135 13.4722 96.4552 8.94937C94.8021 3.80109 92.1286 1.05854 88.1902 0.625503C88.0445 0.625503 87.8504 0.577393 87.7039 0.577393C86.5862 0.577393 85.6134 1.05854 84.8356 1.44346C84.35 1.68403 83.912 1.8765 83.6204 1.8765C83.523 1.8765 83.2315 1.87649 82.9883 1.01042L82.8909 0.673621H82.5511H81.3843H80.9462V1.10665L80.6547 19.5347V20.0158H81.1411H82.4536H82.8909V19.5828C83.3773 11.2108 85.3219 6.06249 87.9961 6.06249C88.6766 6.06249 89.357 6.3993 89.9891 7.07291C92.1286 9.38241 93.0522 15.1081 92.4685 22.3734C81.2385 25.3085 77.2027 36.7117 80.509 56.2945C81.3352 61.2503 83.961 64.6184 86.9751 64.6184C89.7459 64.6184 92.177 61.972 93.8784 57.3049L94.2674 60.7211C94.8511 63.7523 96.8441 64.041 98.9829 64.041C99.2261 64.041 99.4692 64.041 99.7124 64.041C99.9556 64.041 100.247 64.041 100.539 64.041C100.733 64.041 100.879 64.041 101.074 64.041H101.511V63.608L101.56 62.3088V61.9239L101.171 61.8277C99.8582 61.3947 99.3235 60.2399 99.2752 57.5455ZM92.1286 48.5961C91.6906 53.2151 90.2806 54.851 89.1629 54.851C88.0445 54.851 86.6836 53.2632 86.2455 50.3282C84.6415 38.7325 86.6345 32.1408 92.6633 29.0133C92.9065 35.4607 92.7116 42.3893 92.1286 48.5961Z" fill="white"/>
<path d="M144.051 61.7314C142.884 61.4909 142.495 60.8173 142.447 59.0851L142.058 41.2345C141.815 30.7454 141.571 20.8337 132.821 20.8337H132.772C131.654 20.8337 130.681 21.1705 129.855 21.4111C129.271 21.6036 128.785 21.7479 128.396 21.7479C128.105 21.7479 127.91 21.6517 127.716 21.2187L127.619 20.93H127.327L126.306 20.8819L125.82 20.8337V21.3149L125.528 35.1239V35.605H126.014H126.84H127.278V35.172C127.57 28.8208 130.633 25.8858 132.578 25.8858C133.452 25.8858 134.133 26.1745 134.716 26.7519C136.078 28.1472 136.613 31.3228 136.37 36.1824C132.189 37.0485 129.077 38.9731 127.083 41.9562C124.41 45.9016 123.826 51.7716 125.382 58.8927C126.111 62.2607 128.543 64.5221 131.362 64.5221C133.89 64.5221 136.175 62.7419 137.634 59.6625L137.925 61.1541C138.46 63.2711 140.21 63.4636 142.058 63.4636C142.252 63.4636 142.495 63.4636 142.69 63.4636C142.933 63.4636 143.175 63.4636 143.37 63.4636C143.516 63.4636 143.662 63.4636 143.857 63.4636H144.294L144.342 63.0305L144.391 62.1645L144.44 61.7796L144.051 61.7314ZM135.494 53.7925C135.154 56.7756 133.988 57.8341 133.015 57.8341C132.043 57.8341 130.924 56.8237 130.584 54.9472C129.223 47.297 130.827 43.0628 136.029 40.9939C136.126 45.1799 135.981 49.7027 135.494 53.7925Z" fill="white"/>
<path d="M60.7707 26.6557C57.3676 24.0093 54.4506 21.6998 55.9091 12.3655C56.3953 9.18995 57.7565 7.12102 59.3123 7.12102C61.5972 7.12102 64.2225 11.4032 64.8059 19.6309L64.8545 20.0639H65.2921H66.702H67.1881V19.5828L66.9451 1.15477V0.721731H66.5075H65.3407H65.0004L64.9031 1.05854C64.66 1.8765 64.417 1.8765 64.3197 1.8765C64.0766 1.8765 63.6391 1.68403 63.2016 1.44346C62.4237 1.05854 61.4514 0.577393 60.2846 0.577393C60.0901 0.577393 59.8957 0.577388 59.7012 0.625503C58.3886 0.817962 57.1731 1.29911 56.055 2.16518C55.5201 2.5501 54.7423 3.27182 53.8672 4.23412C51.096 7.50592 50.3182 11.9806 50.1237 13.2797L50.0264 14.0977C49.1514 20.6894 48.3249 26.9444 55.034 31.6115L55.1798 31.7077C59.1178 34.4503 62.5695 36.8079 62.7154 43.2072C62.764 44.7469 61.4514 52.7821 58.4371 55.8614C57.6593 56.6313 56.8814 57.0162 56.0063 57.0162C53.9158 57.0162 51.4363 53.9368 50.7071 45.228L50.6585 44.795H50.221H49.0056H48.568V45.228L48.5193 63.7523V64.1853H48.9569H50.0264H50.3182L50.464 63.9448L51.9711 61.0579C53.4783 63.2711 55.666 64.5221 58.0968 64.5221C61.5972 64.5221 65.9727 61.7315 67.1881 55.6209C69.1814 45.8054 68.8411 38.6844 66.0699 32.5738C64.7087 29.6869 62.7154 28.1472 60.7707 26.6557Z" fill="white"/>
<path d="M124.313 62.5495V62.2127L123.972 62.1164C123.389 61.9721 122.951 61.6834 122.903 59.2295L122.514 32.622C122.514 18.6686 118.187 13.7128 114.151 13.7128C112.353 13.7128 110.554 14.7232 109.193 16.4072L109.144 13.1835V12.7505H108.706C108.706 12.7505 107.734 12.7505 107.394 12.7505C106.811 12.7505 106.373 13.1835 105.838 13.6647C105.06 14.4345 103.942 15.493 101.852 15.5893H101.414V16.0223V18.4762V18.813L101.755 18.9092C102.483 19.1017 103.115 19.5828 103.164 21.748L103.602 58.3635C103.65 61.0098 103.359 61.539 102.824 61.5872L102.435 61.6353V62.0202V63.4155V63.8486H102.872L112.401 64.1372H112.888V63.6561V62.5013V62.2127L112.596 62.1164C111.526 61.6834 110.457 61.2022 110.457 59.2776L109.873 27.9067C109.825 25.3566 110.505 23.0952 111.672 21.8923C112.158 21.4112 112.645 21.1706 113.179 21.1706C114.832 21.1706 116.534 23.9613 116.534 30.2162L117.312 58.8927C117.36 60.8173 116.874 61.7796 115.61 62.1645L115.27 62.2608V62.5976L115.318 63.8004V64.2335H115.756L123.924 64.4259H124.41V63.9448L124.313 62.5495Z" fill="white"/>
<path d="M77.3001 0.433039C76.5713 0.240579 75.6469 0 73.7513 0H73.6054C71.9038 0 71.0288 0.240579 70.2509 0.433039C69.8133 0.529269 69.3758 0.673609 68.7924 0.721724L68.3548 0.769839V1.20287L68.4034 2.69444V3.03124L68.7437 3.12747C69.3758 3.31993 70.2509 3.80108 70.2509 6.01437V7.74651V55.3803L70.3481 57.6898C70.3481 57.7379 70.4454 59.7588 70.1536 60.7692C69.862 61.8277 69.1327 61.8758 68.9868 61.8758H68.5493V62.3089V64.1372V64.5703H68.9868H73.7998H73.8971H78.7101H79.1473V64.1372V62.3089V61.8277H78.6617C78.516 61.8277 77.7864 61.7796 77.4949 60.7211C77.2027 59.6625 77.3001 57.6417 77.3001 57.6417L77.3975 55.3803V7.12101V6.01437C77.3975 3.80108 78.2728 3.31993 78.9532 3.12747L79.2938 3.03124V2.69444V1.15477V0.721724H78.8558C78.1754 0.673609 77.7864 0.577384 77.3001 0.433039Z" fill="white"/>
</g>
<defs>
<clipPath id="clip0_45_522">
<rect width="145" height="65" fill="white"/>
</clipPath>
</defs>
</svg>
