<svg width="1920" height="515" viewBox="0 0 1920 515" fill="none" xmlns="http://www.w3.org/2000/svg">
<path d="M2321.5 -33.0247C2311.65 -45.0181 2305.48 -41.6524 2281.12 -64.8334C2269.03 -76.3055 2264.81 -82.5629 2262.02 -87.7775C2258.08 -95.0304 2250.45 -109.157 2253.25 -124.848C2256.57 -143.336 2270.83 -144.379 2276.95 -166.565C2280.27 -178.558 2279.08 -188.229 2278.23 -195.766C2274.44 -228.238 2273.58 -277.54 2278.28 -318.545C2269.84 -326.698 2261.35 -334.757 2252.73 -342.769C2221.06 -372.207 2188.4 -400.603 2154.89 -427.908C2146.5 -434.734 2138.06 -441.513 2129.58 -448.245C2127.83 -449.62 2126.02 -451.184 2124.18 -452.701C2123.32 -453.27 2122.47 -453.839 2121.76 -454.407C2104.5 -467.444 2087.11 -480.385 2069.52 -493.043C2046.63 -509.492 2023.4 -525.467 1999.99 -541.206C1903.86 -575.1 1809.39 -613.641 1712.31 -644.833C1711.22 -645.165 1710.08 -645.497 1708.99 -645.829C1657.85 -652.56 1586.98 -660.003 1520.57 -660.619C1516.88 -660.666 1498.01 -660.761 1472.51 -662.563C1458.38 -663.558 1444.35 -666.213 1430.23 -666.782C1400.08 -668.014 1370.08 -663.653 1340.03 -663.037C1270.96 -661.567 1201.9 -662.041 1132.84 -661.709C1100.65 -661.567 1068.42 -661.615 1036.23 -660.951C999.403 -660.192 962.668 -654.456 925.742 -659.576C916.404 -660.903 906.877 -661.757 897.444 -661.899C888.059 -662.041 877.773 -663.226 869.43 -660.003C855.542 -654.646 841.559 -655.073 827.481 -654.93C809.468 -654.741 791.456 -655.167 773.491 -655.594C718.601 -656.921 663.711 -657.016 608.868 -654.646C585.215 -653.603 561.61 -651.47 537.909 -650.711C524.637 -650.285 511.555 -650.996 498.709 -646.208C493.732 -644.359 487.333 -644.122 482.119 -645.355C477.236 -646.54 472.307 -647.393 467.377 -648.152C461.926 -647.583 456.475 -647.014 451.024 -646.398C433.391 -644.407 415.758 -642.321 398.125 -640.14C392.247 -639.382 386.369 -638.671 380.539 -637.865C385.279 -638.528 390.019 -639.145 394.759 -639.808C385.943 -638.908 377.173 -637.391 368.404 -636.111C331.906 -630.801 295.549 -624.733 259.335 -617.765C188.566 -604.065 118.413 -586.667 50.0135 -563.723C33.4707 -558.177 17.2122 -551.872 0.716751 -546.136C0.0057373 -545.899 -0.610458 -545.662 -1.22667 -545.472C-1.27408 -545.472 -1.32147 -545.425 -1.32147 -545.425C-9.90102 -541.348 -18.528 -537.414 -27.0127 -533.1C-32.0846 -530.54 -37.0616 -527.743 -42.0387 -525.041C-58.1076 -492.853 -76.0251 -461.945 -101.811 -437.721C-102.522 -421.745 -105.177 -405.865 -110.58 -390.126C-131.626 -328.879 -174.666 -284.982 -203.343 -228.57C-214.862 -205.911 -226.38 -183.535 -238.894 -161.777C-244.677 -144.711 -249.891 -130.916 -247.331 -108.114C-246.431 -100.15 -246.241 -105.602 -240.837 -80.4771C-229.177 -26.388 -231.215 -5.86163 -213.203 18.5993C-208.51 24.9516 -208.273 23.7191 -202.727 31.2564C-193.532 43.8187 -178.6 64.1555 -177.463 89.4224C-176.325 114.357 -188.981 136.353 -204.197 162.9C-204.576 163.564 -204.908 164.133 -205.097 164.464C-213.155 173.187 -222.446 186.271 -221.403 201.488C-220.787 210.684 -216.853 214.24 -210.501 229.03C-206.709 237.847 -204.197 246.854 -200.642 261.313C-166.655 290.23 -142.765 327.443 -118.781 365.367C-116.979 367.121 -115.178 369.017 -113.377 371.15C-106.646 379.304 -104.608 385.135 -102.569 390.728C-101.669 392.151 -100.768 393.525 -99.8676 394.947C-96.2178 400.541 -92.4731 406.087 -88.7285 411.634C-81.2866 418.839 -77.7789 420.546 -35.4974 434.815C-11.7022 442.826 12.7091 449.131 36.0777 458.28C37.7841 458.944 39.8698 458.47 41.7184 458.897C59.1619 462.973 77.6008 464.775 93.717 471.886C120.356 483.547 150.361 485.017 173.966 487.529C202.312 490.563 220.846 492.507 246.253 489.425C278.533 485.443 291.757 477.005 307.779 486.154C316.027 490.848 322.852 498.954 338.969 503.362C343.092 504.5 347.595 506.254 355.654 505.828C370.774 505.022 386.085 502.13 400.921 503.647C439.742 507.676 478.516 504.642 517.338 505.496C528.572 505.733 539.853 507.534 550.85 509.762C558.481 511.327 565.354 511.611 573.081 509.667C584.978 506.681 597.397 505.211 608.868 512.085C615.362 516.02 621.477 512.986 627.971 511.563C636.171 509.81 645.414 506.728 652.856 508.861C671.011 514.076 688.312 511.421 705.945 507.913C719.834 505.116 733.438 501.988 747.184 510.189C751.308 512.654 758.181 511.089 763.727 510.521C798.471 507.06 833.121 502.414 867.961 500.044C918.774 496.584 969.73 494.924 1020.59 492.128C1034.62 491.369 1048.46 493.976 1062.87 490.61C1073.16 488.193 1085.01 493.502 1096.15 493.644C1132.98 494.024 1169.81 493.502 1206.69 493.55C1235.93 493.597 1265.23 494.877 1294.43 493.787C1330.45 492.412 1349.55 491.416 1376.19 487.008C1391.64 484.448 1406.86 481.177 1430.51 480.513C1439.57 480.276 1446.3 480.561 1448.15 480.656C1466.44 481.414 1523.85 481.935 1537.35 481.935C1608.27 481.983 1639.41 468.33 1675.76 475.63C1687.61 478.001 1696.57 481.746 1705.77 485.017C1747.91 484.495 1790 483.595 1832.09 482.41C1850.63 466.055 1868.02 447.045 1891.63 447.045C1909.69 447.045 1908.93 458.138 1935.95 466.102C1961.31 473.592 1985.91 470.89 2005.01 466.007C2032.27 450.885 2058.95 434.767 2085.02 417.512C2095.92 403.765 2106.26 389.022 2132.47 373.331C2196.94 334.648 2237.61 361.859 2269.46 322.655C2273.87 317.251 2281.12 287.48 2295.72 227.94C2306.91 182.241 2312.5 159.345 2316.95 131.044C2318.33 122.321 2320.65 106.536 2325.15 84.1129C2330.94 55.4329 2330.56 56.2863 2333.59 45.4779C2339.94 21.8702 2338.47 -12.3561 2321.5 -33.0247Z" fill="#67AE3E"/>
</svg>
