<svg width="1920" height="549" viewBox="0 0 1920 549" fill="none" xmlns="http://www.w3.org/2000/svg">
<path d="M2255.5 0.975342C2245.65 -11.0181 2239.48 -7.6524 2215.12 -30.8334C2203.03 -42.3055 2198.81 -48.5629 2196.02 -53.7775C2192.08 -61.0304 2184.45 -75.1571 2187.25 -90.8481C2190.57 -109.336 2204.83 -110.379 2210.95 -132.565C2214.27 -144.558 2213.08 -154.229 2212.23 -161.766C2208.44 -194.238 2207.58 -243.54 2212.28 -284.545C2203.84 -292.698 2195.35 -300.757 2186.73 -308.769C2155.06 -338.207 2122.4 -366.603 2088.89 -393.908C2080.5 -400.734 2072.06 -407.513 2063.58 -414.245C2061.83 -415.62 2060.02 -417.184 2058.18 -418.701C2057.32 -419.27 2056.47 -419.839 2055.76 -420.407C2038.5 -433.444 2021.11 -446.385 2003.52 -459.043C1980.63 -475.492 1957.4 -491.467 1933.99 -507.206C1837.86 -541.1 1743.39 -579.641 1646.31 -610.833C1645.22 -611.165 1644.08 -611.497 1642.99 -611.829C1591.85 -618.56 1520.98 -626.003 1454.57 -626.619C1450.88 -626.666 1432.01 -626.761 1406.51 -628.563C1392.38 -629.558 1378.35 -632.213 1364.23 -632.782C1334.08 -634.014 1304.08 -629.653 1274.03 -629.037C1204.96 -627.567 1135.9 -628.041 1066.84 -627.709C1034.65 -627.567 1002.42 -627.615 970.234 -626.951C933.403 -626.192 896.668 -620.456 859.742 -625.576C850.404 -626.903 840.877 -627.757 831.444 -627.899C822.059 -628.041 811.773 -629.226 803.43 -626.003C789.542 -620.646 775.559 -621.073 761.481 -620.93C743.468 -620.741 725.456 -621.167 707.491 -621.594C652.601 -622.921 597.711 -623.016 542.868 -620.646C519.215 -619.603 495.61 -617.47 471.909 -616.711C458.637 -616.285 445.555 -616.996 432.709 -612.208C427.732 -610.359 421.333 -610.122 416.119 -611.355C411.236 -612.54 406.307 -613.393 401.377 -614.152C395.926 -613.583 390.475 -613.014 385.024 -612.398C367.391 -610.407 349.758 -608.321 332.125 -606.14C326.247 -605.382 320.369 -604.671 314.539 -603.865C319.279 -604.528 324.019 -605.145 328.759 -605.808C319.943 -604.908 311.173 -603.391 302.404 -602.111C265.906 -596.801 229.549 -590.733 193.335 -583.765C122.566 -570.065 52.4128 -552.667 -15.9865 -529.723C-32.5293 -524.177 -48.7878 -517.872 -65.2832 -512.136C-65.9943 -511.899 -66.6105 -511.662 -67.2267 -511.472C-67.2741 -511.472 -67.3215 -511.425 -67.3215 -511.425C-75.901 -507.348 -84.528 -503.414 -93.0127 -499.1C-98.0846 -496.54 -103.062 -493.743 -108.039 -491.041C-124.108 -458.853 -142.025 -427.945 -167.811 -403.721C-168.522 -387.745 -171.177 -371.865 -176.58 -356.126C-197.626 -294.879 -240.666 -250.982 -269.343 -194.57C-280.862 -171.911 -292.38 -149.535 -304.894 -127.777C-310.677 -110.711 -315.891 -96.916 -313.331 -74.1142C-312.431 -66.1501 -312.241 -71.6017 -306.837 -46.4771C-295.177 7.612 -297.215 28.1384 -279.203 52.5993C-274.51 58.9516 -274.273 57.7191 -268.727 65.2564C-259.532 77.8187 -244.6 98.1555 -243.463 123.422C-242.325 148.357 -254.981 170.353 -270.197 196.9C-270.576 197.564 -270.908 198.133 -271.097 198.464C-279.155 207.187 -288.446 220.271 -287.403 235.488C-286.787 244.684 -282.853 248.24 -276.501 263.03C-272.709 271.847 -270.197 280.854 -266.642 295.313C-232.655 324.23 -208.765 361.443 -184.781 399.367C-182.979 401.121 -181.178 403.017 -179.377 405.15C-172.646 413.304 -170.608 419.135 -168.569 424.728C-167.669 426.151 -166.768 427.525 -165.868 428.947C-162.218 434.541 -158.473 440.087 -154.728 445.634C-147.287 452.839 -143.779 454.546 -101.497 468.815C-77.7022 476.826 -53.2909 483.131 -29.9223 492.28C-28.2159 492.944 -26.1302 492.47 -24.2816 492.897C-6.83813 496.973 11.6008 498.775 27.717 505.886C54.3562 517.547 84.3609 519.017 107.966 521.529C136.312 524.563 154.846 526.507 180.253 523.425C212.533 519.443 225.757 511.005 241.779 520.154C250.027 524.848 256.852 532.954 272.969 537.362C277.092 538.5 281.595 540.254 289.654 539.828C304.774 539.022 320.085 536.13 334.921 537.647C373.742 541.676 412.516 538.642 451.338 539.496C462.572 539.733 473.853 541.534 484.85 543.762C492.481 545.327 499.354 545.611 507.081 543.667C518.978 540.681 531.397 539.211 542.868 546.085C549.362 550.02 555.477 546.986 561.971 545.563C570.171 543.81 579.414 540.728 586.856 542.861C605.011 548.076 622.312 545.421 639.945 541.913C653.834 539.116 667.438 535.988 681.184 544.189C685.308 546.654 692.181 545.089 697.727 544.521C732.471 541.06 767.121 536.414 801.961 534.044C852.774 530.584 903.73 528.924 954.591 526.128C968.622 525.369 982.463 527.976 996.873 524.61C1007.16 522.193 1019.01 527.502 1030.15 527.644C1066.98 528.024 1103.81 527.502 1140.69 527.55C1169.93 527.597 1199.23 528.877 1228.43 527.787C1264.45 526.412 1283.55 525.416 1310.19 521.008C1325.64 518.448 1340.86 515.177 1364.51 514.513C1373.57 514.276 1380.3 514.561 1382.15 514.656C1400.44 515.414 1457.85 515.935 1471.35 515.935C1542.27 515.983 1573.41 502.33 1609.76 509.63C1621.61 512.001 1630.57 515.746 1639.77 519.017C1681.91 518.495 1724 517.595 1766.09 516.41C1784.63 500.055 1802.02 481.045 1825.63 481.045C1843.69 481.045 1842.93 492.138 1869.95 500.102C1895.31 507.592 1919.91 504.89 1939.01 500.007C1966.27 484.885 1992.95 468.767 2019.02 451.512C2029.92 437.765 2040.26 423.022 2066.47 407.331C2130.94 368.648 2171.61 395.859 2203.46 356.655C2207.87 351.251 2215.12 321.48 2229.72 261.94C2240.91 216.241 2246.5 193.345 2250.95 165.044C2252.33 156.321 2254.65 140.536 2259.15 118.113C2264.94 89.4329 2264.56 90.2863 2267.59 79.4779C2273.94 55.8702 2272.47 21.6439 2255.5 0.975342Z" fill="#FBB04C"/>
</svg>
