<svg width="378" height="455" viewBox="0 0 378 455" fill="none" xmlns="http://www.w3.org/2000/svg">
<path d="M375.726 244.244C374.284 239.624 373.383 240.92 369.82 231.99C368.053 227.57 367.436 225.159 367.027 223.15C366.452 220.356 365.336 214.914 365.745 208.869C366.23 201.746 368.316 201.344 369.21 192.797C369.696 188.176 369.522 184.451 369.398 181.547C368.843 169.037 368.718 150.043 369.404 134.245C368.171 131.104 366.93 127.999 365.669 124.913C361.039 113.571 356.263 102.632 351.363 92.1122C350.136 89.4823 348.902 86.8707 347.661 84.2773C347.405 83.7477 347.142 83.145 346.871 82.5605C346.746 82.3414 346.622 82.1222 346.518 81.9031C343.995 76.8807 341.451 71.8949 338.88 67.0186C335.532 60.6813 332.136 54.5266 328.712 48.4632C314.655 35.4051 300.841 20.5571 286.646 8.53994C286.487 8.4121 286.321 8.28426 286.161 8.15642C278.682 5.56305 268.32 2.69573 258.61 2.45831C258.069 2.44005 255.31 2.40352 251.581 1.70952C249.516 1.326 247.464 0.303259 245.399 0.0841008C240.991 -0.390741 236.603 1.28947 232.209 1.52689C222.11 2.09305 212.011 1.91042 201.913 2.03826C197.206 2.09305 192.493 2.07479 187.787 2.33047C182.401 2.62268 177.03 4.83252 171.63 2.8601C170.265 2.34873 168.872 2.02 167.492 1.96521C166.12 1.91042 164.616 1.45384 163.396 2.69573C161.365 4.75947 159.321 4.5951 157.262 4.64989C154.628 4.72294 151.994 4.55858 149.367 4.39421C141.341 3.88284 133.315 3.84631 125.296 4.75947C121.837 5.16126 118.385 5.9831 114.92 6.27531C112.979 6.43968 111.066 6.16573 109.187 8.01031C108.46 8.72258 107.524 8.81389 106.762 8.33905C106.048 7.88247 105.327 7.55373 104.606 7.26152C103.809 7.48068 103.012 7.69984 102.215 7.93726C99.6363 8.70431 97.0579 9.50789 94.4795 10.348C93.6201 10.6402 92.7606 10.9142 91.9081 11.2246C92.6012 10.9689 93.2943 10.7315 93.9874 10.4758C92.6982 10.8228 91.416 11.4073 90.1337 11.9004C84.7967 13.9458 79.4805 16.2835 74.1851 18.9682C63.8368 24.2463 53.5787 30.9488 43.577 39.7882C41.158 41.925 38.7806 44.354 36.3686 46.5639C36.2646 46.6552 36.1745 46.7465 36.0844 46.8195C36.0775 46.8195 36.0706 46.8378 36.0706 46.8378C34.816 48.4084 33.5545 49.9243 32.3139 51.5862C31.5722 52.5724 30.8444 53.65 30.1167 54.691C27.767 67.0916 25.147 78.9992 21.3765 88.3317C21.2725 94.4864 20.8844 100.605 20.0942 106.668C17.0168 130.264 10.7233 147.176 6.5299 168.909C4.84562 177.639 3.16135 186.259 1.33152 194.642C0.485915 201.216 -0.276514 206.531 0.0977693 215.315C0.229462 218.384 0.257186 216.283 1.04734 225.963C2.75241 246.801 2.45437 254.709 5.08821 264.133C5.7744 266.58 5.80906 266.105 6.62 269.009C7.96465 273.849 10.148 281.684 10.3143 291.418C10.4807 301.025 8.63004 309.499 6.40514 319.726C6.34969 319.982 6.30117 320.201 6.27344 320.329C5.09514 323.689 3.73663 328.73 3.88912 334.592C3.97923 338.135 4.55451 339.505 5.48329 345.203C6.03778 348.6 6.40514 352.07 6.92497 357.64C11.8946 368.781 15.3879 383.117 18.8951 397.728C19.1585 398.404 19.4219 399.134 19.6853 399.956C20.6695 403.097 20.9675 405.344 21.2656 407.499C21.3973 408.047 21.529 408.576 21.6606 409.124C22.1943 411.279 22.7419 413.416 23.2895 415.553C24.3777 418.329 24.8906 418.986 31.0732 424.483C34.5526 427.57 38.1222 429.999 41.5392 433.524C41.7888 433.779 42.0937 433.597 42.3641 433.761C44.9147 435.332 47.611 436.026 49.9676 438.765C53.8629 443.258 58.2503 443.824 61.702 444.792C65.8469 445.961 68.557 446.71 72.2721 445.523C76.9922 443.989 78.926 440.738 81.2687 444.262C82.4748 446.071 83.4728 449.194 85.8294 450.892C86.4324 451.33 87.0909 452.006 88.2692 451.842C90.4803 451.531 92.719 450.417 94.8885 451.002C100.565 452.554 106.235 451.385 111.911 451.714C113.554 451.805 115.204 452.499 116.812 453.358C117.928 453.96 118.933 454.07 120.062 453.321C121.802 452.17 123.618 451.604 125.296 454.252C126.245 455.768 127.139 454.599 128.089 454.052C129.288 453.376 130.639 452.189 131.728 453.011C134.382 455.019 136.912 453.997 139.491 452.645C141.521 451.568 143.511 450.362 145.521 453.522C146.124 454.472 147.129 453.869 147.94 453.65C153.02 452.317 158.087 450.527 163.181 449.614C170.612 448.28 178.063 447.641 185.5 446.564C187.551 446.271 189.575 447.276 191.682 445.979C193.186 445.048 194.919 447.093 196.548 447.148C201.934 447.294 207.319 447.093 212.711 447.112C216.988 447.13 221.271 447.623 225.541 447.203C230.809 446.673 233.602 446.29 237.497 444.591C239.757 443.605 241.982 442.345 245.44 442.089C246.764 441.998 247.749 442.107 248.019 442.144C250.694 442.436 259.088 442.637 261.063 442.637C271.432 442.655 275.986 437.396 281.302 440.208C283.035 441.121 284.345 442.564 285.69 443.824C291.852 443.623 298.006 443.276 304.161 442.82C306.871 436.519 309.415 429.195 312.867 429.195C315.508 429.195 315.397 433.469 319.348 436.537C323.056 439.423 326.653 438.382 329.446 436.501C333.432 430.675 337.334 424.465 341.146 417.817C342.74 412.521 344.251 406.841 348.084 400.796C357.511 385.893 363.457 396.376 368.115 381.273C368.76 379.191 369.82 367.722 371.955 344.783C373.591 327.177 374.409 318.356 375.06 307.453C375.261 304.093 375.601 298.011 376.259 289.373C377.105 278.323 377.05 278.652 377.493 274.488C378.422 265.393 378.207 252.207 375.726 244.244Z" fill="white"/>
</svg>
