<svg width="892" height="503" viewBox="0 0 892 503" fill="none" xmlns="http://www.w3.org/2000/svg">
<path d="M886.633 271.262C883.231 265.809 881.105 267.339 872.698 256.799C868.527 251.583 867.071 248.737 866.106 246.366C864.749 243.069 862.115 236.645 863.08 229.511C864.225 221.105 869.148 220.63 871.258 210.543C872.403 205.09 871.994 200.692 871.7 197.265C870.392 182.5 870.097 160.084 871.716 141.439C868.805 137.732 865.877 134.067 862.9 130.425C851.975 117.039 840.705 104.128 829.141 91.7126C826.246 88.6087 823.335 85.5265 820.407 82.4657C819.802 81.8406 819.181 81.1293 818.543 80.4396C818.248 80.1809 817.954 79.9223 817.709 79.6636C811.755 73.7361 805.752 67.8517 799.684 62.0967C791.784 54.6172 783.77 47.3534 775.69 40.1972C742.52 24.7857 709.922 7.2619 676.425 -6.92099C676.048 -7.07187 675.656 -7.22275 675.28 -7.37363C657.631 -10.4344 633.179 -13.8184 610.264 -14.0987C608.988 -14.1202 602.479 -14.1633 593.679 -14.9824C588.805 -15.435 583.964 -16.6421 579.089 -16.9007C568.687 -17.4612 558.334 -15.4781 547.964 -15.1979C524.133 -14.5297 500.302 -14.7453 476.471 -14.5944C465.366 -14.5297 454.243 -14.5513 443.138 -14.2495C430.429 -13.9047 417.753 -11.2966 405.011 -13.6245C401.789 -14.228 398.502 -14.616 395.247 -14.6806C392.008 -14.7453 388.459 -15.2842 385.58 -13.8184C380.788 -11.3828 375.963 -11.5768 371.105 -11.5121C364.89 -11.4259 358.675 -11.6199 352.476 -11.8139C333.535 -12.4174 314.595 -12.4605 295.671 -11.3828C287.509 -10.9086 279.364 -9.93862 271.186 -9.59375C266.606 -9.39976 262.092 -9.72308 257.659 -7.54607C255.942 -6.70544 253.734 -6.59767 251.935 -7.15809C250.25 -7.69695 248.549 -8.08493 246.848 -8.42981C244.967 -8.17115 243.086 -7.9125 241.205 -7.63229C235.121 -6.727 229.036 -5.7786 222.952 -4.78709C220.924 -4.44222 218.895 -4.1189 216.884 -3.75247C218.519 -4.05423 220.155 -4.33444 221.79 -4.63621C218.748 -4.22667 215.722 -3.53693 212.696 -2.95495C200.102 -0.540844 187.557 2.21814 175.061 5.38666C150.641 11.6159 126.434 19.5264 102.833 29.9588C97.1242 32.4807 91.5141 35.3475 85.8222 37.9556C85.5768 38.0633 85.3642 38.1711 85.1516 38.2573C85.1352 38.2573 85.1189 38.2789 85.1189 38.2789C82.1584 40.1326 79.1816 41.9216 76.2539 43.8831C74.5038 45.047 72.7864 46.3187 71.069 47.5473C65.5243 62.1829 59.3417 76.2364 50.4439 87.2508C50.1986 94.5147 49.2827 101.735 47.4181 108.892C40.156 136.74 25.3046 156.7 15.4092 182.349C11.4346 192.653 7.46011 202.826 3.1421 212.72C1.14666 220.479 -0.652515 226.752 0.230715 237.12C0.541481 240.741 0.606905 238.262 2.4715 249.686C6.4951 274.28 5.79179 283.613 12.0071 294.735C13.6264 297.623 13.7081 297.063 15.6218 300.49C18.7949 306.202 23.9471 315.449 24.3396 326.937C24.7322 338.275 20.3651 348.276 15.1148 360.347C14.9839 360.649 14.8694 360.907 14.804 361.058C12.0235 365.024 8.81767 370.973 9.1775 377.892C9.39013 382.074 10.7477 383.69 12.9394 390.415C14.2479 394.425 15.1148 398.52 16.3415 405.094C28.0688 418.242 36.3123 435.163 44.5885 452.406C45.21 453.204 45.8315 454.066 46.4531 455.036C48.7756 458.743 49.4789 461.395 50.1822 463.938C50.493 464.585 50.8038 465.21 51.1145 465.856C52.374 468.4 53.6661 470.922 54.9582 473.444C57.5261 476.72 58.7365 477.496 73.3261 483.984C81.5369 487.626 89.9603 490.493 98.0238 494.653C98.6127 494.955 99.3323 494.739 99.9702 494.933C105.989 496.787 112.352 497.606 117.913 500.839C127.105 506.142 137.458 506.81 145.604 507.952C155.385 509.332 161.78 510.216 170.547 508.815C181.685 507.004 186.249 503.167 191.777 507.327C194.623 509.461 196.978 513.147 202.539 515.152C203.962 515.669 205.516 516.466 208.297 516.272C213.514 515.906 218.797 514.591 223.917 515.281C237.312 517.113 250.692 515.734 264.087 516.122C267.964 516.229 271.856 517.048 275.651 518.062C278.284 518.773 280.656 518.902 283.322 518.018C287.427 516.66 291.713 515.992 295.671 519.118C297.912 520.907 300.022 519.527 302.262 518.881C305.092 518.083 308.281 516.682 310.849 517.652C317.114 520.023 323.084 518.816 329.168 517.221C333.961 515.949 338.655 514.527 343.398 518.255C344.821 519.376 347.193 518.665 349.106 518.406C361.095 516.833 373.052 514.721 385.073 513.643C402.607 512.069 420.19 511.315 437.74 510.043C442.581 509.698 447.357 510.884 452.33 509.353C455.879 508.254 459.968 510.668 463.812 510.733C476.52 510.905 489.229 510.668 501.954 510.69C512.046 510.711 522.154 511.293 532.229 510.798C544.66 510.172 551.251 509.72 560.443 507.715C565.776 506.551 571.026 505.064 579.188 504.762C582.312 504.655 584.634 504.784 585.272 504.827C591.586 505.172 611.393 505.409 616.054 505.409C640.523 505.43 651.269 499.223 663.814 502.542C667.903 503.62 670.994 505.323 674.167 506.81C688.708 506.573 703.232 506.163 717.756 505.625C724.152 498.188 730.154 489.545 738.3 489.545C744.531 489.545 744.27 494.589 753.593 498.21C762.343 501.615 770.832 500.387 777.424 498.167C786.828 491.291 796.037 483.962 805.033 476.116C808.795 469.866 812.36 463.162 821.405 456.028C843.649 438.439 857.683 450.811 868.674 432.986C870.195 430.528 872.698 416.992 877.735 389.92C881.596 369.141 883.526 358.73 885.063 345.862C885.537 341.896 886.339 334.719 887.893 324.523C889.888 311.483 889.757 311.871 890.804 306.956C892.996 296.222 892.489 280.66 886.633 271.262Z" fill="white"/>
</svg>
