<svg width="360" height="379" viewBox="0 0 360 379" fill="none" xmlns="http://www.w3.org/2000/svg">
<path d="M357.834 203.447C356.461 199.599 355.603 200.679 352.21 193.24C350.527 189.558 349.939 187.55 349.55 185.877C349.002 183.549 347.939 179.016 348.328 173.981C348.79 168.048 350.777 167.713 351.629 160.594C352.091 156.745 351.926 153.641 351.807 151.223C351.279 140.802 351.16 124.981 351.814 111.822C350.639 109.205 349.457 106.619 348.256 104.048C343.846 94.6012 339.298 85.4889 334.631 76.7264C333.463 74.5358 332.288 72.3604 331.106 70.2002C330.862 69.759 330.611 69.257 330.354 68.7702C330.235 68.5877 330.116 68.4051 330.017 68.2225C327.614 64.0391 325.191 59.886 322.742 55.8243C319.554 50.5455 316.32 45.4189 313.059 40.3683C299.672 29.4912 286.516 17.1234 272.996 7.11349C272.845 7.007 272.686 6.90052 272.534 6.79403C265.412 4.63384 255.543 2.24546 246.295 2.04769C245.78 2.03248 243.153 2.00205 239.601 1.42398C237.634 1.10451 235.68 0.252605 233.713 0.0700532C229.515 -0.325475 225.336 1.07409 221.151 1.27185C211.533 1.74344 201.916 1.59131 192.298 1.6978C187.816 1.74344 183.327 1.72823 178.845 1.9412C173.716 2.18461 168.6 4.02533 163.458 2.38237C162.157 1.95642 160.83 1.68259 159.517 1.63695C158.21 1.59131 156.777 1.211 155.615 2.24546C153.681 3.96448 151.734 3.82757 149.773 3.87321C147.265 3.93406 144.757 3.79714 142.255 3.66023C134.611 3.23428 126.967 3.20385 119.329 3.96448C116.035 4.29916 112.748 4.98373 109.447 5.22713C107.599 5.36404 105.777 5.13585 103.988 6.67233C103.295 7.26562 102.404 7.34168 101.678 6.94615C100.998 6.56584 100.311 6.29201 99.6247 6.04861C98.8656 6.23116 98.1065 6.41371 97.3474 6.61148C94.8917 7.25041 92.4361 7.91976 89.9805 8.61954C89.162 8.86294 88.3434 9.09113 87.5315 9.34975C88.1916 9.13677 88.8517 8.93901 89.5118 8.72603C88.284 9.01507 87.0628 9.50187 85.8416 9.91261C80.7587 11.6164 75.6957 13.5636 70.6524 15.7999C60.797 20.1963 51.0273 25.7794 41.5019 33.1423C39.1981 34.9221 36.9339 36.9454 34.6368 38.7862C34.5377 38.8622 34.4519 38.9383 34.3661 38.9991C34.3595 38.9991 34.3529 39.0143 34.3529 39.0143C33.1581 40.3226 31.9567 41.5853 30.7751 42.9696C30.0688 43.7911 29.3757 44.6886 28.6825 45.5558C26.4448 55.8851 23.9495 65.8037 20.3585 73.5774C20.2595 78.704 19.8899 83.8003 19.1373 88.8509C16.2064 108.506 10.2126 122.592 6.21895 140.695C4.61488 147.967 3.01081 155.147 1.26811 162.13C0.462776 167.607 -0.263347 172.033 0.0931136 179.351C0.218535 181.906 0.244939 180.157 0.997467 188.22C2.62134 205.577 2.33749 212.164 4.84592 220.014C5.49943 222.052 5.53243 221.657 6.30476 224.076C7.58538 228.107 9.66473 234.633 9.82316 242.742C9.98159 250.743 8.21909 257.802 6.10013 266.321C6.04732 266.534 6.00111 266.717 5.97471 266.823C4.85252 269.622 3.5587 273.821 3.70392 278.704C3.78974 281.656 4.33763 282.796 5.22218 287.543C5.75027 290.372 6.10013 293.263 6.59521 297.903C11.3282 307.182 14.6552 319.124 17.9953 331.294C18.2462 331.857 18.497 332.466 18.7479 333.15C19.6852 335.767 19.9691 337.638 20.2529 339.433C20.3783 339.889 20.5038 340.331 20.6292 340.787C21.1375 342.582 21.659 344.362 22.1804 346.142C23.2168 348.454 23.7053 349.002 29.5935 353.581C32.9073 356.152 36.3068 358.175 39.5612 361.111C39.7988 361.324 40.0893 361.172 40.3467 361.309C42.7759 362.617 45.3438 363.195 47.5881 365.477C51.298 369.219 55.4765 369.691 58.7638 370.497C62.7113 371.471 65.2923 372.094 68.8305 371.106C73.3259 369.828 75.1676 367.12 77.3988 370.056C78.5474 371.562 79.4979 374.163 81.7423 375.578C82.3166 375.943 82.9437 376.506 84.0659 376.369C86.1717 376.111 88.3038 375.183 90.37 375.669C95.7763 376.963 101.176 375.989 106.582 376.263C108.147 376.339 109.718 376.917 111.249 377.632C112.312 378.134 113.269 378.225 114.345 377.601C116.002 376.643 117.732 376.171 119.329 378.377C120.233 379.64 121.085 378.666 121.989 378.21C123.131 377.647 124.419 376.658 125.455 377.343C127.983 379.016 130.393 378.164 132.848 377.039C134.782 376.141 136.677 375.137 138.591 377.769C139.165 378.56 140.123 378.058 140.895 377.875C145.734 376.765 150.559 375.274 155.411 374.513C162.487 373.403 169.583 372.87 176.666 371.973C178.62 371.729 180.548 372.566 182.555 371.486C183.987 370.71 185.637 372.414 187.189 372.46C192.318 372.581 197.447 372.414 202.582 372.429C206.655 372.444 210.735 372.855 214.801 372.505C219.818 372.064 222.478 371.745 226.188 370.33C228.34 369.508 230.459 368.459 233.753 368.246C235.014 368.17 235.951 368.261 236.208 368.291C238.756 368.535 246.75 368.702 248.632 368.702C258.507 368.717 262.844 364.336 267.907 366.679C269.557 367.439 270.805 368.641 272.086 369.691C277.954 369.524 283.816 369.234 289.677 368.854C292.259 363.606 294.681 357.506 297.969 357.506C300.484 357.506 300.378 361.065 304.141 363.621C307.672 366.025 311.098 365.158 313.758 363.591C317.554 358.738 321.27 353.566 324.901 348.028C326.419 343.616 327.858 338.885 331.509 333.85C340.486 321.436 346.15 330.169 350.586 317.588C351.2 315.853 352.21 306.3 354.243 287.193C355.801 272.528 356.58 265.18 357.2 256.098C357.392 253.299 357.715 248.233 358.342 241.038C359.148 231.834 359.095 232.108 359.517 228.64C360.402 221.064 360.197 210.08 357.834 203.447Z" fill="white"/>
</svg>
