<svg width="390" height="230" viewBox="0 0 390 230" fill="none" xmlns="http://www.w3.org/2000/svg">
<path d="M387.654 123.464C386.166 121.128 385.236 121.784 381.561 117.27C379.737 115.035 379.101 113.817 378.679 112.801C378.085 111.389 376.934 108.638 377.356 105.582C377.856 101.981 380.009 101.778 380.931 97.4578C381.432 95.1221 381.253 93.2388 381.124 91.771C380.552 85.4471 380.424 75.8459 381.132 67.8603C379.859 66.2724 378.579 64.7029 377.277 63.1427C372.5 57.4097 367.573 51.8798 362.517 46.5622C361.251 45.2328 359.978 43.9126 358.698 42.6017C358.434 42.334 358.162 42.0293 357.883 41.7339C357.754 41.6231 357.626 41.5123 357.518 41.4015C354.915 38.8628 352.291 36.3425 349.638 33.8775C346.184 30.674 342.68 27.5629 339.147 24.4979C324.644 17.8971 310.392 10.3915 295.746 4.3169C295.582 4.25227 295.41 4.18765 295.246 4.12302C287.529 2.81209 276.838 1.36268 266.82 1.24266C266.262 1.23343 263.416 1.21497 259.568 0.864154C257.437 0.670284 255.32 0.153296 253.189 0.0425125C248.641 -0.197518 244.114 0.65182 239.581 0.771835C229.161 1.05802 218.742 0.965705 208.323 1.03033C203.467 1.05802 198.604 1.04879 193.749 1.17804C188.192 1.32575 182.65 2.44281 177.079 1.44577C175.67 1.18727 174.233 1.0211 172.81 0.993401C171.394 0.965705 169.842 0.734907 168.583 1.36268C166.488 2.40589 164.378 2.3228 162.255 2.35049C159.537 2.38742 156.82 2.30434 154.109 2.22125C145.828 1.96275 137.547 1.94429 129.273 2.40589C125.705 2.60899 122.143 3.02443 118.568 3.17214C116.565 3.25522 114.592 3.11674 112.654 4.04917C111.903 4.40921 110.937 4.45537 110.151 4.21534C109.414 3.98455 108.671 3.81837 107.927 3.67066C107.104 3.78144 106.282 3.89223 105.46 4.01224C102.799 4.39998 100.139 4.80619 97.4789 5.23086C96.5921 5.37857 95.7054 5.51705 94.8258 5.67399C95.5409 5.54474 96.256 5.42473 96.9712 5.29548C95.641 5.47089 94.3181 5.76631 92.9951 6.01557C87.4886 7.04955 82.0037 8.23123 76.5402 9.58833C65.8634 12.2564 55.2796 15.6445 44.9604 20.1127C42.4646 21.1929 40.0118 22.4207 37.5232 23.5378C37.4159 23.5839 37.3229 23.6301 37.23 23.667C37.2228 23.667 37.2157 23.6762 37.2157 23.6762C35.9213 24.4702 34.6198 25.2364 33.3397 26.0765C32.5745 26.5751 31.8236 27.1198 31.0728 27.646C28.6485 33.9145 25.9453 39.9337 22.0551 44.6512C21.9478 47.7623 21.5474 50.855 20.7321 53.92C17.557 65.8477 11.0637 74.3965 6.7372 85.3825C4.99945 89.7953 3.26171 94.1528 1.37379 98.3902C0.501341 101.714 -0.285292 104.4 0.100873 108.841C0.236746 110.392 0.265351 109.33 1.08059 114.223C2.83979 124.757 2.53228 128.754 5.24974 133.518C5.95771 134.755 5.99347 134.515 6.83016 135.983C8.2175 138.429 10.4701 142.39 10.6418 147.31C10.8134 152.166 8.90401 156.45 6.60847 161.62C6.55126 161.749 6.50121 161.86 6.4726 161.924C5.2569 163.623 3.85526 166.171 4.01258 169.135C4.10555 170.926 4.6991 171.618 5.65736 174.498C6.22946 176.215 6.60847 177.969 7.14481 180.785C12.2722 186.417 15.8764 193.664 19.495 201.049C19.7667 201.391 20.0384 201.76 20.3102 202.176C21.3257 203.763 21.6332 204.899 21.9407 205.988C22.0765 206.265 22.2124 206.533 22.3483 206.81C22.8989 207.899 23.4639 208.979 24.0288 210.06C25.1516 211.463 25.6808 211.795 32.0596 214.574C35.6495 216.134 39.3324 217.362 42.858 219.144C43.1154 219.273 43.4301 219.181 43.709 219.264C46.3406 220.058 49.1224 220.409 51.5538 221.793C55.5728 224.064 60.0995 224.351 63.6608 224.84C67.9372 225.431 70.7334 225.809 74.5664 225.209C79.4364 224.434 81.4316 222.79 83.8487 224.572C85.093 225.486 86.1228 227.065 88.5542 227.923C89.1764 228.145 89.8557 228.487 91.0714 228.403C93.3527 228.247 95.6625 227.683 97.9008 227.979C103.758 228.764 109.607 228.173 115.464 228.339C117.159 228.385 118.861 228.736 120.52 229.17C121.671 229.474 122.708 229.53 123.874 229.151C125.669 228.57 127.543 228.283 129.273 229.622C130.253 230.388 131.175 229.798 132.155 229.521C133.392 229.179 134.787 228.579 135.91 228.994C138.648 230.01 141.259 229.493 143.919 228.81C146.014 228.265 148.067 227.656 150.14 229.253C150.763 229.733 151.799 229.428 152.636 229.317C157.878 228.644 163.106 227.739 168.362 227.277C176.028 226.603 183.715 226.28 191.389 225.735C193.505 225.588 195.593 226.096 197.767 225.44C199.319 224.969 201.107 226.003 202.788 226.031C208.344 226.105 213.901 226.003 219.464 226.012C223.877 226.022 228.296 226.271 232.701 226.059C238.136 225.791 241.018 225.597 245.037 224.738C247.368 224.24 249.664 223.603 253.232 223.474C254.598 223.427 255.614 223.483 255.893 223.501C258.653 223.649 267.313 223.751 269.351 223.751C280.049 223.76 284.748 221.101 290.233 222.523C292.02 222.984 293.372 223.714 294.759 224.351C301.117 224.249 307.467 224.074 313.817 223.843C316.613 220.658 319.238 216.956 322.799 216.956C325.524 216.956 325.409 219.116 329.486 220.667C333.311 222.126 337.023 221.6 339.905 220.649C344.017 217.704 348.043 214.565 351.976 211.204C353.621 208.527 355.18 205.656 359.135 202.6C368.86 195.067 374.996 200.366 379.801 192.731C380.467 191.679 381.561 185.881 383.763 174.286C385.451 165.386 386.295 160.927 386.967 155.416C387.174 153.717 387.525 150.643 388.204 146.276C389.077 140.691 389.019 140.857 389.477 138.752C390.435 134.155 390.214 127.489 387.654 123.464Z" fill="white"/>
</svg>
