<svg width="821" height="448" viewBox="0 0 821 448" fill="none" xmlns="http://www.w3.org/2000/svg">
<path d="M816.077 240.499C812.946 235.949 810.989 237.226 803.251 228.433C799.412 224.081 798.072 221.707 797.184 219.729C795.934 216.978 793.51 211.619 794.398 205.667C795.452 198.653 799.984 198.258 801.926 189.842C802.98 185.292 802.603 181.624 802.332 178.765C801.128 166.447 800.857 147.745 802.347 132.19C799.668 129.097 796.973 126.04 794.233 123.001C784.176 111.834 773.804 101.062 763.16 90.704C760.496 88.1145 757.816 85.543 755.121 82.9895C754.564 82.468 753.992 81.8745 753.405 81.2991C753.134 81.0833 752.863 80.8675 752.637 80.6517C747.157 75.7065 741.632 70.7973 736.047 65.9959C728.776 59.756 721.399 53.6958 713.962 47.7256C683.431 34.8681 653.428 20.2482 622.596 8.4157C622.25 8.28982 621.888 8.16394 621.542 8.03807C605.298 5.48454 582.792 2.66128 561.7 2.4275C560.526 2.40952 554.534 2.37355 546.435 1.69022C541.949 1.31258 537.493 0.305558 533.006 0.0897668C523.432 -0.37778 513.902 1.27662 504.358 1.51039C482.423 2.06785 460.489 1.88802 438.554 2.0139C428.332 2.06785 418.095 2.04987 407.873 2.30162C396.176 2.58935 384.508 4.76524 372.781 2.82312C369.815 2.31961 366.789 1.99592 363.793 1.94197C360.812 1.88802 357.546 1.43846 354.896 2.66128C350.485 4.69331 346.044 4.53146 341.573 4.58541C335.852 4.65734 330.131 4.4955 324.425 4.33366C306.992 3.83014 289.559 3.79418 272.141 4.69331C264.629 5.08892 257.132 5.89814 249.604 6.18586C245.389 6.3477 241.234 6.07797 237.154 7.89421C235.574 8.59553 233.541 8.68544 231.885 8.21789C230.335 7.76833 228.769 7.44464 227.203 7.15692C225.472 7.37271 223.741 7.5885 222.009 7.82228C216.409 8.57754 210.809 9.36878 205.208 10.196C203.342 10.4837 201.475 10.7534 199.623 11.0591C201.129 10.8074 202.634 10.5736 204.14 10.3219C201.339 10.6635 198.554 11.239 195.769 11.7245C184.177 13.7385 172.63 16.0403 161.129 18.6838C138.652 23.8807 116.372 30.4803 94.6479 39.1839C89.3938 41.2879 84.2301 43.6795 78.9911 45.8554C78.7653 45.9453 78.5696 46.0353 78.3739 46.1072C78.3588 46.1072 78.3438 46.1252 78.3438 46.1252C75.6189 47.6717 72.879 49.1642 70.1842 50.8006C68.5734 51.7717 66.9926 52.8327 65.4119 53.8577C60.3084 66.0679 54.6178 77.7925 46.4281 86.9816C46.2023 93.0417 45.3592 99.0659 43.643 105.036C36.9588 128.27 23.2893 144.921 14.1813 166.321C10.523 174.916 6.86476 183.404 2.89036 191.658C1.0537 198.132 -0.602299 203.365 0.210647 212.014C0.496683 215.036 0.556901 212.968 2.27312 222.498C5.97654 243.016 5.32919 250.803 11.0499 260.082C12.5403 262.492 12.6156 262.024 14.377 264.883C17.2976 269.649 22.0397 277.363 22.4011 286.948C22.7624 296.407 18.7428 304.751 13.9103 314.821C13.7899 315.073 13.6845 315.288 13.6243 315.414C11.065 318.723 8.11429 323.686 8.44549 329.459C8.6412 332.947 9.89072 334.296 11.908 339.907C13.1124 343.251 13.9103 346.668 15.0394 352.153C25.8335 363.122 33.421 377.238 41.0386 391.624C41.6107 392.29 42.1827 393.009 42.7548 393.818C44.8926 396.911 45.5399 399.123 46.1872 401.245C46.4733 401.785 46.7593 402.306 47.0454 402.846C48.2046 404.968 49.3939 407.072 50.5832 409.175C52.9467 411.909 54.0608 412.556 67.4894 417.969C75.0468 421.008 82.7999 423.4 90.2218 426.87C90.7638 427.122 91.4262 426.942 92.0133 427.104C97.5534 428.651 103.41 429.334 108.528 432.031C116.989 436.455 126.518 437.013 134.016 437.966C143.018 439.116 148.904 439.854 156.974 438.685C167.226 437.174 171.426 433.973 176.515 437.444C179.134 439.224 181.302 442.299 186.42 443.972C187.73 444.403 189.16 445.069 191.72 444.907C196.522 444.601 201.385 443.504 206.097 444.08C218.426 445.608 230.741 444.457 243.071 444.781C246.639 444.871 250.222 445.554 253.714 446.399C256.138 446.993 258.321 447.101 260.775 446.363C264.554 445.231 268.498 444.673 272.141 447.281C274.203 448.773 276.146 447.622 278.208 447.083C280.812 446.417 283.748 445.249 286.112 446.058C291.878 448.036 297.372 447.029 302.973 445.698C307.384 444.637 311.704 443.45 316.07 446.561C317.38 447.496 319.563 446.903 321.324 446.687C332.359 445.374 343.364 443.612 354.429 442.713C370.568 441.4 386.751 440.771 402.905 439.71C407.361 439.422 411.757 440.411 416.334 439.134C419.6 438.217 423.364 440.231 426.902 440.285C438.599 440.429 450.297 440.231 462.009 440.249C471.298 440.267 480.601 440.753 489.875 440.339C501.316 439.818 507.383 439.44 515.844 437.768C520.752 436.797 525.584 435.556 533.097 435.304C535.972 435.214 538.11 435.322 538.697 435.358C544.508 435.646 562.739 435.844 567.03 435.844C589.551 435.862 599.442 430.683 610.989 433.452C614.753 434.351 617.598 435.772 620.518 437.013C633.902 436.815 647.27 436.473 660.639 436.023C666.525 429.819 672.05 422.608 679.547 422.608C685.283 422.608 685.042 426.816 693.623 429.837C701.678 432.679 709.491 431.654 715.558 429.801C724.214 424.065 732.69 417.951 740.97 411.405C744.432 406.19 747.714 400.598 756.04 394.646C776.514 379.972 789.43 390.294 799.547 375.422C800.947 373.372 803.251 362.079 807.887 339.493C811.44 322.158 813.217 313.472 814.632 302.737C815.068 299.428 815.806 293.44 817.236 284.934C819.073 274.054 818.952 274.378 819.916 270.278C821.933 261.323 821.467 248.339 816.077 240.499Z" fill="white"/>
</svg>
