<svg width="209" height="51" viewBox="0 0 209 51" fill="#EE303C" preserveAspectRatio="none" xmlns="http://www.w3.org/2000/svg">
<path d="M103.426 48.3525C33.4424 52.2888 61.05 47.8686 20.5989 48.4529C6.06254 48.6623 -0.00468007 44.8972 0.158602 34.6582C0.463682 15.3044 -1.84805 5.60245 4.66175 2.64878C6.23871 1.9347 7.61372 1.68094 14.738 1.22358C29.8201 0.255742 37.3612 -0.228177 47.2741 0.229185C68.6125 1.21768 154.013 0.394426 184.646 0.00788089C202.358 -0.216374 208.399 4.32479 207.982 16.2664C207.342 34.6464 208.906 42.5573 203.939 45.927C197.837 50.0669 185.72 49.3676 162.014 48.3437C156.66 48.1135 155.247 47.9099 150.383 47.6296C132.091 46.5703 118.779 47.488 103.426 48.3525Z"  />
</svg>
