<svg width="36" height="37" viewBox="0 0 36 37" fill="none" xmlns="http://www.w3.org/2000/svg">
<path d="M35.6813 6.97565C35.1418 3.7578 34.7182 1.04298 31.0075 0.498047C28.533 0.134862 26.0247 0.2789 23.5548 0.0104649C20.1569 -0.0403727 16.7263 0.110982 13.289 0.102512C10.5221 0.0959647 6.02876 -0.358114 4.0014 1.94999C2.00251 4.22458 1.41032 8.36252 1.58043 11.2264C1.82745 15.3878 1.32494 19.6482 1.06022 23.8022C0.808197 27.7576 1.13141 32.3665 5.07997 34.4377C8.55018 36.2575 12.1459 35.4132 15.8294 35.8346C19.9758 36.3087 23.999 35.8927 28.1461 35.3377C29.1638 35.2014 30.2023 35.0593 31.1242 34.6068C35.7176 32.3514 34.9288 26.2169 35.1847 22.0576C35.4879 17.1316 36.5033 11.8825 35.6818 6.97645L35.6813 6.97565Z" fill="white"/>
<path d="M15.6907 14.9978C15.6907 14.0129 15.6638 13.0573 15.6996 12.1036C15.7266 11.3443 15.7643 10.5759 15.9132 9.83492C16.1878 8.47222 17.0097 7.4855 18.187 6.82158C19.061 6.32822 20.0175 6.06594 21.0099 6.04394C22.0059 6.02193 23.0019 6.08796 23.9997 6.12647C24.4143 6.14298 24.5991 6.36856 24.5973 6.8069C24.5955 7.75144 24.6117 8.69597 24.644 9.64051C24.6601 10.1009 24.4681 10.2457 24.0338 10.2567C23.3644 10.2733 22.6915 10.3118 22.0328 10.4218C21.2271 10.5557 20.7766 11.0417 20.721 11.867C20.6618 12.7602 20.7012 13.6607 20.6869 14.5594C20.6815 14.8896 20.8502 14.9776 21.1355 14.9629C22.0885 14.9152 23.0414 14.8712 23.9943 14.8345C24.6117 14.8107 24.6942 14.9207 24.6099 15.5535C24.4556 16.6998 24.2958 17.846 24.1684 18.9978C24.1254 19.394 23.971 19.5701 23.5816 19.5664C22.7058 19.5572 21.8282 19.5645 20.913 19.5645C20.8915 19.8231 20.8699 19.968 20.8699 20.1129C20.8753 22.7026 20.8807 25.2941 20.8968 27.8838C20.9004 28.3863 20.9399 28.8889 20.974 29.3896C20.9973 29.7472 20.8538 29.9508 20.4984 29.9544C19.1722 29.9654 17.846 29.9673 16.5198 29.9783C16.1573 29.9801 16.0711 29.7619 16.0657 29.4464C16.0317 27.8343 15.9886 26.224 15.9527 24.6119C15.9204 23.1354 15.8845 21.6609 15.8719 20.1845C15.8701 19.8653 15.7786 19.7498 15.4681 19.7608C14.5744 19.7883 13.6807 19.7883 12.787 19.8195C12.3958 19.8323 12.2217 19.7003 12.2181 19.2729C12.2091 18.1156 12.1643 16.9584 12.1337 15.8011C12.1176 15.1867 12.193 15.1078 12.7762 15.0968C13.6556 15.0803 14.5349 15.062 15.4143 15.0418C15.5112 15.0344 15.6099 15.0088 15.6907 14.9978ZM12.7044 15.5535C12.7044 16.8483 12.7044 18.0606 12.7044 19.2876C13.6233 19.2876 14.4703 19.2894 15.3156 19.2876C16.3565 19.2858 16.3852 19.35 16.3529 20.399C16.3152 21.6444 16.3134 22.8915 16.3493 24.1368C16.396 25.7783 16.5054 27.4161 16.5611 29.0576C16.5718 29.3877 16.6813 29.4776 16.9774 29.4739C17.8855 29.4574 18.7954 29.4574 19.7034 29.4501C19.9493 29.4482 20.1952 29.4501 20.4643 29.4501C20.4643 29.1988 20.4661 29.0337 20.4643 28.8668C20.4446 25.8352 20.4213 22.8035 20.4069 19.7718C20.4033 19.2161 20.4823 19.1519 21.035 19.1354C21.7798 19.1134 22.5246 19.0767 23.2693 19.0785C23.5726 19.0785 23.6929 18.9703 23.718 18.6695C23.7628 18.1688 23.8346 17.6718 23.8956 17.1729C23.9674 16.5879 24.0428 16.0047 24.1182 15.4123C23.3393 15.4123 22.6143 15.4123 21.8911 15.4123C21.5196 15.4123 21.1481 15.4251 20.7766 15.4141C20.4177 15.4031 20.2364 15.1977 20.2346 14.8309C20.2292 13.8735 20.1772 12.9125 20.231 11.9587C20.301 10.7116 21.0207 10.0018 22.2482 9.87343C22.7668 9.81841 23.2909 9.82392 23.8077 9.76156C23.9315 9.74689 24.1307 9.57081 24.1343 9.46627C24.1541 8.62811 24.1469 7.78996 24.1146 6.95363C24.1092 6.82525 23.9405 6.60699 23.8292 6.59415C22.1136 6.39791 20.3944 6.33922 18.7702 7.06734C17.3597 7.70009 16.4534 8.81335 16.3188 10.4053C16.2057 11.7497 16.2201 13.1087 16.2255 14.4604C16.2309 15.537 16.2632 15.5425 15.1882 15.5535C14.3573 15.5608 13.5264 15.5535 12.7044 15.5535Z" fill="#67AE3E"/>
<path d="M16.509 30.2326C16.195 30.2326 15.8199 30.0951 15.8073 29.4458C15.7894 28.6113 15.7697 27.7787 15.7499 26.9442C15.732 26.1665 15.7122 25.3889 15.6961 24.6113L15.6817 23.9785C15.6548 22.7332 15.6261 21.4475 15.6153 20.1802C15.6153 20.0683 15.601 20.028 15.5956 20.0188C15.5938 20.0225 15.5669 20.0133 15.5005 20.0133C15.4915 20.0133 15.4825 20.0133 15.4735 20.0133C15.05 20.0261 14.6247 20.0335 14.1994 20.0408C13.7381 20.0481 13.2608 20.0555 12.7924 20.072C12.6129 20.0775 12.3545 20.0647 12.1697 19.8831C12.0315 19.7474 11.9633 19.5456 11.9597 19.2668C11.9525 18.4452 11.9292 17.6089 11.9041 16.7982C11.8951 16.4644 11.8843 16.1325 11.8753 15.7987C11.8682 15.4869 11.8735 15.2136 12.044 15.032C12.2127 14.8523 12.4712 14.8339 12.7673 14.8284C13.6466 14.8119 14.5242 14.7936 15.4036 14.7734C15.4125 14.7734 15.4233 14.7734 15.4323 14.7716C15.4323 14.5497 15.4305 14.3277 15.4287 14.1077C15.4233 13.4144 15.4179 12.7596 15.4412 12.0902C15.47 11.2997 15.5076 10.5276 15.6584 9.7793C15.9348 8.4056 16.7423 7.33269 18.0596 6.5899C18.9712 6.07453 19.9619 5.80309 21.0009 5.78108C21.7672 5.76457 22.5425 5.79942 23.2927 5.83427C23.5296 5.84527 23.7664 5.85627 24.0051 5.86544C24.5507 5.88562 24.8504 6.22125 24.8486 6.80631C24.8468 7.7105 24.863 8.66053 24.8953 9.63075C24.9042 9.91869 24.8432 10.1296 24.7068 10.2782C24.5202 10.4817 24.2348 10.5111 24.0374 10.5166C23.2316 10.5368 22.6251 10.5863 22.0705 10.678C21.3778 10.7935 21.0189 11.1879 20.9722 11.8848C20.9345 12.4589 20.9363 13.0494 20.9399 13.6216C20.9417 13.9353 20.9435 14.2489 20.9381 14.5625C20.9363 14.6432 20.9507 14.6781 20.9561 14.6836C20.9561 14.6836 20.9884 14.7074 21.1212 14.7019C22.2267 14.6469 23.1347 14.6065 23.9818 14.5735C24.2833 14.5625 24.5704 14.568 24.7463 14.7679C24.924 14.9678 24.9006 15.2705 24.8576 15.5877L24.7804 16.1655C24.653 17.1027 24.5238 18.071 24.4179 19.0247C24.3587 19.5621 24.0877 19.8244 23.5906 19.8244C23.5852 19.8244 23.5816 19.8244 23.5762 19.8244C22.9571 19.8189 22.3361 19.8189 21.7026 19.8207H21.1409C21.1409 19.8226 21.1409 19.8226 21.1409 19.8244C21.1302 19.9436 21.1212 20.028 21.1212 20.1087L21.123 20.8258C21.1284 23.1367 21.1337 25.5283 21.1481 27.8795C21.1499 28.3069 21.1804 28.747 21.2109 29.1725L21.2253 29.3688C21.2432 29.6347 21.184 29.8456 21.0494 29.9942C20.9202 30.1373 20.7353 30.2088 20.4967 30.2106C19.7932 30.2161 19.0879 30.2198 18.3844 30.2235C17.7617 30.2271 17.1407 30.229 16.518 30.2345C16.5162 30.2326 16.5126 30.2326 16.509 30.2326ZM16.308 29.1084C16.3098 29.2166 16.3134 29.3266 16.3152 29.4348C16.3206 29.7136 16.3762 29.7136 16.5144 29.7118C16.5934 29.7118 16.6723 29.7099 16.7513 29.7099C16.4731 29.6512 16.3314 29.4568 16.308 29.1084ZM20.7192 29.4403V29.477C20.7192 29.466 20.7192 29.4532 20.7192 29.4403ZM15.8271 19.5603C15.8701 19.5823 15.9132 19.6116 15.9509 19.6483C16.0406 19.7382 16.0855 19.8501 16.1052 19.962C16.1017 19.7969 16.0873 19.663 16.0478 19.6226C16.0191 19.5915 15.933 19.5713 15.8271 19.5603ZM12.6093 19.5456C12.647 19.553 12.7009 19.5566 12.7762 19.5548C12.8678 19.5511 12.9593 19.5493 13.0508 19.5456H12.6093ZM23.5349 19.3035C23.5565 19.3035 23.578 19.3035 23.5978 19.3035C23.8131 19.3035 23.8813 19.254 23.9118 18.9661C23.9118 18.9624 23.9118 18.9587 23.9136 18.9551C23.8472 19.1348 23.7198 19.2503 23.5349 19.3035ZM12.4514 15.3805C12.4299 15.386 12.4191 15.3915 12.4137 15.397C12.4012 15.4153 12.3778 15.4905 12.3868 15.7895C12.3958 16.1215 12.4048 16.4552 12.4155 16.7872C12.4281 17.2255 12.4424 17.6731 12.4514 18.1224V15.3805ZM15.9276 15.2264L15.7266 15.2558C15.705 15.2594 15.6817 15.2631 15.6584 15.2668C15.6261 15.2723 15.5884 15.2796 15.5489 15.2851C15.7391 15.2778 15.8881 15.2631 15.9276 15.2264C15.9258 15.2264 15.9258 15.2264 15.9276 15.2264ZM16.0442 10.6523C15.9922 11.1273 15.9706 11.6152 15.9527 12.1122C15.9294 12.7706 15.9348 13.4199 15.9401 14.1058C15.9419 14.4011 15.9455 14.6982 15.9455 14.9972V15.1897C15.976 15.087 15.9742 14.8138 15.9742 14.5515L15.9724 14.2104C15.9653 13.0421 15.9599 11.8389 16.0442 10.6523ZM22.8279 15.1512C23.0342 15.1512 23.2424 15.1512 23.4524 15.1512H24.3766C24.373 15.1292 24.3694 15.1182 24.3676 15.1127C24.3569 15.1072 24.2869 15.0815 24.0015 15.0925C23.5583 15.1091 23.0989 15.1292 22.6017 15.1512C22.6771 15.1512 22.7525 15.1512 22.8279 15.1512ZM20.4913 14.8908C20.5074 15.0797 20.5936 15.1366 20.7335 15.1494C20.6869 15.1256 20.6438 15.0962 20.6025 15.0559C20.5559 15.01 20.5182 14.955 20.4913 14.8908ZM24.3838 9.51153C24.3515 9.72979 24.1128 9.93337 23.919 9.99939C23.9549 9.99756 23.9908 9.99756 24.0267 9.99573C24.2312 9.99022 24.3102 9.95171 24.3389 9.92053C24.3766 9.88018 24.3946 9.78481 24.3892 9.64725C24.3874 9.60324 24.3856 9.55739 24.3838 9.51153ZM24.0105 6.38631C24.1595 6.47251 24.2869 6.64308 24.3407 6.80448C24.3425 6.47251 24.2312 6.39915 24.0105 6.38631Z" fill="#67AE3E"/>
<path d="M22.3331 22.625C22.3331 23.383 22.3207 24.139 22.3367 24.897C22.3545 25.6509 22.4007 26.4028 22.438 27.2238C22.1642 26.8011 22.0664 23.1777 22.3331 22.625Z" fill="#67AE3E"/>
<path d="M17.5482 6.11384C15.8064 6.29205 15.1762 7.62919 14.6038 9.02812C14.6665 7.32867 16.1809 5.83206 17.5482 6.11384Z" fill="#67AE3E"/>
<path d="M23.064 26.4181C23.064 25.5484 23.064 24.6786 23.064 23.8068C23.0889 23.8048 23.1138 23.8027 23.1387 23.8027C23.1387 24.6725 23.1387 25.5423 23.1387 26.4141C23.1138 26.4141 23.0889 26.4161 23.064 26.4181Z" fill="#67AE3E"/>
<path d="M14.5466 22.6646C14.5634 22.0115 14.5831 21.3588 14.6 20.7058C14.673 20.7029 14.7461 20.7001 14.8221 20.6976C14.8568 21.3571 14.8919 22.0137 14.9266 22.6732C14.7987 22.6721 14.6741 22.6685 14.5466 22.6646Z" fill="#67AE3E"/>
</svg>
