<svg width="76" height="75" viewBox="0 0 76 75" fill="none" xmlns="http://www.w3.org/2000/svg">
<path d="M75.9759 51.3777C75.9639 53.981 75.5847 56.8519 74.7863 60.4159C73.0266 68.2787 66.9066 73.3008 58.4154 73.8509C54.8243 74.0845 51.1907 74.2616 46.9856 74.4725C44.8771 74.5743 42.6081 74.6873 40.0991 74.8192H40.0765C39.0236 74.8342 37.9096 74.8644 36.7347 74.8983C35.0519 74.9473 33.2497 75 31.3679 75C26.7543 75 21.6528 74.6873 16.6321 73.2519C7.64629 70.6824 2.32988 64.5527 1.25307 55.5219C-0.164551 43.6203 -0.37673 33.0675 0.603271 23.2682C0.684165 22.462 0.741188 21.6369 0.794232 20.8382C0.8738 19.6627 0.957345 18.442 1.12046 17.2477C2.33253 8.33753 6.96599 3.34933 15.7091 1.54846C19.1331 0.843933 22.5691 0.406901 25.9255 0.248665C39.0342 -0.369208 50.651 0.162012 61.4416 1.8687C67.6293 2.84448 71.5254 5.87357 73.0186 10.8655C74.5583 16.0195 75.3712 20.209 75.5727 24.0481C76.0329 32.8377 76.0289 41.6236 75.9759 51.3777Z" fill="#4E9326"/>
<path d="M46.054 36.6608C49.5553 39.4921 58.4689 41.1886 56.8472 47.5281C55.2875 53.625 43.2696 51.5471 38.8533 51.5656C34.3639 51.5845 17.5566 52.5133 22.1498 44.5857C23.6185 42.0497 26.1935 40.0359 28.666 38.5505C30.0384 37.7228 31.8259 37.7693 33.0145 36.7169C35.1988 34.7824 32.2016 31.3993 30.0175 33.3329C29.897 33.4396 27.2278 34.2069 26.6257 34.5161C24.9781 35.3624 23.4954 36.5886 22.1016 37.7862C19.2438 40.2452 17.0607 43.4801 16.5095 47.2278C15.0435 57.1599 33.154 56.0808 38.5816 56.0764C46.3103 56.0708 57.371 57.786 61.1263 48.9899C64.8676 40.2246 53.2257 36.6678 48.568 32.9026C46.2983 31.0655 43.8084 34.8457 46.054 36.6608Z" fill="white"/>
<path d="M48.3042 31.1555C48.2245 32.47 47.885 33.3783 47.4396 34.0273C46.9946 34.6756 46.3631 35.183 45.5139 35.5692C43.7368 36.3776 41.1876 36.576 38.1864 36.394C35.3187 36.2201 33.0792 35.518 31.6392 34.3611C30.3069 33.2908 29.4479 31.6669 29.6086 29.0181C29.7736 26.2974 31.0413 23.4982 32.9555 21.4316C34.8733 19.3612 37.2473 18.2165 39.5614 18.3568C41.7777 18.4913 44.0396 20.0641 45.7841 22.6581C47.5116 25.2268 48.4692 28.4347 48.3042 31.1555Z" stroke="white" stroke-width="4"/>
</svg>
