<svg width="1920" height="466" viewBox="0 0 1920 466" fill="none" xmlns="http://www.w3.org/2000/svg">
<path d="M-159.541 367.525C-151.003 375.581 -145.626 373.322 -124.51 388.904C-114.05 396.611 -110.4 400.83 -107.956 404.302C-104.534 409.186 -97.9189 418.654 -100.363 429.203C-103.231 441.611 -115.614 442.326 -120.926 457.226C-123.793 465.282 -122.783 471.777 -122.033 476.844C-118.742 498.671 -117.992 531.794 -122.066 559.319C-114.734 564.784 -107.369 570.216 -99.9392 575.582C-72.4682 595.366 -44.1499 614.419 -15.082 632.791C-7.81517 637.392 -0.482897 641.944 6.8816 646.446C8.38063 647.376 9.97755 648.422 11.5742 649.452C12.3237 649.834 13.0405 650.233 13.6924 650.598C28.6824 659.369 43.7378 668.057 58.9887 676.545C78.8342 687.592 98.9732 698.339 119.275 708.904C202.633 731.662 284.59 757.575 368.795 778.522C369.74 778.755 370.718 778.971 371.663 779.203C416.047 783.722 477.474 788.722 535.088 789.137C538.314 789.153 554.64 789.253 576.767 790.449C589.02 791.114 601.207 792.908 613.46 793.29C639.628 794.12 665.632 791.197 691.702 790.765C751.597 789.768 811.492 790.117 871.388 789.884C899.315 789.768 927.242 789.835 955.17 789.386C987.105 788.871 1018.98 785.017 1050.98 788.472C1059.09 789.353 1067.33 789.918 1075.51 790.017C1083.66 790.117 1092.56 790.898 1099.82 788.738C1111.88 785.15 1123.97 785.416 1136.22 785.316C1151.83 785.2 1167.44 785.466 1183.05 785.748C1230.66 786.629 1278.24 786.712 1325.82 785.1C1346.35 784.403 1366.81 782.974 1387.34 782.476C1398.84 782.193 1410.22 782.675 1421.36 779.452C1425.7 778.207 1431.24 778.041 1435.73 778.871C1439.97 779.652 1444.24 780.25 1448.51 780.765C1453.23 780.366 1457.96 780.001 1462.68 779.602C1477.97 778.273 1493.28 776.878 1508.53 775.383C1513.62 774.884 1518.7 774.386 1523.78 773.871C1519.68 774.303 1515.57 774.735 1511.43 775.167C1519.06 774.552 1526.68 773.522 1534.28 772.675C1565.92 769.104 1597.5 765.05 1628.88 760.333C1690.27 751.13 1751.11 739.419 1810.42 724.021C1824.79 720.283 1838.9 716.064 1853.18 712.193C1853.79 712.027 1854.35 711.878 1854.84 711.745C1854.87 711.728 1854.9 711.728 1854.94 711.712C1862.36 708.971 1869.86 706.329 1877.22 703.439C1881.62 701.712 1885.93 699.851 1890.23 698.007C1904.27 676.346 1919.82 655.599 1942.17 639.303C1942.79 628.572 1945.07 617.891 1949.76 607.326C1968.05 566.263 2005.39 536.778 2030.25 498.871C2040.23 483.655 2050.26 468.605 2061.08 453.987C2066.1 442.508 2070.6 433.239 2068.41 417.94C2067.63 412.591 2067.47 416.229 2062.78 399.385C2052.67 363.056 2054.43 349.236 2038.82 332.824C2034.75 328.555 2034.56 329.402 2029.77 324.319C2021.78 315.897 2008.84 302.209 2007.87 285.249C2006.89 268.505 2017.87 253.704 2031.07 235.864C2031.39 235.415 2031.69 235.05 2031.85 234.817C2038.86 228.953 2046.87 220.166 2045.99 209.933C2045.47 203.754 2042.05 201.362 2036.54 191.428C2033.25 185.515 2031.07 179.468 2028.01 169.734C1998.55 150.315 1977.79 125.299 1957 99.8169C1955.43 98.6375 1953.87 97.375 1952.34 95.9465C1946.47 90.4813 1944.75 86.5444 1942.99 82.7903C1942.2 81.8434 1941.42 80.8966 1940.64 79.9664C1937.48 76.2122 1934.25 72.4747 1930.96 68.7703C1924.51 63.9364 1921.48 62.7736 1884.78 53.2055C1864.16 47.8234 1842.94 43.5875 1822.71 37.4247C1821.24 36.9762 1819.42 37.2918 1817.82 37.0094C1802.7 34.2519 1786.7 33.0559 1772.72 28.3051C1749.61 20.4646 1723.58 19.4845 1703.11 17.7901C1678.54 15.7636 1662.44 14.4347 1640.41 16.5277C1612.42 19.1855 1600.95 24.8832 1587.04 18.7204C1579.9 15.5642 1573.97 10.1157 1559.99 7.17549C1556.44 6.42799 1552.49 5.21535 1545.52 5.51436C1532.42 6.06251 1519.16 8.00606 1506.25 6.97615C1472.59 4.2685 1438.93 6.31171 1405.3 5.74689C1395.59 5.58081 1385.78 4.38477 1376.23 2.87317C1369.61 1.8266 1363.65 1.64386 1356.97 2.95618C1346.64 4.96612 1335.89 5.96283 1325.91 1.31164C1320.28 -1.31293 1314.97 0.713679 1309.36 1.64392C1302.26 2.8399 1294.24 4.89971 1287.79 3.45452C1272.05 -0.0504237 1257.02 1.74352 1241.74 4.10234C1229.68 5.97942 1217.89 8.1057 1205.99 2.55748C1202.41 0.896348 1196.45 1.95952 1191.65 2.34154C1161.51 4.65049 1131.47 7.79008 1101.26 9.3848C1057.17 11.6938 1013.01 12.8067 968.889 14.7003C956.701 15.2153 944.709 13.4546 932.228 15.7136C923.299 17.325 913.034 13.7702 903.356 13.6871C871.42 13.4213 839.452 13.7701 807.484 13.7535C782.099 13.7369 756.713 12.8565 731.361 13.5874C700.109 14.501 683.555 15.1821 660.451 18.1223C647.025 19.8332 633.86 22.0425 613.33 22.491C605.476 22.6572 599.61 22.4578 598.046 22.408C582.176 21.9097 532.416 21.5442 520.684 21.5276C459.192 21.4944 432.145 30.6804 400.666 25.7635C390.401 24.1521 382.645 21.6439 374.628 19.4511C338.098 19.8166 301.568 20.4146 265.038 21.1953C248.972 32.192 233.884 44.9495 213.419 44.9495C197.778 44.9495 198.397 37.491 174.999 32.1256C153.003 27.0758 131.691 28.903 115.104 32.1754C91.4781 42.3416 68.3085 53.1721 45.6931 64.7502C36.2427 73.9861 27.2487 83.8698 4.56793 94.4346C-51.3517 120.415 -86.6108 102.142 -114.245 128.488C-118.058 132.126 -124.38 152.142 -136.991 192.142C-146.669 222.857 -151.525 238.222 -155.403 257.259C-156.608 263.123 -158.596 273.721 -162.507 288.787C-167.493 308.073 -167.199 307.475 -169.806 314.751C-175.541 330.614 -174.271 353.621 -159.541 367.525Z" fill="#67AE3E"/>
</svg>
