<svg width="430" height="320" viewBox="0 0 430 712" fill="none" xmlns="http://www.w3.org/2000/svg">
<path d="M587.099 641.218C584.195 629.09 582.367 632.491 575.185 609.034C571.627 597.43 570.386 591.078 569.555 585.852C568.391 578.499 566.141 564.245 566.972 548.365C567.948 529.685 572.159 528.609 573.966 506.178C574.941 494.049 574.597 484.271 574.342 476.644C573.223 443.784 572.968 393.919 574.354 352.481C571.86 344.254 569.355 336.076 566.828 327.999C557.485 298.215 547.854 269.531 537.968 241.873C535.496 234.946 533.003 228.094 530.498 221.317C529.988 219.916 529.445 218.341 528.902 216.79C528.647 216.215 528.403 215.615 528.182 215.065C523.083 201.861 517.963 188.782 512.776 176.003C506.027 159.373 499.177 143.193 492.273 127.288C463.922 93.0277 436.048 54.016 407.41 22.4814C407.088 22.1313 406.756 21.8062 406.434 21.4561C391.339 14.6541 370.448 7.1268 350.853 6.50161C349.756 6.4766 344.203 6.32655 336.678 4.52601C332.51 3.52571 328.365 0.824891 324.198 0.249717C315.298 -1.00066 306.454 3.40067 297.588 4.05087C277.217 5.55132 256.846 5.02616 236.476 5.37627C226.978 5.55132 217.479 5.45129 207.981 6.12649C197.12 6.90173 186.281 12.7035 175.397 7.50191C172.637 6.17651 169.833 5.32625 167.052 5.17621C164.281 5.02616 161.255 3.85081 158.784 7.10179C154.683 12.5034 150.571 12.1033 146.404 12.2533C141.095 12.4284 135.786 12.0283 130.477 11.6031C114.285 10.2777 98.1039 10.1527 81.9226 12.5784C74.9403 13.6288 67.9801 15.7794 60.9978 16.5296C57.0855 16.9548 53.2175 16.2295 49.4271 21.081C47.9531 22.9566 46.0689 23.2067 44.5395 21.9563C43.0987 20.7809 41.6468 19.8806 40.1949 19.1054C38.5879 19.7056 36.9808 20.2558 35.3738 20.8559C30.1758 22.8566 24.9668 24.9572 19.7799 27.2079C18.051 27.9581 16.322 28.7083 14.5931 29.4836C15.9895 28.8334 17.386 28.1832 18.7935 27.533C16.2001 28.4582 13.6067 30.0087 11.0243 31.2841C0.262665 36.6607 -10.4768 42.7626 -21.1498 49.8647C-42.0302 63.7189 -62.7223 81.3492 -82.8934 104.531C-87.7811 110.158 -92.58 116.51 -97.4344 122.337C-97.645 122.587 -97.8334 122.812 -97.9996 123.012C-98.0107 123.037 -98.0218 123.037 -98.0329 123.062C-100.56 127.188 -103.109 131.164 -105.614 135.516C-107.11 138.116 -108.573 140.917 -110.036 143.693C-114.813 176.303 -120.099 207.537 -127.702 232.07C-127.913 248.225 -128.689 264.304 -130.285 280.209C-136.502 342.028 -149.203 386.416 -157.66 443.484C-161.051 466.391 -164.465 489.047 -168.144 511.054C-169.851 528.334 -171.381 542.289 -170.638 565.32C-170.372 573.373 -170.317 567.896 -168.721 593.254C-165.285 647.945 -165.883 668.752 -160.575 693.459C-159.189 699.886 -159.123 698.611 -157.493 706.263C-154.778 718.942 -150.378 739.548 -150.046 765.081C-149.713 790.288 -153.448 812.57 -157.937 839.428C-158.048 840.103 -158.147 840.654 -158.203 841.004C-160.586 849.831 -163.312 863.06 -163.013 878.465C-162.835 887.768 -161.672 891.369 -159.799 906.323C-158.679 915.226 -157.937 924.329 -156.895 938.983C-146.876 968.217 -139.816 1005.88 -132.745 1044.24C-132.213 1046.02 -131.681 1047.92 -131.16 1050.07C-129.165 1058.29 -128.578 1064.22 -127.979 1069.87C-127.713 1071.3 -127.447 1072.72 -127.181 1074.12C-126.106 1079.78 -125.009 1085.4 -123.89 1090.98C-121.695 1098.26 -120.664 1100.01 -108.185 1114.41C-101.169 1122.51 -93.9543 1128.89 -87.0717 1138.17C-86.573 1138.84 -85.9524 1138.37 -85.4093 1138.79C-80.2667 1142.94 -74.825 1144.75 -70.0703 1151.9C-62.2125 1163.7 -53.3571 1165.18 -46.3969 1167.73C-38.0403 1170.78 -32.5653 1172.78 -25.0732 1169.63C-15.5528 1165.63 -11.6516 1157.05 -6.91913 1166.33C-4.49194 1171.08 -2.47482 1179.28 2.2798 1183.71C3.48785 1184.83 4.8289 1186.66 7.20067 1186.21C11.6561 1185.38 16.1669 1182.46 20.5557 1184.01C32.0045 1188.08 43.4533 1185.01 54.8911 1185.86C58.1938 1186.11 61.5298 1187.91 64.7771 1190.18C67.027 1191.76 69.0552 1192.03 71.3272 1190.06C74.8405 1187.03 78.4979 1185.53 81.8894 1192.54C83.8067 1196.49 85.6133 1193.44 87.5196 1192.03C89.9357 1190.23 92.662 1187.13 94.8565 1189.31C100.21 1194.59 105.319 1191.88 110.517 1188.33C114.618 1185.51 118.63 1182.31 122.675 1190.66C123.894 1193.16 125.922 1191.56 127.552 1190.98C137.803 1187.51 148.022 1182.78 158.296 1180.38C173.291 1176.91 188.309 1175.23 203.315 1172.38C207.46 1171.6 211.539 1174.25 215.784 1170.85C218.82 1168.43 222.312 1173.78 225.603 1173.9C236.465 1174.3 247.337 1173.78 258.21 1173.8C266.843 1173.83 275.477 1175.15 284.1 1174.05C294.728 1172.68 300.358 1171.65 308.216 1167.23C312.783 1164.65 317.26 1161.33 324.242 1160.65C326.913 1160.4 328.908 1160.7 329.44 1160.78C334.838 1161.53 351.762 1162.08 355.752 1162.1C376.665 1162.15 385.864 1148.32 396.57 1155.72C400.062 1158.15 418.612 1169.08 421.338 1172.38C433.762 1171.83 432.838 1174.05 442.698 1162.6C448.162 1146.05 453.293 1126.84 460.254 1126.84C465.573 1126.84 465.363 1138.07 473.321 1146.15C480.802 1153.75 488.05 1151 493.691 1146.07C501.726 1130.77 509.607 1114.46 517.298 1097.03C520.512 1083.13 523.571 1068.25 531.285 1052.34C550.303 1013.23 562.295 1040.74 571.694 1001.08C572.99 995.6 575.141 965.466 579.43 905.248C582.721 859.009 584.373 835.877 585.692 807.219C586.102 798.391 586.778 782.436 588.108 759.754C589.803 730.72 589.704 731.621 590.59 720.667C592.541 696.785 592.109 662.15 587.099 641.218Z" fill="#67AE3E"/>
</svg>
