<svg width="551" height="482" viewBox="0 0 551 482" fill="none" xmlns="http://www.w3.org/2000/svg">
<path d="M547.691 258.749C545.593 253.854 544.276 255.227 539.078 245.766C536.504 241.08 535.605 238.521 535.01 236.41C534.168 233.441 532.542 227.688 533.142 221.285C533.848 213.743 536.89 213.317 538.195 204.258C538.902 199.356 538.651 195.416 538.462 192.343C537.654 179.079 537.469 158.963 538.471 142.241C536.672 138.919 534.858 135.621 533.031 132.364C526.282 120.344 519.315 108.765 512.176 97.6037C510.39 94.8113 508.592 92.0431 506.781 89.3069C506.412 88.7452 506.022 88.1113 505.627 87.4774C505.443 87.2447 505.262 87.004 505.11 86.7794C501.428 81.4514 497.729 76.1717 493.98 71.0122C489.099 64.2962 484.152 57.7727 479.16 51.3535C458.674 37.5282 438.533 21.7852 417.842 9.05915C417.608 8.91472 417.37 8.78634 417.136 8.64191C406.232 5.89771 391.128 2.85662 376.973 2.60788C376.181 2.59183 372.166 2.54369 366.726 1.81351C363.713 1.41231 360.724 0.321049 357.71 0.0883536C351.281 -0.417157 344.885 1.36417 338.481 1.62896C323.763 2.23075 309.037 2.03015 294.315 2.16656C287.451 2.23075 280.587 2.19866 273.723 2.47147C265.873 2.78441 258.044 5.12741 250.174 3.02513C248.179 2.49555 246.155 2.14249 244.143 2.08632C242.14 2.03015 239.956 1.54872 238.17 2.86465C235.206 5.04717 232.234 4.88669 229.228 4.94286C225.394 5.01507 221.551 4.85459 217.717 4.67807C206.017 4.14046 194.32 4.09232 182.628 5.07124C177.587 5.49651 172.549 6.3631 167.508 6.66801C164.684 6.83651 161.888 6.54765 159.149 8.5055C158.086 9.26778 156.727 9.36407 155.615 8.85053C154.572 8.37712 153.521 8.00801 152.474 7.7031C151.312 7.94382 150.15 8.16849 148.993 8.41724C145.232 9.22766 141.476 10.0782 137.723 10.9769C136.471 11.2818 135.223 11.5867 133.971 11.8996C134.981 11.6348 135.991 11.3781 137.005 11.1133C135.129 11.4904 133.261 12.1083 131.393 12.6298C123.613 14.8043 115.858 17.2677 108.14 20.1242C93.0528 25.7169 78.101 32.8262 63.5269 42.1901C60.0004 44.4529 56.5313 47.0206 53.0212 49.3716C52.8693 49.4759 52.7379 49.5642 52.6107 49.6444C52.6025 49.6524 52.5942 49.6605 52.586 49.6685C50.7591 51.3375 48.9158 52.9342 47.1095 54.6995C46.0297 55.7506 44.9706 56.882 43.9114 57.9974C40.4875 71.1406 36.6654 83.7463 31.1682 93.6398C31.0122 100.155 30.4539 106.647 29.3003 113.058C24.8049 137.996 15.6294 155.914 9.51646 178.943C7.06144 188.194 4.60231 197.342 1.94202 206.216C0.710409 213.189 -0.40215 218.814 0.143866 228.114C0.332713 231.363 0.381978 229.149 1.53149 239.387C4.01524 261.461 3.58418 269.846 7.41861 279.82C8.41621 282.412 8.46958 281.906 9.64783 284.987C11.6061 290.107 14.7878 298.412 15.03 308.722C15.2681 318.897 12.575 327.884 9.32761 338.716C9.2455 338.989 9.17982 339.213 9.13466 339.358C7.41039 342.921 5.43981 348.257 5.6574 354.475C5.78877 358.23 6.62216 359.675 7.98104 365.717C8.7898 369.311 9.32761 372.986 10.083 378.892C17.3249 390.687 22.4197 405.885 27.535 421.363C27.9209 422.077 28.3068 422.847 28.6804 423.714C30.1214 427.036 30.5483 429.427 30.9794 431.706C31.1724 432.276 31.3653 432.853 31.5583 433.423C32.3383 435.71 33.1306 437.973 33.9353 440.227C35.5241 443.164 36.2671 443.87 45.2826 449.688C50.3527 452.961 55.5624 455.529 60.5382 459.268C60.8994 459.541 61.3469 459.348 61.7369 459.525C65.4523 461.194 69.3853 461.924 72.8256 464.821C78.4992 469.587 84.9036 470.181 89.9327 471.208C95.9717 472.436 99.9252 473.246 105.34 471.97C112.217 470.357 115.033 466.891 118.457 470.638C120.21 472.556 121.667 475.862 125.104 477.651C125.978 478.108 126.943 478.839 128.659 478.662C131.877 478.333 135.141 477.146 138.306 477.779C146.583 479.424 154.851 478.181 163.115 478.534C165.505 478.638 167.91 479.36 170.259 480.283C171.88 480.917 173.35 481.029 174.992 480.235C177.529 479.015 180.173 478.405 182.624 481.23C184.012 482.827 185.313 481.599 186.693 481.021C188.437 480.299 190.408 479.047 191.997 479.922C195.868 482.056 199.555 480.965 203.311 479.529C206.275 478.389 209.174 477.105 212.101 480.467C212.979 481.479 214.449 480.829 215.627 480.604C223.033 479.2 230.419 477.29 237.841 476.327C248.676 474.923 259.534 474.249 270.377 473.093C273.369 472.773 276.321 473.848 279.388 472.476C281.58 471.497 284.101 473.655 286.482 473.703C294.336 473.864 302.189 473.647 310.039 473.663C316.275 473.671 322.519 474.209 328.747 473.759C336.428 473.206 340.492 472.789 346.174 470.999C349.471 469.964 352.71 468.624 357.752 468.351C359.685 468.247 361.122 468.375 361.508 468.399C365.412 468.704 377.642 468.921 380.52 468.929C395.636 468.953 402.279 463.376 410.021 466.361C412.546 467.332 414.451 468.865 416.417 470.197C425.396 469.972 434.37 469.611 443.349 469.138C447.298 462.454 451.005 454.711 456.034 454.703C459.881 454.703 459.725 459.228 465.481 462.486C470.888 465.551 476.126 464.444 480.199 462.454C486.008 456.275 491.698 449.696 497.257 442.667C499.58 437.05 501.785 431.048 507.368 424.637C521.109 408.854 529.779 419.959 536.574 403.943C537.514 401.728 539.066 389.58 542.165 365.275C544.546 346.62 545.737 337.288 546.694 325.725C546.985 322.163 547.482 315.727 548.443 306.572C549.67 294.857 549.596 295.226 550.237 290.797C551.628 281.16 551.312 267.19 547.691 258.749Z" fill="#65AC45"/>
</svg>
