<svg width="47" height="43" viewBox="0 0 47 43" fill="none" xmlns="http://www.w3.org/2000/svg">
<path d="M46.1215 17.8127C46.0678 17.4241 46.0135 17.0382 45.9653 16.638C45.9116 16.3163 45.9116 16.0161 45.9116 15.6994C45.9116 15.364 45.9116 15.0181 45.8462 14.6317C45.3897 11.9179 44.408 9.6459 42.5583 7.02751C41.2027 5.19634 39.6095 4.22307 37.6584 3.13457C35.4004 1.95713 33.7091 1.22653 31.2461 0.737365C30.6833 0.613856 30.1033 0.583112 29.5426 0.553475C28.9981 0.524383 28.4834 0.496937 28.0081 0.38056C27.3207 0.266384 26.744 0.153304 26.1706 0.0391281L26.0759 0.0210137L25.867 0.0226605C25.5668 -0.00643228 25.2222 -0.00807919 25.0832 0.0210137C22.4862 0.0210137 19.8211 0.708261 16.7021 2.17933C15.7575 2.59486 14.5925 3.06529 13.5499 3.45502C13.5355 3.45886 12.4359 3.77669 11.9971 4.2065C11.7722 4.28829 11.5423 4.36295 11.3102 4.43924C10.5612 4.68461 9.78681 4.93821 9.1275 5.40479C3.94621 9.04086 0.839991 15.0993 0.148207 22.9197C-0.0994198 25.3795 0.767552 27.466 1.6041 29.4794C1.84896 30.0854 2.09492 30.5723 2.31098 30.9929C2.40571 31.2723 2.61455 31.6549 2.73587 31.8645C2.73532 31.8772 2.73532 31.8898 2.73532 31.9024C2.73532 32.2274 3.01508 32.5743 3.10149 32.6577C3.46435 33.0771 3.82665 33.4658 4.18895 33.8549C4.54183 34.2326 4.89416 34.6113 5.26643 35.0406C7.49338 37.2478 10.1934 38.725 12.8049 40.1533L13.9261 40.7697C16.4832 42.2288 19.6609 43 23.1137 43C24.5839 43 26.073 42.8606 27.5438 42.585C28.5149 42.3929 29.3958 41.9828 30.2477 41.5871C30.487 41.4751 30.7252 41.3653 30.898 41.2824C31.1213 41.2275 31.3445 41.1776 31.5661 41.1298C32.2957 40.9701 33.0502 40.8054 33.7727 40.3943C34.6917 39.7443 36.1409 38.5576 36.6189 38.1623L38.7728 37.0914C40.0204 36.2252 40.8885 34.9973 41.7449 33.7841C42.2535 32.9454 42.5853 32.1653 42.9359 31.3414C43.0911 30.978 43.2506 30.6025 43.4273 30.2166C44.6045 27.8832 45.7164 25.6798 46.1983 22.9302C46.6005 21.2373 46.3567 19.4961 46.1213 17.8131L46.1215 17.8127ZM7.90748 32.8896C3.69509 28.8858 3.86186 22.0488 4.74482 17.016C4.96309 15.9324 5.65832 14.0611 6.25942 13.2195C6.36689 13.006 6.94968 12.0833 7.25769 11.6683L7.97176 10.9607L8.04655 10.8586C8.1086 10.7368 8.31911 10.4996 8.44818 10.3706L9.80486 9.02632C9.90513 8.98296 9.99376 8.90995 10.0503 8.81004C10.1733 8.72715 10.294 8.64481 10.4131 8.56303C10.9256 8.21226 11.4081 7.88016 12.0817 7.58814C12.213 7.50141 12.4751 7.379 12.7066 7.27086C13.0551 7.10894 13.2872 7.00024 13.4212 6.87838C14.1819 6.588 14.9435 6.32616 15.6997 6.06653C17.0109 5.61587 18.3671 5.14818 19.6379 4.55533L19.9443 4.42853C20.6307 4.14419 21.0107 3.98775 21.47 3.84173L21.4772 3.86753L22.9685 3.53928C24.2355 3.37624 25.5306 3.5552 27.048 3.79672L27.5555 3.87521C27.9986 3.9098 28.4324 3.92407 28.859 3.93889C29.9071 3.97457 30.897 4.00805 31.8537 4.32369C32.7766 4.66731 34.5438 5.7174 35.1466 6.07532C38.1325 7.61448 40.0608 9.63129 41.3976 12.6103C41.8696 13.7004 41.9604 14.9969 42.0491 16.2512C42.0878 16.8101 42.1294 17.387 42.1997 17.9096C42.2285 18.3591 42.2695 18.7955 42.3111 19.2237C42.4379 20.5537 42.5587 21.8102 42.2103 23.1057C41.6352 25.4963 40.6126 27.7974 39.1589 29.9591C38.1263 31.6635 36.9596 33.4183 35.4667 34.6738C34.9449 35.0185 34.217 35.3665 33.5732 35.6739C33.3704 35.7705 33.1788 35.8622 32.9743 35.9659C32.6264 36.1817 32.309 36.4122 31.9999 36.6373C31.4891 37.0094 31.0066 37.3613 30.4582 37.5721C30.3518 37.599 30.1447 37.683 29.5059 37.9492C28.9137 38.1962 27.6812 38.7116 27.4667 38.7402C21.6095 38.7402 16.9877 37.9404 13.3359 36.2969C13.111 36.1953 12.8867 36.0976 12.6623 36.0005C11.5942 35.5355 10.585 35.0969 9.72683 34.3416C9.53128 34.1873 9.28531 33.9809 9.03824 33.7751C8.3574 33.2042 8.0782 32.9786 7.90757 32.8902L7.90748 32.8896Z" fill="#FBB04C"/>
<path d="M21.5653 26.1087C21.8136 26.2354 22.0455 26.3541 22.2471 26.4671C22.3138 26.5048 22.4612 26.5698 22.6479 26.6498C22.9209 26.7685 23.8023 27.069 23.8023 27.23V27.3256L25.7944 28.5869C25.8424 28.61 25.9073 28.638 25.9792 28.6691C26.0641 28.7069 26.2167 28.7732 26.3128 28.8234L26.4467 28.9399C26.6353 29.0741 26.8308 29.2458 27.0361 29.4254C27.6637 29.974 28.3753 30.5964 29.2516 30.5964C29.324 30.5964 29.3968 30.592 29.4705 30.5831C30.7617 30.4248 31.6058 28.766 31.5228 27.7684C31.443 26.8143 30.603 26.1528 29.9274 25.6211L29.7296 25.4641C29.1356 24.9893 28.4738 24.5985 27.8346 24.2201C27.4749 24.0072 27.1146 23.7942 26.767 23.5675C26.4693 23.3732 26.102 23.2011 25.7129 23.0188C25.0713 22.7174 24.3443 22.3768 24.0354 21.9469C23.8982 21.7557 23.8426 21.5041 23.7838 21.2369C23.747 21.0693 23.7087 20.9021 23.6541 20.7416C23.6476 20.0312 23.6322 19.3189 23.6173 18.6053C23.5776 16.7794 23.5375 14.8903 23.6523 13.0608C23.6663 12.8407 23.6943 12.6326 23.7218 12.4348C23.8356 11.6038 23.9532 10.7444 22.6947 10.203C22.2869 10.0278 21.6975 9.92334 21.1198 9.92334C20.635 9.92334 19.7437 9.99981 19.2258 10.5111C18.4158 11.3109 18.4648 12.9994 18.5007 14.2318C18.5072 14.4653 18.5142 14.6773 18.5128 14.8556C18.5096 15.2984 18.4746 15.7479 18.4414 16.1827C18.4046 16.6548 18.3663 17.143 18.3672 17.6383C18.3677 18.3043 18.3504 18.9801 18.3322 19.658C18.3033 20.766 18.2739 21.9113 18.3271 23.0093C18.3966 24.4871 20.2285 25.425 21.5653 26.1087Z" fill="#FBB04C"/>
</svg>
