<svg width="37" height="37" viewBox="0 0 37 37" fill="none" xmlns="http://www.w3.org/2000/svg">
<path d="M36.5864 7.15768C36.0329 3.85586 35.5982 1.0702 31.7906 0.511044C29.2516 0.138381 26.6778 0.286178 24.1435 0.010738C20.6569 -0.0414263 17.1368 0.113878 13.6098 0.105187C10.7707 0.0984689 6.16009 -0.367459 4.07983 2.00087C2.02878 4.33482 1.42113 8.58074 1.59568 11.5194C1.84915 15.7894 1.33352 20.1609 1.0619 24.4233C0.803301 28.4819 1.13494 33.2111 5.18655 35.3363C8.74731 37.2036 12.4368 36.3373 16.2165 36.7697C20.4711 37.2562 24.5992 36.8293 28.8546 36.2599C29.8988 36.12 30.9644 35.9742 31.9104 35.5098C36.6237 33.1956 35.8143 26.901 36.0769 22.6332C36.388 17.5787 37.4299 12.1926 36.587 7.1585L36.5864 7.15768Z" fill="white"/>
<path d="M27.3398 19.4036C27.3398 23.7682 23.5546 26.5655 19.19 26.5655C14.8254 26.5655 11.2872 23.0273 11.2872 18.6627C11.2872 14.298 14.8254 9.77197 19.19 9.77197C23.5546 9.77197 27.3398 15.0389 27.3398 19.4036Z" fill="#67AE3E"/>
<path d="M30.0563 7.52098C30.0563 8.2912 29.3575 8.78485 28.5518 8.78485C27.746 8.78485 27.0928 8.16046 27.0928 7.39023C27.0928 6.62001 27.746 5.82129 28.5518 5.82129C29.3575 5.82129 30.0563 6.75075 30.0563 7.52098Z" fill="#67AE3E"/>
<path d="M21.8186 28.2963C24.2457 27.5693 26.5164 26.6029 27.8503 24.0966C28.2152 25.7621 23.7016 28.8372 21.8186 28.2963Z" fill="#67AE3E"/>
<path d="M26.8021 27.426C27.5276 26.571 28.2744 25.6914 28.9862 24.8543C29.1748 25.7119 27.6728 27.5146 26.8021 27.426Z" fill="#67AE3E"/>
<path d="M7.94029 3.38185C6.91613 4.23995 5.86826 5.11707 4.8678 5.95441C4.7967 4.88525 6.96183 3.09985 7.94029 3.38185Z" fill="#67AE3E"/>
</svg>
