<svg width="38" height="39" viewBox="0 0 38 39" fill="none" xmlns="http://www.w3.org/2000/svg">
<path d="M36.5843 7.74568C36.0376 4.40327 35.6083 1.58336 31.848 1.01733C29.3404 0.640083 26.7985 0.789697 24.2956 0.51087C20.8523 0.458064 17.3758 0.615279 13.8925 0.60648C11.0886 0.59968 6.53511 0.128023 4.48063 2.52547C2.455 4.88812 1.85489 9.18624 2.02728 12.161C2.2776 16.4835 1.76836 20.9088 1.50011 25.2236C1.24471 29.3321 1.57225 34.1194 5.57363 36.2708C9.09026 38.161 12.7341 37.2841 16.4669 37.7218C20.6687 38.2142 24.7457 37.7822 28.9483 37.2057C29.9796 37.0641 31.032 36.9165 31.9662 36.4464C36.6211 34.1037 35.8217 27.7318 36.0811 23.4114C36.3883 18.2948 37.4173 12.8425 36.5848 7.74651L36.5843 7.74568Z" fill="white"/>
<g clip-path="url(#clip0_84_203)">
<path d="M13.5114 16.3807C13.8042 16.7779 14.0908 17.1955 14.1186 17.2545C14.3787 18.4326 14.8374 19.2739 15.3233 20.1648C15.5908 20.6562 15.8678 21.164 16.1104 21.7366C16.3672 22.3508 16.9674 23.3557 17.2238 23.7857C17.2856 23.8891 17.3274 23.9585 17.339 23.98C17.4225 24.1483 17.5745 24.3603 17.7091 24.5475C17.779 24.6451 17.8715 24.7736 17.9077 24.836C17.898 25.0201 17.9951 25.2201 18.1801 25.3928C18.3749 25.5746 18.667 25.7255 18.9494 25.7255C19.0235 25.7255 19.0969 25.7148 19.1677 25.692C19.3314 25.641 19.4515 25.4646 19.5314 25.3448C19.6727 25.2871 19.7077 25.101 19.7258 25.004C19.7313 24.9742 19.7355 24.946 19.731 24.946C21.4404 22.4716 22.4852 20.4918 23.02 18.7157C23.1342 18.3316 23.25 17.9495 23.3658 17.5675C23.4823 17.1851 23.5987 16.8024 23.7123 16.4176C23.7948 16.1429 23.8769 15.6854 23.9316 15.3828C23.9526 15.2684 23.9669 15.1835 23.9714 15.1644C24.1429 14.6499 24.2839 13.6006 24.2803 13.5318L24.2978 13.4409C24.5822 11.7265 24.8756 9.95417 23.7634 8.13741C23.2937 7.37028 22.7389 6.89401 21.8476 6.49342C21.5461 6.35489 20.9955 6.24922 20.6992 6.19254C20.6251 6.17812 20.5711 6.16839 20.5601 6.16604C20.3903 6.10533 20.1641 6.05871 19.9364 6.02315L19.9383 5.99463L19.9138 5.99329C19.5925 5.96881 19.2613 5.91983 18.9115 5.86818C18.0333 5.73837 17.1252 5.60554 16.2828 5.85007C15.8807 5.96747 15.365 6.4042 14.7064 7.18638L14.6614 7.23938C12.6625 9.31203 12.7971 11.7583 12.9394 14.3475C12.9757 14.9975 13.1439 15.873 13.5114 16.3805L13.5114 16.3807ZM17.7968 12.1201C17.996 11.6719 18.4011 11.3895 18.9669 11.304C19.5634 11.2164 20.1991 11.5103 20.5139 12.0208C20.8361 12.5431 20.8079 13.2663 20.4466 13.7412C20.3127 13.9176 20.1276 14.0729 19.8982 14.2028C18.7337 14.8656 18.107 14.036 17.9421 13.7667C17.6347 13.2609 17.5772 12.6138 17.7968 12.12L17.7968 12.1201Z" fill="#67AE3E"/>
<path d="M28.612 26.7411C28.0698 25.8221 26.8011 25.1019 24.9423 24.6561L24.6019 24.5716C24.2264 24.4773 23.7942 24.3734 23.3494 24.2969C23.2937 24.5756 23.209 24.8527 23.0799 25.1207C23.0113 25.2629 22.9427 25.4055 22.8738 25.5477C22.8318 25.6353 22.7826 25.7174 22.7302 25.7969C25.2729 26.2072 26.6982 27.149 26.7183 27.5314C26.7506 28.1412 25.8998 29.3122 23.4778 29.8603C22.4176 30.1002 20.7523 30.3252 19.5172 30.395C19.1319 30.4175 18.6832 30.403 18.2186 30.3859C17.8388 30.3715 17.6826 30.3638 17.6496 30.3638C17.6425 30.3638 17.6412 30.3638 17.6444 30.3648C17.2821 30.2984 16.7007 30.2682 16.1483 30.2437L16.0651 30.24C13.5011 29.334 12.3504 28.2295 12.3669 27.5817C12.3731 27.3453 12.527 27.1316 12.8224 26.9488L13.0097 26.831C13.1566 26.7378 13.3083 26.6402 13.4759 26.5563C13.7457 26.4235 13.8793 26.3554 13.9563 26.3047C14.0161 26.2846 14.1694 26.239 14.5201 26.1618L14.5809 26.1474C14.9691 26.0445 15.4065 25.9619 15.8678 25.8932C15.7297 25.6503 15.5695 25.4219 15.4401 25.1743C15.4217 25.1391 15.411 25.1059 15.3939 25.0714C15.3628 25.0167 15.3285 24.9637 15.2988 24.9073C15.2166 24.75 15.1551 24.5877 15.1021 24.4236C14.9361 24.4478 14.7 24.4904 14.4923 24.528C14.3904 24.5467 14.2752 24.5675 14.2817 24.5689C13.7049 24.6014 13.1423 24.7544 12.8059 24.8872C12.6933 24.9328 12.5623 25.0083 12.4549 25.0737L12.4174 25.0962C10.862 25.6714 9.99503 26.4661 9.84108 27.4593C9.69357 28.4099 10.2218 29.3736 11.412 30.3242C11.993 30.7875 12.9108 31.0488 13.9221 31.3369L14.9544 31.6307C15.0301 31.6515 15.1727 31.6951 15.2151 31.7102C15.831 31.9346 17.0632 31.9819 17.9878 31.9819C18.7988 31.9819 19.6499 31.9444 20.1549 31.8863C20.4331 31.8545 20.7184 31.824 21.0096 31.7931C22.0933 31.6774 23.2149 31.5566 24.186 31.353C26.6019 30.8465 28.5166 29.5478 28.843 28.1925C28.9627 27.7005 28.8825 27.199 28.612 26.7412L28.612 26.7411Z" fill="#67AE3E"/>
</g>
<defs>
<clipPath id="clip0_84_203">
<rect width="20" height="27.5" fill="white" transform="translate(9.23975 5.5)"/>
</clipPath>
</defs>
</svg>
