<svg width="141" height="108" viewBox="0 0 141 108" fill="none" xmlns="http://www.w3.org/2000/svg">
<path d="M45.8471 66.0513H44.0865C43.7119 66.0513 43.3748 66.3506 43.3748 66.7622V81.6166L31.4623 66.3506C31.3125 66.1635 31.1252 66.0513 30.9004 66.0513H26.6675C26.2928 66.0513 25.9557 66.3506 25.9557 66.7622V90.7467C25.9557 91.1208 26.2553 91.458 26.6675 91.458H28.2408C28.6154 91.458 28.9526 91.1585 28.9526 90.7467V72.038L44.0865 91.1585C44.2363 91.3456 44.4236 91.4202 44.6484 91.4202H45.9969C46.2967 91.4202 46.5588 91.1955 46.5588 90.8969V66.7622C46.5588 66.3506 46.2217 66.0513 45.8471 66.0513Z" fill="white"/>
<path d="M12.2078 66.6127C12.1704 66.463 12.0206 66.3882 11.8707 66.3882H10.7095C10.5596 66.3882 10.4097 66.463 10.3348 66.6127L0.0332713 90.5973C-0.0791095 90.8221 0.108192 91.0837 0.370414 91.0837H2.43073C2.58057 91.0837 2.73042 91.0091 2.76787 90.859L5.42755 84.2735H14.6803C15.8415 87.0051 16.9279 89.5497 17.4898 90.859C17.5272 91.0091 17.6771 91.0837 17.8269 91.0837H22.4719C22.7342 91.0837 22.9215 90.8221 22.8466 90.5596L12.2078 66.6127ZM6.47644 81.7297L9.92281 73.1982C9.92281 73.1982 11.7209 77.3516 13.5939 81.7297H6.47644Z" fill="white"/>
<path d="M111.253 66.6127C111.215 66.463 111.066 66.3882 110.916 66.3882H109.754C109.605 66.3882 109.455 66.463 109.38 66.6127L99.078 90.5973C98.9656 90.8221 99.1534 91.0837 99.4151 91.0837H101.476C101.626 91.0837 101.775 91.0091 101.813 90.859L104.472 84.2735H113.725C114.887 87.0051 115.973 89.5497 116.535 90.859C116.572 91.0091 116.722 91.0837 116.872 91.0837H121.479C121.742 91.0837 121.929 90.8221 121.854 90.5596L111.253 66.6127ZM105.521 81.7297L108.967 73.1982C108.967 73.1982 110.766 77.3516 112.639 81.7297H105.521Z" fill="white"/>
<path d="M95.257 66.0513H93.4966C93.1218 66.0513 92.7846 66.3506 92.7846 66.7622V81.6166L80.8723 66.3506C80.723 66.1635 80.5351 66.0513 80.3104 66.0513H76.0776C75.7029 66.0513 75.3658 66.3506 75.3658 66.7622V90.7467C75.3658 91.1208 75.6654 91.458 76.0776 91.458H77.6509C78.0254 91.458 78.3626 91.1585 78.3626 90.7467V72.038L93.4966 91.1585C93.6467 91.3456 93.8338 91.4202 94.0585 91.4202H95.4071C95.7065 91.4202 95.969 91.1955 95.969 90.8969V66.7622C95.969 66.3506 95.6696 66.0513 95.257 66.0513Z" fill="white"/>
<path d="M61.618 66.6127C61.5806 66.463 61.4307 66.3882 61.2808 66.3882H60.1195C59.9697 66.3882 59.8199 66.463 59.745 66.6127L49.4434 90.5973C49.331 90.8221 49.5183 91.0837 49.7805 91.0837H51.8408C51.9907 91.0837 52.1405 91.0091 52.178 90.859L54.8376 84.2735H64.0903C65.2516 87.0051 66.3379 89.5497 66.8999 90.859C66.9373 91.0091 67.0872 91.0837 67.237 91.0837H71.9196C72.1818 91.0837 72.3691 90.8221 72.2942 90.5596L61.618 66.6127ZM55.924 81.7297L59.3704 73.1982C59.3704 73.1982 61.1684 77.3516 63.0415 81.7297H55.924Z" fill="white"/>
<path d="M140.397 81.4678C140.397 81.43 140.359 81.3923 140.322 81.3176C139.797 80.3078 139.011 79.447 138.074 78.8482C137.662 78.5863 137.175 78.287 136.501 77.9128C135.789 77.5013 135.152 77.1645 134.516 76.8277L133.279 76.1916C132.755 75.9297 132.306 75.6678 131.856 75.4433C131.407 75.1813 131.106 74.9568 130.845 74.6949C129.571 73.6099 128.559 71.7764 129.159 70.2048C129.159 70.13 129.496 68.7081 132.23 68.7081H139.348C139.723 68.7081 140.06 68.4088 140.06 68.0346V66.7624C140.06 66.3882 139.76 66.0889 139.348 66.0889H131.369C131.182 66.0889 130.994 66.0889 130.732 66.1264C130.47 66.1264 130.245 66.1638 129.983 66.2012H129.87C129.533 66.2386 129.159 66.3508 128.784 66.4631C128.297 66.6127 127.81 66.7624 127.398 66.987C127.061 67.1366 126.761 67.3237 126.499 67.5107C125.188 68.4088 124.289 69.5687 123.802 70.9532C123.652 71.4022 123.54 71.926 123.465 72.4499C123.428 72.7118 123.428 72.9737 123.428 73.3105V73.4227C123.428 73.4976 123.428 73.535 123.428 73.6098V73.7221C123.502 74.9568 123.952 76.1916 124.738 77.2019C125.563 78.287 126.611 78.9231 127.923 79.6714C128.634 80.0831 129.271 80.4202 129.908 80.7565L131.144 81.3923C131.668 81.6548 132.118 81.9165 132.567 82.1412C132.98 82.4029 133.317 82.6277 133.579 82.8516C134.853 83.9746 135.864 85.7703 135.265 87.342C135.265 87.4167 134.927 88.8391 132.193 88.8391H125.638C125.263 88.8391 124.925 89.1377 124.925 89.5126V90.7841C124.925 91.159 125.226 91.4576 125.638 91.4576H133.055C133.242 91.4576 133.429 91.4576 133.691 91.4207C133.954 91.4207 134.178 91.3829 134.441 91.346H134.553C134.89 91.3083 135.228 91.2336 135.565 91.1212C136.089 90.9719 136.576 90.7841 137.026 90.5602C137.363 90.41 137.662 90.223 137.925 90.0737C139.835 88.7637 140.996 86.6308 140.996 84.3487C141.034 83.3012 140.809 82.3652 140.397 81.4678Z" fill="white"/>
<path d="M70.159 53.7788L58.2092 41.8427C58.0219 41.6555 58.0219 41.3188 58.2092 41.1317L70.159 29.1955C70.3463 29.0084 70.6834 29.0084 70.8708 29.1955L82.8205 41.1317C83.0083 41.3188 83.0083 41.6555 82.8205 41.8427L70.8708 53.7788C70.6834 53.9659 70.3463 53.9659 70.159 53.7788Z" fill="white"/>
<path d="M84.6185 39.3731L72.6687 27.4369C72.4814 27.2498 72.4814 26.913 72.6687 26.7259L84.6185 14.7897C84.8056 14.6026 85.1427 14.6026 85.3306 14.7897L97.2798 26.7259C97.4677 26.913 97.4677 27.2498 97.2798 27.4369L85.3306 39.3731C85.1058 39.5601 84.8056 39.5601 84.6185 39.3731Z" fill="white"/>
<path d="M55.7368 39.3731L43.7869 27.4369C43.5997 27.2498 43.5997 26.913 43.7869 26.7259L55.7368 14.7897C55.924 14.6026 56.2612 14.6026 56.4485 14.7897L68.3984 26.7259C68.5856 26.913 68.5856 27.2498 68.3984 27.4369L56.4485 39.3731C56.2238 39.5601 55.924 39.5601 55.7368 39.3731Z" fill="white"/>
<path d="M59.6454 10.8364L57.8442 12.6356L66.8766 21.6577L68.6778 19.8586L59.6454 10.8364Z" fill="white"/>
<path d="M63.2871 7.22559L61.486 9.02474L70.5184 18.0469L72.3196 16.2478L63.2871 7.22559Z" fill="white"/>
<path d="M81.3564 10.8311L68.6952 23.478L70.4964 25.2771L83.1577 12.6302L81.3564 10.8311Z" fill="white"/>
<path d="M77.7349 7.21777L72.3049 12.6416L74.1061 14.4408L79.5361 9.01695L77.7349 7.21777Z" fill="white"/>
<path d="M74.1137 3.59619L68.6836 9.02006L70.4848 10.8192L75.9149 5.39533L74.1137 3.59619Z" fill="white"/>
<path d="M70.5188 0L65.0887 5.42388L66.89 7.22301L72.32 1.79914L70.5188 0Z" fill="white"/>
<path d="M47.9449 99.0171H46.971V107.623H47.9449V99.0171Z" fill="white"/>
<path d="M57.2726 103.844L53.9386 99.0917L53.9012 99.0171H52.8148V107.623H53.7888V100.476L57.0853 105.265L57.1228 105.303H57.385L60.719 100.476V107.623H61.7304V99.0171H60.6066L57.2726 103.844Z" fill="white"/>
<path d="M69.9716 99.0171H66.6002V107.623H67.5742V104.405H69.9716C71.7322 104.405 73.0808 103.245 73.0808 101.711C73.0808 100.177 71.7322 99.0171 69.9716 99.0171ZM69.9716 103.582H67.5742V99.8407H69.9716C71.2078 99.8407 72.1069 100.626 72.1069 101.711C72.0694 102.796 71.2078 103.582 69.9716 103.582Z" fill="white"/>
<path d="M78.3255 103.695H82.7081V102.871H78.3255V99.8407H83.0453V99.0171H77.3514V107.623H83.1199V106.763H78.3255V103.695Z" fill="white"/>
<path d="M90.7995 103.208L93.8715 99.0171H92.7477L90.2376 102.422L87.6906 99.0171H86.5291L89.638 103.208L86.379 107.623H87.5405L90.2376 103.994L92.8601 107.548L92.897 107.623H94.0586L90.7995 103.208Z" fill="white"/>
</svg>
