<svg width="1315" height="295" viewBox="0 0 1315 295" fill="none" xmlns="http://www.w3.org/2000/svg">
<g clip-path="url(#clip0_436_2)">
<path d="M1307.11 158.363C1302.11 155.367 1298.96 156.207 1286.56 150.417C1280.42 147.549 1278.27 145.982 1276.85 144.691C1274.85 142.874 1270.96 139.352 1272.39 135.434C1274.07 130.817 1281.34 130.557 1284.45 125.013C1286.14 122.012 1285.54 119.601 1285.09 117.72C1283.16 109.602 1282.72 97.2903 1285.11 87.0559C1280.82 85.0228 1276.49 83.0044 1272.12 81.0106C1256.01 73.654 1239.39 66.5675 1222.35 59.7364C1218.09 58.0274 1213.79 56.3331 1209.48 54.6585C1208.6 54.3147 1207.67 53.9267 1206.72 53.5388C1206.28 53.3964 1205.85 53.249 1205.48 53.1115C1196.69 49.8507 1187.86 46.6193 1178.92 43.4615C1167.27 39.3511 1155.46 35.3585 1143.54 31.4297C1094.65 22.9682 1046.58 13.3329 997.2 5.54418C996.64 5.45578 996.08 5.37721 995.52 5.28881C969.499 3.60927 933.448 1.74802 899.667 1.59579C897.777 1.58596 888.197 1.5565 875.217 1.1096C868.026 0.864056 860.886 0.196168 853.706 0.0537512C838.365 -0.255638 823.095 0.83459 807.805 0.996651C772.684 1.36497 737.542 1.2422 702.401 1.32568C686.021 1.36497 669.64 1.34533 653.26 1.5123C634.529 1.70383 615.849 3.13782 597.068 1.85115C592.308 1.52703 587.478 1.31095 582.678 1.27657C577.898 1.2422 572.677 0.947542 568.427 1.75294C561.357 3.08871 554.257 2.99049 547.087 3.02487C537.926 3.06907 528.766 2.97085 519.616 2.86281C491.695 2.53377 463.784 2.50431 435.873 3.10344C423.833 3.36372 411.823 3.8941 399.782 4.08072C393.042 4.18385 386.372 4.00706 379.832 5.20532C377.291 5.67186 374.051 5.73079 371.391 5.41649C368.901 5.12675 366.401 4.90085 363.891 4.71423C361.121 4.86156 358.351 4.99906 355.581 5.1513C346.611 5.64731 337.64 6.16787 328.68 6.71789C325.7 6.90451 322.71 7.09112 319.73 7.28265C322.14 7.12059 324.55 6.96344 326.97 6.80138C322.49 7.03219 318.03 7.41034 313.58 7.72955C295.019 9.06041 276.508 10.5681 258.088 12.3164C222.077 15.7393 186.396 20.0904 151.615 25.8214C143.194 27.2063 134.914 28.7778 126.544 30.2167C126.184 30.2806 125.864 30.3346 125.564 30.3837C125.544 30.3886 125.524 30.3935 125.504 30.3984C121.144 31.4199 116.744 32.3972 112.433 33.4776C109.853 34.1209 107.333 34.8134 104.793 35.496C96.6229 43.5401 87.4927 51.2552 74.3723 57.3104C74.0023 61.298 72.6722 65.271 69.9121 69.1948C59.1918 84.4678 37.2911 95.434 22.7107 109.523C16.8505 115.181 10.9803 120.779 4.63014 126.211C1.69005 130.478 -0.960031 133.921 0.330009 139.613C0.780022 141.602 0.890026 140.246 3.64011 146.513C9.56029 160.023 8.54026 165.155 17.6905 171.259C20.0706 172.845 20.1906 172.536 23.0107 174.421C27.6908 177.555 35.2811 182.637 35.8511 188.948C36.4211 195.175 29.9909 200.675 22.2407 207.305C22.0507 207.472 21.8807 207.61 21.7807 207.698C17.6705 209.878 12.9704 213.144 13.4804 216.95C13.7904 219.249 15.7905 220.132 19.0306 223.83C20.9606 226.031 22.2407 228.28 24.0407 231.894C41.3313 239.113 53.4916 248.415 65.692 257.888C66.612 258.325 67.5321 258.796 68.4321 259.327C71.8722 261.36 72.8822 262.823 73.9222 264.218C74.3823 264.567 74.8423 264.92 75.3023 265.269C77.1623 266.669 79.0624 268.053 80.9825 269.433C84.7726 271.231 86.5526 271.663 108.063 275.223C120.164 277.227 132.594 278.799 144.474 281.087C145.334 281.254 146.404 281.136 147.334 281.244C156.205 282.266 165.585 282.713 173.795 284.485C187.336 287.402 202.616 287.766 214.627 288.395C229.047 289.146 238.477 289.642 251.398 288.861C267.808 287.874 274.538 285.752 282.709 288.046C286.899 289.22 290.369 291.243 298.569 292.338C300.659 292.618 302.959 293.065 307.059 292.957C314.74 292.755 322.53 292.029 330.08 292.417C349.831 293.423 369.561 292.662 389.292 292.878C394.992 292.942 400.742 293.384 406.342 293.949C410.212 294.337 413.723 294.406 417.643 293.919C423.703 293.173 430.003 292.8 435.853 294.528C439.163 295.506 442.273 294.754 445.564 294.401C449.734 293.959 454.434 293.193 458.224 293.728C467.464 295.034 476.264 294.366 485.225 293.487C492.295 292.79 499.215 292.004 506.195 294.062C508.285 294.681 511.796 294.283 514.616 294.145C532.286 293.286 549.917 292.117 567.627 291.528C593.478 290.668 619.399 290.256 645.27 289.549C652.41 289.352 659.45 290.01 666.78 289.17C672.01 288.571 678.031 289.892 683.711 289.922C702.451 290.02 721.192 289.887 739.932 289.897C754.813 289.902 769.723 290.231 784.574 289.956C802.904 289.617 812.605 289.362 826.165 288.267C834.035 287.633 841.766 286.813 853.796 286.646C858.406 286.582 861.836 286.661 862.766 286.676C872.076 286.862 901.267 286.995 908.148 287C944.219 287.015 960.069 283.601 978.55 285.428C984.58 286.023 989.13 286.961 993.81 287.776C1015.24 287.638 1036.66 287.417 1058.08 287.128C1067.5 283.037 1076.35 278.298 1088.35 278.293C1097.53 278.293 1097.16 281.062 1110.89 283.056C1123.79 284.932 1136.3 284.255 1146.01 283.037C1159.88 279.255 1173.47 275.228 1186.73 270.926C1192.28 267.489 1197.54 263.815 1210.86 259.891C1243.65 250.232 1264.35 257.028 1280.55 247.226C1282.79 245.871 1286.49 238.436 1293.9 223.56C1299.58 212.142 1302.43 206.431 1304.7 199.354C1305.4 197.174 1306.58 193.235 1308.87 187.632C1311.8 180.462 1311.62 180.688 1313.16 177.977C1316.5 172.079 1315.74 163.529 1307.11 158.363Z" fill="#F9AE4C"/>
</g>
<g clip-path="url(#clip1_436_2)">
<path d="M1002.26 149.158C1003.38 148.745 1004.56 147.801 1005.68 146.326C1006.8 144.91 1007.51 143.377 1007.87 141.666C1008.16 139.896 1008.04 138.421 1007.33 137.123C1006.69 135.825 1005.68 134.941 1004.33 134.233C1002.97 133.584 1001.56 133.112 1000.02 132.817C998.489 132.581 996.779 132.404 995.069 132.404C991 132.404 987.933 132.64 985.751 133.171C985.161 133.348 984.572 133.407 984.041 133.584C983.569 133.761 983.038 133.997 982.39 134.351C981.8 134.705 981.269 135.176 980.857 135.707C980.444 136.297 980.208 137.005 980.031 137.772L977.495 152.167L975.077 165.971C974.96 166.738 974.96 167.446 975.195 168.036C975.431 168.626 975.785 169.039 976.257 169.393C976.729 169.747 977.2 169.983 977.613 170.16C978.085 170.337 978.616 170.396 979.146 170.573C981.151 171.103 984.1 171.339 988.169 171.339C988.287 171.339 988.464 171.339 988.582 171.339C988.759 171.339 988.877 171.339 989.054 171.339C991.235 171.339 993.24 171.103 995.186 170.632C997.132 170.16 998.961 169.393 1000.67 168.449C1002.38 167.505 1003.8 166.207 1004.98 164.496C1006.21 162.844 1006.98 160.957 1007.33 158.774C1007.69 156.886 1007.45 154.998 1006.57 153.228C1005.68 151.459 1004.27 150.279 1002.2 149.453C1002.09 149.453 1002.09 149.335 1002.26 149.158ZM996.307 159.777C996.012 161.488 995.363 162.785 994.42 163.788C993.417 164.791 992.238 165.263 990.882 165.263C987.933 165.322 986.4 165.558 986.518 164.909L987.461 159.6L988.464 153.582C991 153.11 993.005 153.405 994.597 154.585C996.189 155.765 996.72 157.476 996.307 159.777ZM997.132 142.492C996.896 143.967 996.13 145.264 994.892 146.267C993.594 147.329 991.884 147.86 989.584 147.86L991.294 138.185C993.004 137.772 994.479 137.89 995.776 138.48C997.014 139.129 997.486 140.427 997.132 142.492Z" fill="white"/>
<path d="M1031.63 167.387C1028.45 170.1 1024.79 171.457 1020.66 171.457C1016.53 171.457 1013.35 170.1 1011.11 167.387C1008.87 164.673 1008.1 161.369 1008.81 157.476C1009.46 153.582 1011.4 150.279 1014.59 147.565C1017.83 144.851 1021.49 143.494 1025.56 143.494C1029.68 143.494 1032.87 144.851 1035.11 147.565C1037.35 150.279 1038.18 153.582 1037.53 157.476C1036.82 161.428 1034.87 164.673 1031.63 167.387ZM1018.89 163.257C1019.36 164.85 1020.25 165.617 1021.66 165.617C1024.49 165.617 1026.38 162.903 1027.38 157.476C1027.74 155.057 1027.74 153.11 1027.27 151.576C1026.79 150.102 1025.91 149.335 1024.49 149.335C1023.08 149.335 1021.84 150.102 1020.9 151.635C1019.89 153.169 1019.19 155.116 1018.83 157.476C1018.48 159.776 1018.48 161.723 1018.89 163.257Z" fill="white"/>
<path d="M1063.77 168.153C1063.89 169.156 1064.06 169.923 1064.36 170.277C1064.65 170.69 1064.95 170.985 1065.3 171.221C1065.66 171.398 1065.89 171.575 1066.07 171.752C1066.25 171.929 1066.25 172.047 1066.13 172.342C1065.66 173.227 1064.77 173.994 1063.42 174.761C1062.06 175.587 1060.64 175.941 1059.29 175.941C1057.11 175.941 1055.51 175.233 1054.33 173.758C1053.1 172.401 1052.74 170.454 1053.15 168.094L1055.63 153.405C1055.93 151.635 1055.57 150.632 1054.63 150.455C1053.63 150.278 1052.68 150.809 1051.68 152.107C1050.8 153.169 1050.26 154.585 1049.91 156.178C1048.85 162.903 1048.26 166.325 1048.2 166.561C1047.91 168.212 1047.14 169.392 1045.84 170.1C1044.54 170.867 1043.25 171.221 1042.01 171.221H1041.95C1040.59 171.221 1039.47 170.867 1038.47 170.1C1037.47 169.392 1037.11 168.212 1037.41 166.561C1037.41 166.502 1037.59 165.853 1037.76 164.673C1038 163.493 1038.29 162.136 1038.59 160.72C1038.88 159.304 1039.06 158.243 1039.18 157.653C1039.3 157.063 1039.53 155.234 1040.06 152.284L1040.83 147.86C1041.12 146.208 1041.83 145.028 1043.07 144.32C1044.25 143.612 1045.49 143.258 1046.79 143.199H1046.84C1048.14 143.258 1049.2 143.612 1050.21 144.32C1051.21 145.028 1051.56 146.208 1051.21 147.86C1051.21 147.919 1051.15 148.037 1051.09 148.332C1051.03 148.568 1050.97 148.863 1050.91 149.04H1051.15C1052.56 147.093 1054.1 145.677 1055.81 144.674C1057.58 143.73 1059.17 143.317 1060.7 143.317C1062.65 143.317 1064.18 144.084 1065.3 145.677C1066.36 147.27 1066.66 149.276 1066.3 151.812C1066.19 152.402 1066.01 153.523 1065.71 155.175C1065.42 156.886 1064.36 163.139 1064.06 164.555C1063.77 165.912 1063.65 167.21 1063.77 168.153Z" fill="white"/>
<path d="M1097.74 152.638C1097.26 155.647 1096.73 158.715 1096.26 161.782C1095.73 164.85 1095.5 166.502 1095.44 166.679C1095.2 168.33 1094.43 169.51 1093.2 170.218C1091.9 170.985 1090.66 171.339 1089.42 171.339H1089.36C1088.12 171.339 1087 170.985 1086 170.218C1085 169.51 1084.64 168.33 1084.94 166.679L1085.06 166.266H1084.88C1082.23 169.628 1079.34 171.339 1076.27 171.339C1074.21 171.339 1072.5 170.631 1071.26 169.215C1069.9 167.8 1069.08 166.089 1068.66 163.965C1068.25 161.841 1068.25 159.658 1068.66 157.299C1069.31 153.523 1070.85 150.279 1073.2 147.506C1075.5 144.792 1078.28 143.376 1081.46 143.376C1084.64 143.376 1086.83 144.91 1088.07 147.978H1088.24C1088.54 146.385 1089.3 145.205 1090.48 144.438C1091.72 143.73 1092.96 143.376 1094.2 143.376H1094.26C1095.5 143.376 1096.62 143.73 1097.56 144.438C1098.56 145.205 1098.92 146.385 1098.56 148.037C1098.56 148.096 1098.27 149.571 1097.74 152.638ZM1085 162.195C1085.94 160.897 1086.59 159.246 1086.89 157.24C1087.24 155.234 1087.18 153.582 1086.77 152.284C1086.3 150.927 1085.47 150.279 1084.23 150.279C1082.99 150.279 1081.93 150.927 1081.05 152.225C1080.1 153.582 1079.46 155.234 1079.1 157.24C1078.81 159.246 1078.87 160.897 1079.28 162.195C1079.75 163.552 1080.63 164.201 1081.87 164.201C1083.05 164.201 1084.11 163.552 1085 162.195Z" fill="white"/>
<path d="M1128.22 156.945C1127.28 163.08 1126.87 166.266 1126.75 166.62C1126.51 168.271 1125.69 169.451 1124.45 170.159C1123.15 170.926 1121.85 171.28 1120.56 171.28H1120.5C1119.2 171.28 1118.02 170.926 1117.08 170.159C1116.08 169.451 1115.72 168.271 1115.96 166.62C1116.02 166.561 1116.25 165.145 1116.84 162.372C1117.43 159.599 1117.73 157.889 1117.84 157.299C1117.96 156.768 1118.2 155.116 1118.67 152.343C1119.08 149.512 1119.26 148.096 1119.32 147.919C1119.55 146.326 1120.32 145.146 1121.62 144.379C1122.92 143.671 1124.21 143.317 1125.51 143.317H1125.57C1126.87 143.317 1127.99 143.671 1128.99 144.379C1129.99 145.146 1130.35 146.326 1130.11 147.919L1128.22 156.945Z" fill="white"/>
<path d="M1180.06 169.569C1177.58 170.808 1174.75 171.28 1171.92 171.28C1168.09 171.28 1164.96 169.864 1162.78 167.151C1160.54 164.437 1159.77 161.074 1160.42 157.24C1161.13 153.405 1163.07 150.043 1166.26 147.329C1169.44 144.615 1173.16 143.258 1177.52 143.258C1181.36 143.258 1184.19 144.202 1185.96 146.09C1187.72 147.978 1188.43 150.043 1188.08 152.225C1187.72 154.113 1186.9 155.706 1185.66 157.004C1184.36 158.302 1182.89 159.187 1181.24 159.6C1179.53 160.071 1177.76 160.307 1175.87 160.484C1173.93 160.661 1172.16 160.484 1170.56 160.13C1170.98 162.667 1172.69 164.083 1175.52 164.437C1178.47 164.791 1181.59 164.083 1185.01 162.254C1185.25 162.077 1185.54 162.077 1185.66 162.195C1186.19 162.726 1185.42 164.083 1185.13 164.614C1184.6 165.558 1183.95 166.443 1183.18 167.21C1182.3 168.272 1181.18 168.979 1180.06 169.569ZM1170.92 155.647C1173.1 155.824 1174.87 155.588 1176.17 154.821C1177.46 154.113 1178.23 153.051 1178.47 151.576C1178.58 150.869 1178.47 150.22 1177.99 149.807C1177.58 149.335 1176.99 149.099 1176.17 149.158C1176.17 149.217 1176.17 149.217 1176.11 149.217H1175.93C1175.52 149.276 1175.1 149.394 1174.63 149.689C1172.98 150.574 1171.68 152.579 1170.92 155.647Z" fill="white"/>
<path d="M1157.71 163.552C1157.77 164.555 1157.89 165.322 1158.12 165.676C1158.3 166.089 1158.54 166.384 1158.77 166.62C1159.01 166.797 1159.24 166.974 1159.36 167.092C1159.48 167.269 1159.48 167.387 1159.3 167.682C1158.89 168.567 1157.95 169.393 1156.59 170.159C1155.23 170.985 1153.88 171.339 1152.46 171.339C1150.69 171.339 1149.34 170.808 1148.27 169.805C1147.21 168.803 1146.62 167.446 1146.56 165.676H1146.45C1143.67 169.452 1140.67 171.398 1137.36 171.398C1134.36 171.398 1132.17 169.982 1130.82 167.151C1129.46 164.319 1129.17 161.074 1129.82 157.417C1130.46 153.641 1132 150.338 1134.24 147.624C1136.54 144.91 1139.31 143.494 1142.49 143.494C1145.8 143.494 1147.98 145.028 1149.22 148.155H1149.34C1149.51 147.329 1149.87 145.323 1150.34 142.138C1150.87 138.952 1151.1 137.359 1151.16 137.3C1151.4 135.648 1152.23 134.468 1153.52 133.702C1154.82 132.994 1156.12 132.64 1157.47 132.64H1157.53C1158.89 132.64 1160.07 132.994 1161.07 133.702C1162.13 134.468 1162.49 135.648 1162.25 137.3C1162.19 137.418 1162.01 138.421 1161.66 140.427C1161.25 142.433 1160.83 144.556 1160.36 146.916C1159.95 149.217 1159.65 150.81 1159.48 151.695L1158.06 159.954C1157.83 161.31 1157.65 162.608 1157.71 163.552ZM1146.21 162.195C1147.09 160.897 1147.74 159.246 1148.1 157.24C1148.45 155.234 1148.39 153.523 1147.92 152.225C1147.45 150.928 1146.62 150.279 1145.44 150.279C1144.2 150.279 1143.14 150.928 1142.2 152.225C1141.26 153.582 1140.67 155.234 1140.31 157.24C1139.96 159.246 1140.02 160.897 1140.49 162.195C1140.9 163.552 1141.79 164.201 1143.02 164.201C1144.2 164.201 1145.27 163.493 1146.21 162.195Z" fill="white"/>
<path d="M1114.31 141.194C1114.42 141.017 1114.48 140.781 1114.72 140.309C1114.9 139.837 1115.01 139.365 1115.13 138.893C1115.43 137.123 1114.96 136.238 1113.66 136.238C1112.71 136.238 1112.01 136.533 1111.54 137.241C1111.06 137.89 1110.83 138.775 1110.83 139.837C1110.83 140.84 1110.89 141.725 1111 142.432C1111.12 143.14 1111.24 143.848 1111.42 144.497C1114.72 144.438 1116.43 144.438 1116.61 144.438C1117.37 144.438 1117.84 144.674 1118.08 145.205C1118.26 145.795 1118.32 146.326 1118.26 146.916C1118.14 147.506 1117.9 148.096 1117.49 148.627C1117.08 149.158 1116.49 149.394 1115.72 149.394L1110.77 149.335C1108.94 160.484 1108 166.266 1107.94 166.62C1107.64 168.213 1106.88 169.392 1105.64 170.1C1104.34 170.867 1103.04 171.221 1101.81 171.28H1101.75C1100.45 171.221 1099.33 170.867 1098.38 170.1C1097.38 169.392 1096.97 168.213 1097.32 166.62L1101.45 144.497C1101.69 142.314 1102.34 140.368 1103.22 138.657C1104.11 137.005 1105.17 135.707 1106.46 134.822C1107.76 133.937 1109.06 133.288 1110.53 132.817C1111.95 132.404 1113.42 132.227 1114.96 132.227C1117.9 132.227 1120.15 132.817 1121.62 133.996C1123.09 135.176 1123.74 136.592 1123.39 138.244C1123.21 139.542 1122.56 140.604 1121.56 141.489C1120.5 142.373 1119.26 142.845 1117.9 142.845C1117.08 142.845 1116.31 142.727 1115.6 142.491C1114.84 142.314 1114.42 142.078 1114.37 141.902C1114.19 141.489 1114.25 141.312 1114.31 141.194Z" fill="white"/>
<path d="M1138.78 135.707C1138.54 134.645 1137.54 133.819 1136.48 133.465C1135.54 133.17 1134.47 133.229 1133.53 133.406C1132.88 133.524 1132.65 133.465 1132.23 132.875C1131.82 132.286 1131.35 131.814 1130.76 131.46C1130.05 131.047 1129.17 130.87 1128.4 131.106C1126.45 131.637 1125.92 133.937 1126.28 135.707C1126.63 137.595 1127.81 139.424 1129.52 140.427C1132.35 142.078 1136.6 140.663 1138.31 138.008C1138.66 137.418 1138.9 136.769 1138.84 136.061C1138.84 135.943 1138.84 135.825 1138.78 135.707Z" fill="white"/>
</g>
<g clip-path="url(#clip2_436_2)">
<path d="M201.561 148.819C207.612 139.996 207.484 135.295 206.196 132.912C205.231 130.98 203.171 129.95 200.403 129.95C198.664 129.95 196.604 130.401 194.544 131.238C188.042 133.814 185.081 135.359 178.322 139.352L178 139.545V139.867V141.735V142.25L178.515 142.315C180.06 142.572 180.639 142.765 180.639 144.826L181.283 183.209C181.283 184.754 180.704 185.463 179.094 185.527H178.515V186.107V187.717V188.361H179.159L199.051 187.91C202.656 187.845 205.874 185.591 208.256 181.47C210.316 177.863 211.668 172.969 211.861 168.01C212.054 163.18 211.217 158.672 209.544 155.259C207.741 151.781 204.973 149.527 201.561 148.819ZM189.33 154.679L189.523 141.155C191.583 139.352 194.866 137.549 196.926 137.549C197.634 137.549 198.085 137.742 198.407 138.193C198.858 138.837 199.179 140.383 197.956 143.925C196.347 148.819 192.806 152.103 189.33 154.679ZM199.694 179.924C197.892 181.856 195.574 182.887 192.871 182.887C191.776 182.887 190.618 182.693 189.459 182.371L189.33 162.601C191.905 158.35 194.737 155.967 197.119 155.967C200.209 155.967 202.334 160.282 202.978 167.817C203.428 172.711 202.269 177.155 199.694 179.924Z" fill="white"/>
<path d="M239.8 136.068L240.058 135.874L239.993 135.552C238.577 124.926 235.165 119.13 230.53 119.13C229.564 119.13 228.534 119.388 227.504 119.968C222.805 122.479 218.428 130.336 215.466 141.477C212.634 152.168 211.604 176.897 222.161 185.656C224.35 187.523 227.054 188.425 230.015 188.425C232.59 188.425 235.487 187.716 238.641 186.364L239.028 186.235V185.849L239.865 162.6V161.956H239.221H237.483H236.968L236.903 162.472C235.487 175.674 231.496 176.704 230.337 176.704C227.44 176.704 223.771 171.81 222.354 162.407C222.161 160.926 221.904 157.448 222.612 156.096C228.084 145.341 239.736 136.196 239.8 136.068ZM232.139 135.359C231.303 136.003 228.985 137.935 224.994 142.765C223.513 144.568 222.161 146.5 221.26 147.917C221.582 142.636 222.29 138.322 224.414 133.556C225.959 130.143 227.633 128.146 228.921 128.146C230.401 128.018 231.624 130.722 232.139 135.359Z" fill="white"/>
<path d="M309.454 179.022L308.81 141.735C308.552 128.597 307.651 120.032 305.72 113.978C303.531 107.087 299.991 103.417 294.776 102.837C294.583 102.837 294.326 102.773 294.132 102.773C292.652 102.773 291.364 103.417 290.334 103.932C289.691 104.254 289.111 104.512 288.725 104.512C288.596 104.512 288.21 104.511 287.888 103.352L287.759 102.902H287.309H285.764H285.184V103.481L284.798 128.146V128.79H285.442H287.18H287.759V128.211C288.403 117.005 290.978 110.114 294.519 110.114C295.42 110.114 296.321 110.565 297.158 111.467C299.991 114.558 301.214 122.221 300.441 131.946C285.571 135.874 280.227 151.137 284.605 177.348C285.699 183.981 289.176 188.489 293.167 188.489C296.836 188.489 300.055 184.947 302.308 178.7L302.823 183.273C303.596 187.33 306.235 187.716 309.067 187.716C309.389 187.716 309.711 187.716 310.033 187.716C310.355 187.716 310.741 187.716 311.127 187.716C311.385 187.716 311.578 187.716 311.836 187.716H312.415V187.137L312.479 185.398V184.883L311.964 184.754C310.226 184.174 309.518 182.629 309.454 179.022ZM299.991 167.044C299.411 173.226 297.544 175.416 296.064 175.416C294.583 175.416 292.781 173.291 292.201 169.362C290.077 153.842 292.716 145.019 300.699 140.833C301.021 149.463 300.763 158.736 299.991 167.044Z" fill="white"/>
<path d="M368.743 184.625C367.198 184.303 366.683 183.401 366.619 181.083L366.104 157.191C365.782 143.151 365.46 129.885 353.873 129.885H353.808C352.328 129.885 351.04 130.336 349.946 130.658C349.173 130.915 348.529 131.109 348.014 131.109C347.628 131.109 347.371 130.98 347.113 130.4L346.985 130.014H346.598L345.246 129.949L344.603 129.885V130.529L344.216 149.012V149.656H344.86H345.954H346.534V149.076C346.92 140.575 350.976 136.647 353.551 136.647C354.709 136.647 355.611 137.033 356.383 137.806C358.186 139.674 358.894 143.924 358.572 150.429C353.036 151.588 348.916 154.164 346.276 158.157C342.736 163.437 341.963 171.294 344.023 180.825C344.989 185.333 348.208 188.36 351.941 188.36C355.289 188.36 358.314 185.977 360.246 181.856L360.632 183.852C361.34 186.686 363.658 186.943 366.104 186.943C366.361 186.943 366.683 186.943 366.941 186.943C367.263 186.943 367.584 186.943 367.842 186.943C368.035 186.943 368.228 186.943 368.486 186.943H369.065L369.129 186.364L369.194 185.205L369.258 184.689L368.743 184.625ZM357.413 173.999C356.963 177.992 355.418 179.409 354.13 179.409C352.843 179.409 351.362 178.056 350.911 175.545C349.109 165.305 351.233 159.638 358.121 156.869C358.25 162.471 358.057 168.525 357.413 173.999Z" fill="white"/>
<path d="M258.469 137.677C253.963 134.135 250.1 131.044 252.031 118.551C252.675 114.3 254.478 111.531 256.538 111.531C259.563 111.531 263.04 117.263 263.812 128.275L263.876 128.855H264.456H266.323H266.966V128.211L266.645 103.546V102.966H266.065H264.52H264.07L263.941 103.417C263.619 104.512 263.297 104.512 263.168 104.512C262.846 104.512 262.267 104.254 261.688 103.932C260.658 103.417 259.37 102.773 257.825 102.773C257.568 102.773 257.31 102.773 257.053 102.837C255.315 103.095 253.705 103.739 252.225 104.898C251.516 105.413 250.486 106.379 249.328 107.667C245.658 112.046 244.628 118.035 244.371 119.774L244.242 120.869C243.083 129.692 241.989 138.064 250.873 144.311L251.066 144.439C256.28 148.11 260.851 151.266 261.044 159.831C261.108 161.892 259.37 172.647 255.379 176.768C254.349 177.799 253.319 178.314 252.16 178.314C249.392 178.314 246.109 174.192 245.143 162.536L245.079 161.956H244.5H242.89H242.311V162.536L242.246 187.33V187.909H242.826H244.242H244.628L244.821 187.587L246.817 183.723C248.813 186.686 251.71 188.36 254.928 188.36C259.563 188.36 265.357 184.625 266.966 176.446C269.606 163.309 269.155 153.777 265.486 145.599C263.683 141.735 261.044 139.674 258.469 137.677Z" fill="white"/>
<path d="M342.607 185.72V185.269L342.156 185.14C341.384 184.947 340.804 184.561 340.74 181.276L340.225 145.663C340.225 126.987 334.496 120.354 329.152 120.354C326.771 120.354 324.389 121.706 322.586 123.96L322.522 119.646V119.066H321.942C321.942 119.066 320.655 119.066 320.204 119.066C319.432 119.066 318.852 119.646 318.144 120.29C317.114 121.32 315.634 122.737 312.866 122.866H312.286V123.445V126.73V127.18L312.737 127.309C313.702 127.567 314.539 128.211 314.604 131.109L315.183 180.117C315.247 183.659 314.861 184.368 314.153 184.432L313.638 184.496V185.012V186.879V187.459H314.217L326.835 187.845H327.479V187.201V185.656V185.269L327.092 185.14C325.676 184.561 324.26 183.917 324.26 181.341L323.487 139.352C323.423 135.939 324.324 132.912 325.869 131.302C326.513 130.658 327.157 130.336 327.865 130.336C330.054 130.336 332.307 134.071 332.307 142.443L333.337 180.826C333.401 183.402 332.757 184.69 331.084 185.205L330.633 185.334V185.784L330.697 187.394V187.974H331.277L342.092 188.232H342.736V187.588L342.607 185.72Z" fill="white"/>
<path d="M280.356 102.58C279.391 102.322 278.167 102 275.657 102H275.464C273.211 102 272.052 102.322 271.022 102.58C270.442 102.708 269.863 102.902 269.091 102.966L268.511 103.03V103.61L268.576 105.606V106.057L269.026 106.186C269.863 106.444 271.022 107.088 271.022 110.05V112.368V176.124L271.151 179.216C271.151 179.28 271.279 181.985 270.893 183.337C270.507 184.754 269.541 184.818 269.348 184.818H268.769V185.398V187.845V188.425H269.348H275.721H275.85H282.223H282.802V187.845V185.398V184.754H282.159C281.966 184.754 281 184.69 280.614 183.273C280.227 181.856 280.356 179.151 280.356 179.151L280.485 176.124V111.531V110.05C280.485 107.088 281.644 106.444 282.545 106.186L282.996 106.057V105.606V103.546V102.966H282.416C281.515 102.902 281 102.773 280.356 102.58Z" fill="white"/>
</g>
<g clip-path="url(#clip3_436_2)">
<path d="M589.567 149.751C589.918 149.751 590.268 149.751 590.569 149.701C590.218 149.751 589.918 149.751 589.567 149.751Z" fill="white"/>
<path d="M590.619 149.4C584.41 148.799 580.203 143.188 580.203 136.776C580.203 133.219 581.505 129.963 583.659 127.509C581.505 129.963 580.203 133.219 580.203 136.776C580.203 143.188 584.41 148.799 590.619 149.4Z" fill="white"/>
<path d="M598.581 141.034C599.733 131.216 595.576 129.162 592.822 129.162C595.626 129.162 599.733 131.216 598.581 141.034L595.677 165.23H600.684C599.883 165.581 598.931 165.931 598.381 166.132C598.931 165.981 599.833 165.581 600.684 165.23H595.677L598.581 141.034Z" fill="white"/>
<path d="M590.619 149.4C584.41 148.799 580.203 143.188 580.203 136.776C580.203 133.219 581.505 129.963 583.658 127.509C580.704 129.913 578.751 133.62 578.751 137.828C578.751 144.541 583.508 149.801 589.567 149.801C589.918 149.801 590.268 149.801 590.569 149.751L590.619 149.4Z" fill="white"/>
<path d="M595.676 165.23L598.581 141.034C599.733 131.216 595.576 129.162 592.822 129.162C592.221 129.162 591.62 129.312 591.07 129.462C592.171 129.562 593.874 129.963 595.226 131.566C597.029 133.72 597.68 137.277 597.079 142.136L593.924 166.032H598.33C598.881 165.881 599.783 165.481 600.634 165.13H595.676V165.23Z" fill="white"/>
<path d="M578.751 137.828C578.751 133.62 580.654 129.913 583.658 127.509C580.654 129.863 578.751 133.62 578.751 137.828C578.751 144.541 583.508 149.801 589.567 149.801C583.508 149.751 578.751 144.491 578.751 137.828Z" fill="white"/>
<path d="M595.276 131.616C593.924 130.013 592.222 129.612 591.12 129.512C591.671 129.312 592.272 129.212 592.873 129.212C592.272 129.212 591.671 129.362 591.12 129.512C592.222 129.562 593.924 129.963 595.276 131.616C597.079 133.77 597.73 137.327 597.129 142.186L593.974 166.082L597.129 142.186C597.73 137.327 597.079 133.77 595.276 131.616Z" fill="white"/>
<path d="M637.64 145.493C639.443 145.493 640.144 146.545 640.144 147.697C640.144 148.649 639.643 149.701 638.542 150.602C638.842 150.051 638.992 149.45 638.992 148.899C638.992 147.597 638.141 146.044 635.837 146.044C635.687 146.044 635.537 146.044 635.387 146.094C636.088 145.693 636.839 145.493 637.64 145.493Z" fill="white"/>
<path d="M633.734 166.583C626.624 166.583 622.167 162.525 622.167 156.013C622.167 153.207 623.268 150.101 625.171 147.346C623.97 149.651 623.319 152.255 623.319 154.81C623.319 161.774 628.076 166.032 635.537 166.032C636.889 166.032 638.191 165.881 639.393 165.581C637.59 166.232 635.737 166.583 633.734 166.583Z" fill="white"/>
<path d="M647.155 156.213C647.405 155.863 647.705 155.512 647.956 155.111L648.006 155.011V154.861C648.507 151.805 649.859 149 651.661 146.645C650.41 148.749 649.558 151.154 649.158 153.558C648.557 154.56 647.906 155.462 647.155 156.213Z" fill="white"/>
<path d="M655.417 166.432C651.661 166.432 649.007 164.278 648.106 160.621C648.507 160.221 648.857 159.82 649.208 159.419C650.159 163.627 653.164 165.932 657.17 165.932C657.771 165.932 658.321 165.881 658.872 165.781C657.821 166.182 656.669 166.432 655.417 166.432Z" fill="white"/>
<path d="M654.466 182.663C650.51 182.663 648.056 180.609 648.056 177.353C648.056 175.6 648.807 174.297 649.959 173.245C649.508 174.097 649.208 175.049 649.208 176.151C649.208 179.657 651.812 182.112 656.268 182.112C656.969 182.112 657.721 182.012 658.522 181.862C657.12 182.413 655.718 182.663 654.466 182.663Z" fill="white"/>
<path d="M657.72 177.403C658.972 175.8 660.074 173.646 660.775 171.492C661.075 171.442 661.326 171.342 661.626 171.292C660.675 174.297 659.273 176.401 657.72 177.403Z" fill="white"/>
<path d="M662.828 167.334C662.578 167.384 662.277 167.485 661.977 167.535L662.778 164.779L662.978 164.078C663.329 163.878 663.629 163.627 663.93 163.377L662.828 167.334Z" fill="white"/>
<path d="M664.381 157.816C665.632 155.963 666.384 153.658 666.384 151.554C666.384 148.498 664.681 146.545 662.027 146.545C661.927 146.545 661.827 146.545 661.727 146.595C662.428 146.244 663.129 146.044 663.83 146.044C665.833 146.044 667.535 147.446 667.535 150.402C667.535 153.007 666.233 155.963 664.381 157.816Z" fill="white"/>
<path d="M669.939 143.839C669.789 143.489 669.638 143.188 669.488 142.888L669.989 141.235L670.94 140.633L669.939 143.839Z" fill="white"/>
<path d="M674.997 161.022C675.698 160.17 676.399 159.269 677.05 158.217C678.852 155.462 680.305 152.356 681.607 148.649L684.16 141.285L685.112 140.633L682.808 148.198C681.807 151.404 680.455 154.46 678.452 157.165C677.45 158.567 676.299 159.82 674.997 161.022Z" fill="white"/>
<path d="M684.461 166.432C680.355 166.432 679.153 163.928 678.902 161.774C679.303 161.373 679.653 160.922 680.004 160.471C680.355 163.677 682.307 165.881 686.263 165.881C687.465 165.881 688.617 165.631 689.719 165.23C688.166 166.032 686.414 166.432 684.461 166.432Z" fill="white"/>
<path d="M716.91 141.285L717.861 140.684L716.91 143.789C716.76 143.489 716.609 143.188 716.459 142.888L716.91 141.285Z" fill="white"/>
<path d="M694.927 155.261L694.977 155.111C695.828 149.651 698.482 143.94 703.489 141.285C699.634 143.94 696.879 148.799 696.128 153.808C695.728 154.56 695.277 155.261 694.876 155.912C694.876 155.662 694.927 155.411 694.927 155.261Z" fill="white"/>
<path d="M702.538 166.432C698.632 166.432 696.128 163.978 695.327 161.523L695.227 161.172C695.578 160.722 695.978 160.271 696.329 159.82C697.33 163.727 700.335 165.881 704.391 165.881C704.942 165.881 705.493 165.831 706.043 165.731C704.892 166.182 703.69 166.432 702.538 166.432Z" fill="white"/>
<path d="M713.305 151.454C713.305 148.498 711.602 146.545 708.898 146.545C708.798 146.545 708.748 146.545 708.647 146.545C709.298 146.194 710 145.994 710.701 145.994C712.904 145.994 714.456 147.547 714.456 150.252C714.456 152.957 713.154 155.912 711.301 157.766C712.553 155.912 713.305 153.558 713.305 151.454Z" fill="white"/>
<path d="M716.159 166.432C713.605 166.432 712.053 165.23 711.552 162.926C711.952 162.575 712.353 162.224 712.704 161.823C713.154 164.128 714.656 165.931 717.961 165.931C718.412 165.931 718.913 165.881 719.364 165.781C718.312 166.182 717.21 166.432 716.159 166.432Z" fill="white"/>
<path d="M729.529 166.232L723.57 166.182L724.321 163.727L724.471 163.276C724.822 162.976 725.172 162.675 725.523 162.375L724.572 165.431H730.781L729.529 166.232Z" fill="white"/>
<path d="M729.779 148.348C728.878 151.304 727.626 154.109 725.873 156.664C724.972 158.016 724.071 159.068 723.219 159.77C723.72 159.068 724.271 158.267 724.872 157.265C726.174 155.061 727.326 152.556 728.277 149.801L731.282 141.235L732.283 140.533L729.779 148.348Z" fill="white"/>
<path d="M746.054 166.432C745.854 166.432 745.703 166.432 745.503 166.382C743.951 166.232 742.749 165.581 741.948 164.328C740.746 162.575 740.495 159.72 741.347 157.115L742.949 151.554C743.85 148.548 743.951 147.196 743.35 146.394C742.999 145.944 742.448 145.693 741.697 145.693C741.297 145.693 740.846 145.743 740.295 145.843C740.145 145.843 740.045 145.944 739.945 145.944C740.646 145.543 741.397 145.292 742.248 145.292C744.802 145.292 745.102 147.496 744.301 150.101L742.549 155.712C741.247 160.02 741.397 165.831 747.306 165.831C748.007 165.831 748.658 165.731 749.359 165.581C748.207 166.182 747.105 166.432 746.054 166.432Z" fill="white"/>
<path d="M777.702 141.285L778.653 140.684L777.702 143.789C777.552 143.489 777.401 143.188 777.251 142.888L777.702 141.285Z" fill="white"/>
<path d="M755.719 155.261L755.769 155.111C756.319 151.554 757.972 147.947 760.376 145.242C758.623 147.747 757.421 150.703 756.92 153.808C756.52 154.56 756.069 155.261 755.668 155.912C755.668 155.612 755.719 155.361 755.719 155.261Z" fill="white"/>
<path d="M763.33 166.432C759.624 166.432 756.97 164.479 756.019 161.122C756.37 160.722 756.72 160.271 757.071 159.77C758.072 163.727 761.077 165.881 765.133 165.881C765.684 165.881 766.234 165.831 766.785 165.731C765.634 166.182 764.482 166.432 763.33 166.432Z" fill="white"/>
<path d="M774.096 151.454C774.096 148.498 772.394 146.545 769.69 146.545C769.59 146.545 769.54 146.545 769.439 146.545C770.09 146.194 770.791 145.994 771.493 145.994C773.696 145.994 775.248 147.547 775.248 150.252C775.248 152.957 773.946 155.912 772.093 157.766C773.345 155.912 774.096 153.558 774.096 151.454Z" fill="white"/>
<path d="M780.156 165.731C779.104 166.182 778.002 166.382 776.951 166.382C774.397 166.382 772.845 165.18 772.344 162.876C772.744 162.525 773.145 162.174 773.495 161.774C773.946 164.078 775.448 165.881 778.753 165.881C779.204 165.881 779.705 165.831 780.156 165.731Z" fill="white"/>
<path d="M687.666 130.013C687.215 130.715 686.965 131.566 686.965 132.468C686.965 134.722 688.617 136.476 690.82 136.726C690.37 136.927 689.819 137.027 689.268 137.027C687.215 137.027 685.613 135.474 685.613 133.37C685.663 131.867 686.464 130.615 687.666 130.013Z" fill="white"/>
<path d="M689.268 137.728C692.123 137.828 695.578 135.624 695.578 132.468C695.578 130.564 694.276 128.761 692.423 128.26C688.868 127.358 684.761 129.863 684.761 133.27C684.761 135.674 686.614 137.578 689.268 137.728ZM687.666 130.013C687.215 130.715 686.965 131.566 686.965 132.468C686.965 134.722 688.617 136.476 690.821 136.726C690.37 136.926 689.819 137.027 689.268 137.027C687.215 137.027 685.613 135.474 685.613 133.37C685.663 131.867 686.464 130.614 687.666 130.013Z" fill="white"/>
<path d="M598.581 141.034C599.733 131.216 595.577 129.162 592.822 129.162C592.222 129.162 591.621 129.312 591.07 129.462C592.171 129.562 593.874 129.963 595.226 131.566C597.029 133.72 597.68 137.277 597.079 142.136L593.924 166.032H598.331C598.882 165.881 599.783 165.481 600.634 165.13H595.627L598.581 141.034Z" fill="white"/>
<path d="M580.203 136.776C580.203 133.219 581.505 129.963 583.658 127.509C580.704 129.913 578.751 133.62 578.751 137.828C578.751 144.541 583.508 149.801 589.567 149.801C589.667 149.801 589.718 149.801 589.818 149.801L589.868 149.3C584.059 148.298 580.203 142.938 580.203 136.776Z" fill="white"/>
<path d="M617.66 128.711C617.36 133.119 615.907 137.177 614.004 141.134C612.202 144.841 609.798 148.148 606.944 151.003C606.293 151.705 605.592 152.356 604.891 152.957L606.243 143.689C607.795 131.216 603.489 123 593.373 123C585.662 123 578 129.462 578 137.828C578 144.641 582.707 150.552 589.517 150.552C589.818 150.552 590.118 150.552 590.469 150.502L591.52 140.934C589.167 140.483 587.164 138.179 587.164 135.123C587.164 133.219 588.065 131.516 589.467 130.414C589.868 130.314 590.219 130.264 590.669 130.264C593.423 130.264 597.58 132.268 596.428 142.136L593.173 166.883H598.481C599.332 166.633 601.586 165.731 602.387 165.28C606.743 163.126 610.599 160.02 613.954 156.464C617.41 152.857 620.364 148.749 622.818 144.34C625.171 140.183 627.275 135.774 628.026 130.915C628.126 130.214 628.226 129.512 628.276 128.811C628.276 128.711 617.66 128.711 617.66 128.711ZM589.868 149.3L589.818 149.801C589.718 149.801 589.668 149.801 589.568 149.801C583.508 149.801 578.751 144.541 578.751 137.828C578.751 133.62 580.654 129.913 583.659 127.509C581.505 129.963 580.203 133.219 580.203 136.776C580.203 142.938 584.059 148.298 589.868 149.3ZM598.381 166.082H593.974L597.129 142.186C597.68 137.327 597.079 133.77 595.276 131.616C593.924 130.013 592.221 129.613 591.12 129.512C591.671 129.312 592.272 129.212 592.873 129.212C595.627 129.212 599.783 131.216 598.631 141.084L595.727 165.28H600.734C599.883 165.581 598.932 165.931 598.381 166.082ZM615.757 141.435C614.004 145.142 611.651 148.549 608.747 151.604C608.096 152.306 607.394 152.957 606.693 153.608C606.693 153.658 605.742 154.61 604.59 155.512L604.791 153.909C605.492 153.308 605.992 152.757 605.992 152.757C606.693 152.105 607.394 151.404 608.045 150.753C610.85 147.797 613.153 144.491 614.856 140.884C616.809 136.726 617.91 133.119 618.311 129.512H619.312C618.912 133.32 617.81 137.077 615.757 141.435Z" fill="white"/>
<path d="M618.311 129.512C617.91 133.119 616.809 136.776 614.856 140.884C613.153 144.491 610.85 147.797 608.045 150.753C607.394 151.404 606.743 152.105 605.992 152.757C605.992 152.757 605.491 153.308 604.79 153.909L604.59 155.512C605.742 154.61 606.643 153.658 606.693 153.608C607.394 152.957 608.095 152.256 608.746 151.604C611.651 148.549 614.004 145.142 615.757 141.435C617.81 137.127 618.912 133.32 619.312 129.512H618.311Z" fill="white"/>
<path d="M786.766 156.814C786.064 157.966 784.262 160.471 782.058 160.17C780.456 159.97 780.356 159.118 780.907 157.415L786.315 139.682H778.954L777.151 140.884L776.75 142.186C775.348 140.283 773.245 139.231 770.741 139.231C767.136 139.231 763.931 141.235 761.277 143.489C758.673 145.693 756.82 148.899 755.819 152.155C755.669 152.606 755.568 153.107 755.418 153.608C755.318 154.009 755.318 154.71 755.118 155.061C755.068 155.161 754.967 156.113 754.917 157.065C753.265 159.369 751.713 160.772 750.361 160.772C748.858 160.772 748.908 159.169 749.459 157.415C750.611 153.909 752.263 150.001 752.364 146.244C752.414 143.739 751.562 141.084 749.159 139.882C748.207 139.381 747.106 139.231 746.054 139.231C744.001 139.231 742.198 139.982 740.496 141.385C739.995 141.635 739.494 141.986 739.043 142.337L739.845 139.732H732.333L730.681 140.934L727.626 149.701C726.725 152.255 725.673 154.71 724.271 157.065C723.32 158.668 722.468 159.92 721.617 160.772C721.417 160.822 721.267 160.822 721.066 160.822C719.514 160.822 719.614 159.219 720.165 157.465L725.573 139.732H718.212L716.409 140.934L716.009 142.236C716.059 142.036 715.057 141.184 714.907 141.034C714.456 140.683 714.006 140.333 713.505 140.082C712.453 139.531 711.301 139.331 710.1 139.281C702.739 139.03 697.481 144.29 695.327 150.953C694.877 152.306 694.576 153.708 694.326 155.111C694.276 155.211 694.176 156.263 694.075 157.165C692.423 159.419 690.821 160.772 689.118 160.772C687.165 160.772 686.865 159.068 687.516 156.864L692.773 139.682H685.412L683.61 140.884L681.006 148.498C680.004 151.454 678.702 154.359 677.1 157.014C675.548 159.519 673.745 161.874 671.291 163.727L678.702 139.631H671.341L669.538 140.834L669.138 142.186C667.786 140.233 665.683 139.181 662.979 139.181C659.373 139.181 656.168 141.235 653.664 143.639C651.161 146.044 649.158 149.099 648.056 152.406C647.856 153.057 647.806 154.209 647.455 154.76C646.253 156.664 644.801 158.217 643.299 159.419C641.546 160.371 639.743 160.922 637.891 160.922C634.836 160.922 632.683 159.619 631.731 157.265C637.59 157.014 646.854 153.458 646.854 146.394C646.854 142.487 643.349 139.181 637.79 139.181C634.936 139.181 632.432 140.032 630.329 141.435C625.221 144.641 621.566 150.652 621.566 155.962C621.566 162.926 626.323 167.184 633.784 167.184C638.942 167.184 644 164.579 647.655 161.072C648.707 164.929 651.661 167.033 655.467 167.033C657.971 167.033 660.274 166.132 662.227 164.579L661.326 167.735C661.276 167.885 659.523 168.186 659.323 168.236C658.572 168.436 657.821 168.637 657.12 168.837C655.667 169.288 654.265 169.839 652.913 170.54C650.259 171.943 647.455 174.097 647.455 177.353C647.455 180.86 650.059 183.314 654.516 183.314C661.126 183.314 666.183 177.904 668.587 172.243C669.088 171.091 669.438 169.839 669.839 168.637L669.939 168.336C669.889 168.436 669.889 168.536 669.839 168.637C670.84 168.085 671.792 167.434 672.693 166.833C674.846 165.531 676.749 164.028 678.402 162.325C678.953 165.13 680.855 167.033 684.511 167.033C688.467 167.033 691.972 165.43 694.726 161.673C695.628 164.479 698.482 167.033 702.538 167.033C705.593 167.033 708.698 165.23 711.001 163.326C711.552 165.43 713.054 167.033 716.159 167.033C718.412 167.033 720.465 166.132 722.368 164.629C722.769 164.429 723.169 164.178 723.57 163.877L722.669 166.783L729.729 166.833L731.933 165.38L736.84 149.3C736.99 148.849 737.191 148.448 737.491 148.098C737.591 147.997 737.641 147.897 737.741 147.797C738.042 147.496 738.342 147.246 738.743 147.046C739.294 146.795 739.795 146.595 740.395 146.494C740.896 146.394 741.347 146.344 741.697 146.344C743.35 146.344 743.45 147.496 742.348 151.304L740.746 156.864C739.444 161.172 740.596 166.533 745.503 166.983C745.703 166.983 745.904 167.033 746.104 167.033C749.71 167.033 753.215 164.078 755.518 161.573C755.368 161.723 756.219 163.226 756.37 163.427C756.72 163.978 757.121 164.529 757.621 164.98C758.623 165.931 759.875 166.533 761.177 166.833C763.08 167.234 765.033 167.033 766.835 166.382C767.737 166.032 768.588 165.631 769.389 165.08C769.64 164.879 771.843 163.527 771.793 163.377C772.344 165.481 773.846 167.084 776.951 167.084C779.304 167.084 781.508 165.781 783.36 164.429C784.712 163.377 785.964 162.124 786.916 160.671C787.366 160.02 788.067 158.567 788.118 158.517L786.766 156.814ZM637.64 145.493C639.443 145.493 640.144 146.545 640.144 147.697C640.144 148.649 639.643 149.701 638.542 150.602C638.842 150.051 638.992 149.45 638.992 148.899C638.992 147.597 638.141 146.044 635.838 146.044C635.687 146.044 635.537 146.044 635.387 146.094C636.088 145.693 636.839 145.493 637.64 145.493ZM633.985 147.046C634.586 146.795 635.187 146.645 635.838 146.645C637.64 146.645 638.341 147.697 638.341 148.849C638.341 149.751 637.891 150.702 636.989 151.554C635.587 152.205 633.684 152.706 631.18 152.706C631.581 150.452 632.583 148.398 633.985 147.046ZM633.734 166.583C626.624 166.583 622.167 162.525 622.167 156.013C622.167 153.207 623.269 150.101 625.171 147.346C623.97 149.65 623.319 152.255 623.319 154.81C623.319 161.774 628.076 166.032 635.537 166.032C636.889 166.032 638.191 165.881 639.393 165.581C637.64 166.232 635.737 166.583 633.734 166.583ZM647.155 156.213C647.405 155.862 647.705 155.512 647.956 155.111L648.006 155.011V154.86C648.507 151.805 649.859 148.999 651.661 146.645C650.41 148.749 649.558 151.153 649.158 153.558C648.557 154.56 647.906 155.462 647.155 156.213ZM655.417 166.432C651.661 166.432 649.007 164.278 648.106 160.621C648.507 160.221 648.857 159.82 649.208 159.419C650.159 163.627 653.164 165.931 657.17 165.931C657.771 165.931 658.322 165.881 658.872 165.781C657.821 166.182 656.669 166.432 655.417 166.432ZM660.375 159.77C658.271 159.77 656.769 158.217 656.769 155.462C656.769 152.606 658.271 149.45 660.274 147.597C660.825 147.346 661.426 147.196 662.027 147.196C664.03 147.196 665.733 148.598 665.733 151.554C665.733 154.359 664.23 157.515 662.227 159.319C661.626 159.619 660.976 159.77 660.375 159.77ZM660.024 171.642C659.123 174.197 657.721 176.552 656.268 178.004C656.018 178.054 655.768 178.105 655.567 178.105C653.965 178.105 653.164 177.053 653.164 175.9C653.164 173.496 656.569 172.494 660.024 171.642ZM654.466 182.663C650.51 182.663 648.056 180.609 648.056 177.353C648.056 175.6 648.807 174.297 649.959 173.245C649.508 174.097 649.208 175.049 649.208 176.151C649.208 179.657 651.812 182.112 656.268 182.112C656.969 182.112 657.721 182.012 658.522 181.862C657.12 182.413 655.718 182.663 654.466 182.663ZM657.721 177.403C658.972 175.8 660.074 173.646 660.775 171.492C661.076 171.442 661.326 171.342 661.626 171.292C660.675 174.297 659.273 176.401 657.721 177.403ZM662.828 167.334C662.578 167.384 662.277 167.484 661.977 167.534L662.778 164.779L662.979 164.078C663.329 163.877 663.63 163.627 663.93 163.377L662.828 167.334ZM664.381 157.816C665.633 155.962 666.384 153.658 666.384 151.554C666.384 148.498 664.681 146.545 662.027 146.545C661.927 146.545 661.827 146.545 661.727 146.595C662.428 146.244 663.129 146.044 663.83 146.044C665.833 146.044 667.535 147.446 667.535 150.402C667.535 153.007 666.233 155.962 664.381 157.816ZM669.939 143.839C669.789 143.489 669.639 143.188 669.488 142.888L669.989 141.235L670.941 140.633L669.939 143.839ZM674.997 161.022C675.698 160.17 676.399 159.269 677.05 158.217C678.852 155.462 680.305 152.356 681.607 148.649L684.16 141.285L685.112 140.633L682.808 148.198C681.807 151.404 680.455 154.46 678.452 157.165C677.45 158.567 676.299 159.82 674.997 161.022ZM684.461 166.432C680.355 166.432 679.153 163.928 678.903 161.774C679.303 161.373 679.654 160.922 680.004 160.471C680.355 163.677 682.308 165.881 686.264 165.881C687.465 165.881 688.617 165.631 689.719 165.23C688.167 166.032 686.414 166.432 684.461 166.432ZM716.91 141.285L717.861 140.683L716.91 143.789C716.76 143.489 716.61 143.188 716.459 142.888L716.91 141.285ZM694.927 155.261L694.977 155.111C695.828 149.65 698.482 143.94 703.49 141.285C699.634 143.94 696.88 148.799 696.129 153.808C695.728 154.56 695.277 155.261 694.877 155.912C694.877 155.662 694.927 155.411 694.927 155.261ZM702.538 166.432C698.632 166.432 696.129 163.978 695.327 161.523L695.227 161.172C695.578 160.722 695.978 160.271 696.329 159.82C697.33 163.727 700.335 165.881 704.391 165.881C704.942 165.881 705.493 165.831 706.044 165.731C704.892 166.182 703.69 166.432 702.538 166.432ZM709.098 159.369C708.547 159.619 707.946 159.77 707.346 159.77C705.142 159.77 703.69 158.217 703.69 155.462C703.69 152.556 705.192 149.4 707.245 147.597C707.796 147.346 708.347 147.196 708.898 147.196C711.101 147.196 712.654 148.749 712.654 151.454C712.654 154.359 711.151 157.515 709.098 159.369ZM713.305 151.454C713.305 148.498 711.602 146.545 708.898 146.545C708.798 146.545 708.748 146.545 708.647 146.545C709.298 146.194 710 145.994 710.701 145.994C712.904 145.994 714.456 147.546 714.456 150.252C714.456 152.957 713.154 155.912 711.301 157.766C712.553 155.912 713.305 153.558 713.305 151.454ZM716.159 166.432C713.605 166.432 712.053 165.23 711.552 162.926C711.952 162.575 712.353 162.224 712.704 161.824C713.154 164.128 714.657 165.931 717.962 165.931C718.412 165.931 718.913 165.881 719.364 165.781C718.312 166.182 717.21 166.432 716.159 166.432ZM729.529 166.232L723.57 166.182L724.321 163.727L724.471 163.276C724.822 162.976 725.172 162.675 725.523 162.375L724.572 165.43H730.781L729.529 166.232ZM729.779 148.348C728.878 151.304 727.626 154.109 725.874 156.664C724.972 158.016 724.071 159.068 723.22 159.77C723.72 159.068 724.271 158.267 724.872 157.265C726.174 155.061 727.326 152.556 728.277 149.801L731.282 141.235L732.283 140.533L729.779 148.348ZM746.054 166.432C745.854 166.432 745.703 166.432 745.503 166.382C743.951 166.232 742.749 165.581 741.948 164.328C740.746 162.575 740.496 159.72 741.347 157.115L742.949 151.554C743.851 148.548 743.951 147.196 743.35 146.394C742.999 145.943 742.449 145.693 741.697 145.693C741.297 145.693 740.846 145.743 740.295 145.843C740.145 145.843 740.045 145.943 739.945 145.943C740.646 145.543 741.397 145.292 742.248 145.292C744.802 145.292 745.103 147.496 744.301 150.101L742.549 155.712C741.247 160.02 741.397 165.831 747.306 165.831C748.007 165.831 748.658 165.731 749.359 165.581C748.207 166.182 747.106 166.432 746.054 166.432ZM777.702 141.285L778.653 140.683L777.702 143.789C777.552 143.489 777.401 143.188 777.251 142.888L777.702 141.285ZM755.719 155.261L755.769 155.111C756.32 151.554 757.972 147.947 760.376 145.242C758.623 147.747 757.421 150.702 756.92 153.808C756.52 154.56 756.069 155.261 755.669 155.912C755.669 155.612 755.719 155.361 755.719 155.261ZM763.33 166.432C759.625 166.432 756.971 164.479 756.019 161.122C756.37 160.722 756.72 160.271 757.071 159.77C758.072 163.727 761.077 165.881 765.133 165.881C765.684 165.881 766.235 165.831 766.785 165.731C765.634 166.182 764.482 166.432 763.33 166.432ZM769.89 159.369C769.339 159.619 768.738 159.77 768.137 159.77C765.934 159.77 764.482 158.217 764.482 155.462C764.482 152.556 765.984 149.4 768.037 147.597C768.588 147.346 769.139 147.196 769.69 147.196C771.893 147.196 773.445 148.749 773.445 151.454C773.445 154.359 771.943 157.515 769.89 159.369ZM774.096 151.454C774.096 148.498 772.394 146.545 769.69 146.545C769.59 146.545 769.539 146.545 769.439 146.545C770.09 146.194 770.791 145.994 771.492 145.994C773.696 145.994 775.248 147.546 775.248 150.252C775.248 152.957 773.946 155.912 772.093 157.766C773.345 155.912 774.096 153.558 774.096 151.454ZM780.156 165.731C779.104 166.182 778.002 166.382 776.951 166.382C774.397 166.382 772.844 165.18 772.344 162.876C772.744 162.525 773.145 162.174 773.495 161.774C773.946 164.078 775.448 165.881 778.753 165.881C779.204 165.881 779.705 165.831 780.156 165.731Z" fill="white"/>
</g>
<defs>
<clipPath id="clip0_436_2">
<rect width="1315" height="295" fill="white"/>
</clipPath>
<clipPath id="clip1_436_2">
<rect width="214" height="45" fill="white" transform="translate(975 131)"/>
</clipPath>
<clipPath id="clip2_436_2">
<rect width="192" height="87" fill="white" transform="translate(178 102)"/>
</clipPath>
<clipPath id="clip3_436_2">
<rect width="211" height="61" fill="white" transform="translate(578 123)"/>
</clipPath>
</defs>
</svg>
