<svg width="40" height="40" viewBox="0 0 40 40" fill="none" xmlns="http://www.w3.org/2000/svg">
<rect width="39" height="40" transform="translate(0.99585)" fill="#67AE3E"/>
<path d="M38.6618 7.97432C38.085 4.53319 37.6319 1.63 33.6637 1.04725C31.0176 0.658868 28.3352 0.812901 25.694 0.525839C22.0603 0.471474 18.3917 0.633332 14.7158 0.624274C11.7569 0.617272 6.95181 0.131685 4.78377 2.59994C2.64618 5.03236 2.0129 9.45743 2.19482 12.52C2.45898 16.9702 1.92159 21.5262 1.63851 25.9685C1.369 30.1983 1.71464 35.127 5.93719 37.3419C9.64819 39.2879 13.4934 38.3851 17.4325 38.8357C21.8666 39.3427 26.1689 38.8979 30.6038 38.3044C31.6921 38.1586 32.8027 38.0066 33.7885 37.5227C38.7007 35.1108 37.8572 28.5507 38.1308 24.1027C38.4551 18.835 39.541 13.2217 38.6624 7.97518L38.6618 7.97432Z" fill="white"/>
<g clip-path="url(#clip0_84_368)">
<path d="M33.0268 13.6015C32.7688 11.419 30.4855 10.0826 28.3502 9.75977C27.5339 9.63629 26.6971 9.60048 25.8719 9.51228C23.6709 9.29204 21.4544 9.21988 19.2446 9.29579C17.3617 9.3594 15.4838 9.53099 13.6269 9.80895C11.7948 10.0832 10.8592 10.521 9.86446 11.2832C9.00504 11.9407 8.46929 12.7281 8.15115 13.547C8.14949 13.5508 8.14839 13.5545 8.14728 13.5582C8.0335 13.9073 7.95618 14.2804 7.91696 14.6781C7.85234 15.319 7.80815 15.9589 7.78054 16.5977C7.66068 19.4067 7.87333 22.2034 8.20528 25.0077C8.46321 27.1902 10.7465 28.5266 12.8818 28.8494C13.6981 28.9729 14.5349 29.0087 15.3601 29.0969C17.5611 29.3172 19.7776 29.3893 21.9874 29.3134C23.8703 29.2498 25.7482 29.0782 27.6051 28.8003C29.4372 28.526 30.3728 28.0882 31.3676 27.326C32.227 26.6685 32.7627 25.8811 33.0809 25.0622C33.082 25.0584 33.0836 25.0547 33.0848 25.051C33.1985 24.7019 33.2759 24.3288 33.3151 23.9311C33.3797 23.2902 33.4239 22.6503 33.4515 22.0115C33.5714 19.2025 33.3587 16.4058 33.0268 13.6015ZM27.6532 14.3237C27.3212 14.8604 26.9412 15.3666 26.5336 15.852C26.1558 16.3021 25.7427 16.7249 25.2948 17.1108C24.8269 17.5144 24.3238 17.88 23.8195 18.2403C22.9181 18.8845 21.9874 19.4842 21.0131 20.0209C20.711 20.1871 20.3266 20.1968 20.025 20.0209C19.6555 19.8049 19.2888 19.5842 18.9276 19.3549C18.4857 19.0748 18.0571 18.7791 17.6417 18.4638C17.5462 18.3911 17.4484 18.3184 17.3606 18.2366C16.8315 17.8512 16.3057 17.4615 15.7865 17.0649C15.338 16.7217 14.8851 16.3764 14.4736 15.9915C14.3974 15.9209 14.3239 15.8477 14.2538 15.7713C13.8738 15.3559 13.5325 14.9005 13.2475 14.4189C13.1138 14.1928 13.09 13.9394 13.1491 13.6892C13.2055 13.4476 13.3894 13.2536 13.5987 13.1231C13.7109 13.0542 13.8324 13.0168 13.9622 13.0109C14.0925 12.9825 14.2223 12.9884 14.3527 13.028C14.5874 13.0905 14.8161 13.2573 14.9376 13.4631C15.0867 13.7154 15.2507 13.9592 15.4297 14.1928C15.433 14.197 15.4369 14.2013 15.4402 14.2056C15.5252 14.3082 15.6131 14.4092 15.7058 14.5049C15.8798 14.684 16.0709 14.847 16.2631 15.0069C16.6625 15.3388 17.0745 15.6558 17.4904 15.9685C17.5097 15.9835 17.5296 15.9979 17.549 16.0123C17.7384 16.1535 17.9284 16.294 18.119 16.4336C18.3388 16.5945 18.5697 16.7463 18.7751 16.9237C18.8381 16.9783 18.9027 17.0301 18.969 17.0809C19.0308 17.1263 19.0938 17.1712 19.1568 17.2156C19.6019 17.5283 20.0631 17.8191 20.5304 18.1003C20.6558 18.0281 20.7812 17.9543 20.9054 17.8795C21.7312 17.3829 22.5271 16.8393 23.2981 16.2657C24.025 15.7093 24.6833 15.0854 25.2583 14.3809C25.5118 14.0554 25.7471 13.7175 25.9631 13.3679C26.0973 13.1515 26.3039 13.0093 26.548 12.9328C26.7998 12.8537 27.0749 12.912 27.3019 13.028C27.514 13.1365 27.6891 13.3744 27.7515 13.5941C27.8183 13.8287 27.783 14.1142 27.6532 14.3237Z" fill="#67AE3E"/>
</g>
<defs>
<clipPath id="clip0_84_368">
<rect width="25.7383" height="20.0759" fill="white" transform="translate(7.74689 9.26611)"/>
</clipPath>
</defs>
</svg>
