<svg width="331" height="597" viewBox="0 0 331 597" fill="none" xmlns="http://www.w3.org/2000/svg">
<path fill-rule="evenodd" clip-rule="evenodd" d="M329.011 159.974C328.433 158.586 327.953 158.014 327.303 157.236C326.534 156.318 325.527 155.114 323.837 151.948C322.29 149.051 321.75 147.468 321.393 146.163C320.887 144.328 319.911 140.771 320.271 136.812C320.481 134.502 321.035 133.272 321.637 131.937C322.249 130.578 322.911 129.111 323.307 126.285C323.727 123.278 323.583 120.857 323.47 118.964L323.467 118.918C322.981 110.718 322.87 98.2809 323.472 87.9425C322.392 85.8887 321.302 83.8497 320.204 81.8356C316.15 74.4042 311.964 67.2457 307.676 60.3451C306.603 58.6187 305.523 56.9072 304.435 55.2155C304.245 54.9181 304.046 54.5879 303.844 54.253L303.742 54.0845C303.631 53.9406 303.523 53.7918 303.431 53.6529C301.219 50.3588 298.997 47.0946 296.746 43.9047C293.813 39.7525 290.841 35.7193 287.843 31.7506C283.065 28.4322 278.318 24.935 273.572 21.4377L273.571 21.4375C266.092 15.9265 258.611 10.4151 251.007 5.60179C250.937 5.55715 250.866 5.51498 250.795 5.47281C250.724 5.43064 250.653 5.38848 250.583 5.34383C244.033 3.64721 234.96 1.76703 226.456 1.61325L226.387 1.61188C225.778 1.60013 223.433 1.55482 220.301 1.12212C219.493 1.0115 218.689 0.816013 217.885 0.620604L217.885 0.620583C216.886 0.377848 215.888 0.135232 214.885 0.0555309C212.561 -0.132477 210.245 0.191146 207.931 0.514522C206.398 0.728711 204.866 0.942791 203.333 1.00802C197.107 1.27004 190.878 1.28603 184.649 1.30202C182.033 1.30874 179.417 1.31545 176.802 1.3404C175.812 1.34992 174.822 1.35602 173.833 1.36212C170.699 1.38142 167.565 1.40072 164.431 1.52891C162.953 1.58957 161.475 1.77361 159.998 1.95764C156.764 2.36057 153.53 2.76345 150.285 1.87121C149.086 1.54379 147.871 1.32552 146.662 1.29079C146.434 1.28422 146.203 1.26824 145.97 1.25215C144.971 1.18321 143.944 1.11233 143.074 1.77199C141.444 3.00735 139.809 3.02856 138.16 3.04997C138.007 3.05195 137.855 3.05393 137.702 3.05686C135.399 3.10151 133.091 3.00229 130.787 2.89315C123.758 2.56077 116.732 2.53101 109.708 3.13624C108.376 3.25194 107.044 3.42048 105.711 3.58902C104.016 3.80346 102.321 4.0179 100.625 4.12345C100.339 4.14103 100.053 4.15056 99.7681 4.16007C98.3629 4.20691 96.9717 4.25329 95.6043 5.25949C94.9655 5.73078 94.1492 5.79031 93.4809 5.47281C92.8544 5.18012 92.2231 4.95192 91.5942 4.7634C91.3209 4.82169 91.0475 4.87846 90.7743 4.93519L90.7737 4.93532C90.3496 5.0234 89.9258 5.11141 89.5029 5.20492C87.2438 5.70597 84.9873 6.23182 82.7331 6.78744C81.9809 6.97596 81.2312 7.16447 80.479 7.35794C80.8038 7.27032 81.1285 7.18411 81.4536 7.0978C81.7359 7.02287 82.0185 6.94786 82.3016 6.87178C81.4943 7.03879 80.6895 7.28216 79.8854 7.52531L79.8853 7.52534C79.5669 7.62164 79.2486 7.71791 78.9302 7.80938C74.2568 9.15378 69.5981 10.6768 64.9617 12.4428C55.8984 15.9006 46.9164 20.2959 38.1614 26.0853C36.9233 26.9029 35.6969 27.7849 34.4705 28.667L34.4704 28.667C33.5985 29.2941 32.7266 29.9213 31.8504 30.5252C31.7591 30.5897 31.6802 30.6443 31.6038 30.6939L31.589 30.7088C31.2584 31.0196 30.927 31.3263 30.5955 31.6331L30.5952 31.6333C29.8263 32.345 29.0573 33.0567 28.2991 33.8193C27.7387 34.3808 27.1875 34.9793 26.6375 35.5764L26.3779 35.8582C24.3211 43.9841 22.025 51.7776 18.7228 57.8944C18.6291 61.9226 18.2937 65.936 17.6007 69.8997C15.993 79.0786 13.3889 86.7191 10.7698 94.4038C8.98942 99.6276 7.20207 104.872 5.71602 110.634C4.24123 116.353 2.76397 122.009 1.16587 127.496C1.12954 127.707 1.09337 127.917 1.05749 128.125L1.05676 128.129C0.362353 132.156 -0.226115 135.568 0.085672 141.034C0.136839 141.94 0.170949 142.159 0.256336 142.707C0.360267 143.374 0.540164 144.529 0.919249 148.004C1.35032 151.947 1.63524 155.183 1.87802 157.941C2.47556 164.729 2.81785 168.617 4.45579 173.002C4.74071 173.763 4.89742 174.092 5.05949 174.433C5.2383 174.808 5.42365 175.197 5.79494 176.196L5.79956 176.209C6.97632 179.375 8.88282 184.504 9.02813 190.871C9.17117 197.161 7.55334 202.717 5.60257 209.415C5.58389 209.478 5.56662 209.538 5.55089 209.592C5.52512 209.681 5.50351 209.756 5.48666 209.811C4.45085 212.014 3.26708 215.313 3.39779 219.158C3.44953 220.68 3.68261 221.588 4.06713 223.086L4.06717 223.086C4.26904 223.873 4.51264 224.822 4.79366 226.108C5.2795 228.33 5.60257 230.602 6.05635 234.254C7.76582 237.119 9.27613 240.31 10.6663 243.708C8.92025 248.831 7.17327 253.983 5.71602 259.634C4.24123 265.353 2.76397 271.009 1.16587 276.496C1.12929 276.709 1.09289 276.92 1.05678 277.129C0.362362 281.156 -0.226118 284.568 0.085672 290.034C0.136839 290.94 0.170949 291.159 0.256337 291.707C0.360268 292.374 0.540165 293.529 0.919249 297.004C1.35032 300.947 1.63524 304.183 1.87802 306.941C2.47556 313.729 2.81784 317.617 4.45579 322.002C4.74071 322.763 4.89742 323.092 5.05949 323.433C5.23831 323.808 5.42365 324.197 5.79494 325.196L5.79959 325.209C6.97635 328.375 8.88282 333.504 9.02813 339.871C9.17117 346.161 7.55334 351.717 5.60257 358.415C5.58385 358.479 5.56656 358.538 5.55082 358.593L5.55046 358.594C5.52488 358.682 5.50342 358.756 5.48666 358.811C4.45085 361.014 3.26708 364.313 3.39779 368.158C3.44953 369.68 3.68262 370.588 4.06713 372.086C4.26901 372.873 4.51263 373.822 4.79366 375.108C5.2795 377.33 5.60257 379.602 6.05635 383.254C7.76582 386.119 9.27613 389.31 10.6663 392.708C8.92025 397.831 7.17327 402.983 5.71602 408.634C4.24123 414.353 2.76397 420.009 1.16587 425.496C1.12929 425.709 1.09289 425.92 1.05678 426.129C0.362362 430.156 -0.226118 433.568 0.085672 439.034C0.136839 439.94 0.170949 440.159 0.256337 440.707C0.360268 441.374 0.540165 442.529 0.919249 446.004C1.35032 449.947 1.63524 453.183 1.87802 455.941C2.47556 462.729 2.81784 466.617 4.45579 471.002C4.74071 471.763 4.89742 472.092 5.05949 472.433C5.23831 472.808 5.42365 473.197 5.79494 474.196L5.79959 474.209C6.97635 477.375 8.88282 482.504 9.02813 488.871C9.17117 495.161 7.55334 500.717 5.60257 507.415C5.58385 507.479 5.56656 507.538 5.55082 507.593C5.52508 507.681 5.50349 507.756 5.48666 507.811C4.45085 510.014 3.26708 513.313 3.39779 517.158C3.44953 518.68 3.68261 519.588 4.06711 521.086C4.26899 521.873 4.51262 522.822 4.79366 524.108C5.2795 526.33 5.60257 528.602 6.05635 532.254C10.4067 539.546 13.4673 548.942 16.5402 558.512C16.772 558.953 17.0038 559.429 17.2283 559.965C18.0685 561.959 18.3348 563.41 18.5865 564.782L18.6093 564.906C18.6673 565.082 18.7253 565.26 18.7832 565.437C18.8412 565.614 18.8991 565.792 18.9571 565.968C19.4257 567.382 19.9016 568.781 20.385 570.175C21.3394 571.99 21.7858 572.427 27.2016 576.023C28.3462 576.784 29.5027 577.483 30.6591 578.182C32.5798 579.343 34.5003 580.504 36.366 581.947C36.4871 582.041 36.6243 582.045 36.7626 582.05C36.8723 582.054 36.9826 582.057 37.0862 582.106C37.7616 582.418 38.4491 582.677 39.1366 582.936C40.721 583.533 42.3061 584.131 43.7474 585.38C46.6861 587.921 49.9512 588.543 52.7317 589.074C53.176 589.159 53.6078 589.241 54.024 589.329L54.0545 589.335C57.6651 590.09 60.0359 590.586 63.2797 589.8C64.587 589.484 65.6501 589.054 66.5577 588.686C68.518 587.893 69.7534 587.393 71.1592 588.976C71.471 589.327 71.7672 589.754 72.0833 590.208C72.8349 591.29 73.6989 592.533 75.152 593.312C75.2274 593.353 75.3038 593.397 75.3826 593.442C75.8529 593.713 76.4048 594.031 77.2878 593.937C77.9073 593.872 78.5297 593.752 79.152 593.633C80.4717 593.379 81.7912 593.125 83.0833 593.391C86.2855 594.047 89.4856 593.961 92.6843 593.875C94.4521 593.828 96.2195 593.78 97.9866 593.858C99.422 593.922 100.867 594.369 102.278 594.939C103.252 595.331 104.135 595.401 105.121 594.91C106.645 594.156 108.234 593.778 109.706 595.525C110.378 596.32 111.016 595.982 111.673 595.633C111.83 595.549 111.989 595.465 112.15 595.396C112.338 595.316 112.53 595.225 112.725 595.133C113.615 594.714 114.553 594.272 115.336 594.716C117.662 596.036 119.877 595.361 122.133 594.473C122.196 594.448 122.258 594.423 122.321 594.398C124.036 593.716 125.717 593.048 127.413 595.053C127.841 595.56 128.503 595.392 129.115 595.236C129.258 595.2 129.398 595.164 129.532 595.138C131.081 594.836 132.628 594.495 134.175 594.155C137.073 593.518 139.97 592.882 142.876 592.494C146.799 591.97 150.726 591.611 154.654 591.252C157.243 591.015 159.833 590.778 162.421 590.494C163.074 590.422 163.723 590.464 164.374 590.506C165.516 590.579 166.661 590.653 167.834 590.112C168.617 589.753 169.47 590.078 170.333 590.408C170.922 590.633 171.516 590.859 172.096 590.871C175.014 590.933 177.932 590.905 180.85 590.877C182.649 590.86 184.448 590.843 186.247 590.847C187.555 590.848 188.864 590.89 190.173 590.932C192.612 591.009 195.051 591.087 197.486 590.906C202.1 590.564 204.541 590.306 207.955 589.2C208.278 589.095 208.6 588.986 208.926 588.875C210.599 588.307 212.375 587.704 214.909 587.563C215.953 587.505 216.755 587.563 217.076 587.586C217.112 587.589 217.142 587.591 217.166 587.592C219.511 587.781 226.858 587.915 228.587 587.92C232.772 587.927 235.876 587.198 238.461 586.591C241.486 585.881 243.802 585.337 246.309 586.332C247.528 586.814 248.506 587.521 249.456 588.207C249.688 588.375 249.919 588.542 250.151 588.703C255.545 588.565 260.936 588.341 266.33 588.049C266.635 587.517 266.938 586.975 267.24 586.434C269.288 582.764 271.318 579.128 273.95 579.124C275.15 579.124 275.701 579.878 276.438 580.885C277.121 581.818 277.962 582.967 279.625 583.936C282.873 585.831 286.02 585.147 288.466 583.916C291.956 580.096 295.374 576.028 298.714 571.683C298.824 571.407 298.935 571.13 299.046 570.851C300.332 567.619 301.7 564.185 304.788 560.536C308.762 555.838 312.029 554.993 314.806 554.275C317.796 553.502 320.216 552.877 322.332 547.742C322.897 546.372 323.829 538.862 325.691 523.835C327.122 512.301 327.837 506.531 328.412 499.383C328.429 499.159 328.448 498.917 328.469 498.656C328.65 496.354 328.944 492.626 329.462 487.541C329.584 486.345 329.685 485.352 329.769 484.516C330.197 480.293 330.219 480.074 330.54 477.788C331.376 471.83 331.186 463.193 329.011 457.974C328.433 456.586 327.953 456.014 327.303 455.236C326.534 454.318 325.527 453.114 323.837 449.948C322.29 447.051 321.75 445.468 321.393 444.163C320.887 442.328 319.911 438.771 320.271 434.812C320.481 432.502 321.035 431.272 321.637 429.937C322.249 428.578 322.911 427.111 323.307 424.285C323.727 421.278 323.583 418.857 323.47 416.964L323.467 416.918C323.112 410.936 322.957 402.698 323.133 394.666C323.709 390.826 324.515 384.331 325.691 374.835C327.122 363.301 327.837 357.531 328.412 350.383L328.438 350.055L328.469 349.656L328.469 349.656C328.65 347.354 328.944 343.626 329.462 338.541C329.584 337.345 329.685 336.352 329.769 335.516L329.769 335.515C330.197 331.293 330.219 331.074 330.54 328.788C331.376 322.83 331.186 314.193 329.011 308.974C328.433 307.586 327.953 307.014 327.303 306.236C326.534 305.318 325.527 304.114 323.837 300.948C322.29 298.051 321.75 296.468 321.393 295.163C320.887 293.328 319.911 289.771 320.271 285.812C320.481 283.502 321.035 282.272 321.637 280.937C322.249 279.578 322.911 278.111 323.307 275.285C323.727 272.278 323.583 269.857 323.47 267.964L323.467 267.918C323.112 261.936 322.957 253.698 323.133 245.666C323.709 241.826 324.515 235.332 325.691 225.835C327.122 214.301 327.837 208.531 328.412 201.383C328.429 201.159 328.448 200.917 328.469 200.656L328.469 200.656C328.65 198.353 328.944 194.626 329.462 189.541C329.584 188.345 329.685 187.352 329.769 186.516L329.769 186.516C330.197 182.293 330.219 182.074 330.54 179.788C331.376 173.83 331.186 165.193 329.011 159.974Z" fill="#F9AE4C"/>
<g clip-path="url(#clip0_622_68)">
<path d="M94.4597 463.14C95.4649 462.773 96.5231 461.934 97.5283 460.623C98.5336 459.365 99.1684 458.001 99.4859 456.48C99.7505 454.907 99.6447 453.596 99.0097 452.443C98.4277 451.289 97.5283 450.502 96.3114 449.873C95.0945 449.296 93.8247 448.877 92.4492 448.615C91.0736 448.405 89.5392 448.248 88.0049 448.248C84.3542 448.248 81.603 448.457 79.6454 448.929C79.1163 449.087 78.5872 449.139 78.1111 449.296C77.6878 449.454 77.2116 449.663 76.6296 449.978C76.1005 450.293 75.6244 450.712 75.254 451.184C74.8837 451.708 74.672 452.338 74.5133 453.019L72.2382 465.815L70.069 478.085C69.9632 478.767 69.9632 479.396 70.1748 479.92C70.3865 480.445 70.7039 480.812 71.1272 481.127C71.5504 481.441 71.9737 481.651 72.3441 481.808C72.7673 481.966 73.2435 482.018 73.7197 482.175C75.5186 482.647 78.164 482.857 81.8146 482.857C81.9205 482.857 82.0792 482.857 82.185 482.857C82.3437 482.857 82.4495 482.857 82.6083 482.857C84.5659 482.857 86.3647 482.647 88.1107 482.228C89.8566 481.808 91.4968 481.127 93.0311 480.287C94.5655 479.448 95.8353 478.295 96.8934 476.774C98.0045 475.306 98.6923 473.628 99.0097 471.688C99.3272 470.01 99.1155 468.331 98.3219 466.758C97.5283 465.185 96.2585 464.136 94.4067 463.402C94.3009 463.402 94.3009 463.297 94.4597 463.14ZM89.1159 472.579C88.8514 474.1 88.2694 475.253 87.4229 476.145C86.5234 477.036 85.4653 477.456 84.2484 477.456C81.603 477.508 80.2274 477.718 80.3331 477.141L81.1797 472.422L82.0792 467.073C84.3542 466.653 86.1531 466.916 87.5816 467.964C89.0101 469.013 89.4863 470.534 89.1159 472.579ZM89.8566 457.215C89.645 458.526 88.9572 459.679 87.8461 460.571C86.6822 461.515 85.1479 461.986 83.0844 461.986L84.6187 453.387C86.1531 453.019 87.4758 453.124 88.6398 453.649C89.7508 454.226 90.174 455.379 89.8566 457.215Z" fill="white"/>
<path d="M120.808 479.344C117.951 481.756 114.67 482.962 110.967 482.962C107.263 482.962 104.406 481.756 102.396 479.344C100.385 476.931 99.6974 473.995 100.332 470.534C100.914 467.073 102.66 464.136 105.517 461.724C108.427 459.312 111.708 458.106 115.358 458.106C119.062 458.106 121.919 459.312 123.929 461.724C125.94 464.136 126.68 467.073 126.099 470.534C125.464 474.047 123.718 476.931 120.808 479.344ZM109.38 475.673C109.803 477.089 110.596 477.77 111.866 477.77C114.406 477.77 116.099 475.358 116.998 470.534C117.316 468.384 117.316 466.653 116.893 465.29C116.469 463.979 115.676 463.297 114.406 463.297C113.136 463.297 112.025 463.979 111.178 465.342C110.279 466.706 109.644 468.436 109.327 470.534C109.009 472.579 109.009 474.309 109.38 475.673Z" fill="white"/>
<path d="M149.643 480.025C149.748 480.917 149.907 481.598 150.172 481.913C150.436 482.28 150.701 482.542 151.018 482.752C151.336 482.909 151.547 483.067 151.706 483.224C151.865 483.381 151.865 483.486 151.759 483.748C151.336 484.535 150.542 485.217 149.325 485.898C148.108 486.633 146.839 486.947 145.622 486.947C143.664 486.947 142.236 486.318 141.177 485.007C140.066 483.801 139.749 482.07 140.119 479.973L142.341 466.916C142.606 465.343 142.288 464.451 141.442 464.294C140.542 464.136 139.696 464.608 138.796 465.762C138.003 466.706 137.527 467.964 137.209 469.38C136.257 475.358 135.728 478.4 135.675 478.609C135.41 480.078 134.723 481.127 133.559 481.756C132.395 482.437 131.231 482.752 130.12 482.752H130.067C128.85 482.752 127.845 482.437 126.945 481.756C126.046 481.127 125.728 480.078 125.993 478.609C125.993 478.557 126.151 477.98 126.31 476.931C126.522 475.883 126.786 474.677 127.051 473.418C127.315 472.159 127.474 471.216 127.58 470.691C127.686 470.167 127.897 468.541 128.374 465.919L129.061 461.986C129.326 460.518 129.961 459.469 131.072 458.84C132.13 458.211 133.241 457.896 134.405 457.844H134.458C135.622 457.896 136.574 458.211 137.474 458.84C138.373 459.469 138.691 460.518 138.373 461.986C138.373 462.039 138.32 462.144 138.267 462.406C138.215 462.616 138.162 462.878 138.109 463.035H138.32C139.59 461.305 140.966 460.046 142.5 459.155C144.087 458.316 145.516 457.949 146.891 457.949C148.637 457.949 150.013 458.63 151.018 460.046C151.971 461.462 152.235 463.245 151.918 465.5C151.812 466.024 151.653 467.021 151.389 468.489C151.124 470.01 150.172 475.568 149.907 476.827C149.643 478.033 149.537 479.186 149.643 480.025Z" fill="white"/>
<path d="M180.118 466.234C179.694 468.908 179.218 471.635 178.795 474.362C178.319 477.089 178.107 478.557 178.054 478.714C177.842 480.182 177.154 481.231 176.044 481.861C174.88 482.542 173.768 482.857 172.658 482.857H172.605C171.494 482.857 170.488 482.542 169.589 481.861C168.689 481.231 168.372 480.182 168.636 478.714L168.742 478.347H168.583C166.203 481.336 163.61 482.857 160.859 482.857C159.007 482.857 157.473 482.228 156.362 480.969C155.145 479.711 154.404 478.19 154.034 476.302C153.664 474.414 153.664 472.474 154.034 470.377C154.616 467.02 155.991 464.136 158.108 461.672C160.171 459.26 162.658 458.001 165.515 458.001C168.372 458.001 170.329 459.364 171.441 462.091H171.6C171.863 460.675 172.552 459.627 173.609 458.945C174.721 458.316 175.832 458.001 176.943 458.001H176.996C178.107 458.001 179.112 458.316 179.959 458.945C180.858 459.627 181.175 460.675 180.858 462.144C180.858 462.196 180.594 463.507 180.118 466.234ZM168.689 474.729C169.536 473.575 170.118 472.107 170.382 470.324C170.7 468.541 170.647 467.073 170.276 465.919C169.854 464.713 169.113 464.136 168.002 464.136C166.89 464.136 165.938 464.713 165.144 465.867C164.298 467.073 163.716 468.541 163.398 470.324C163.134 472.107 163.187 473.575 163.557 474.729C163.981 475.935 164.774 476.512 165.885 476.512C166.943 476.512 167.896 475.935 168.689 474.729Z" fill="white"/>
<path d="M207.471 470.062C206.624 475.516 206.255 478.347 206.149 478.662C205.937 480.13 205.196 481.179 204.085 481.808C202.921 482.49 201.757 482.805 200.594 482.805H200.541C199.376 482.805 198.318 482.49 197.471 481.808C196.572 481.179 196.255 480.13 196.466 478.662C196.519 478.609 196.731 477.351 197.26 474.886C197.789 472.422 198.054 470.901 198.159 470.377C198.265 469.905 198.477 468.436 198.901 465.972C199.27 463.455 199.429 462.196 199.482 462.039C199.694 460.623 200.382 459.574 201.545 458.893C202.71 458.263 203.874 457.949 205.037 457.949H205.09C206.255 457.949 207.26 458.263 208.159 458.893C209.059 459.574 209.376 460.623 209.164 462.039L207.471 470.062Z" fill="white"/>
<path d="M253.978 481.284C251.755 482.385 249.215 482.805 246.676 482.805C243.237 482.805 240.433 481.546 238.475 479.134C236.464 476.722 235.777 473.733 236.359 470.324C236.994 466.916 238.74 463.927 241.597 461.515C244.454 459.103 247.787 457.896 251.702 457.896C255.141 457.896 257.681 458.736 259.268 460.414C260.856 462.092 261.49 463.927 261.173 465.867C260.856 467.545 260.115 468.961 259.004 470.115C257.839 471.268 256.517 472.055 255.036 472.422C253.501 472.841 251.914 473.051 250.221 473.209C248.475 473.366 246.888 473.209 245.459 472.894C245.829 475.149 247.364 476.407 249.904 476.722C252.549 477.037 255.353 476.407 258.422 474.782C258.633 474.624 258.898 474.624 259.004 474.729C259.48 475.201 258.792 476.407 258.527 476.879C258.051 477.718 257.47 478.505 256.781 479.187C255.988 480.13 254.983 480.76 253.978 481.284ZM245.776 468.909C247.734 469.066 249.321 468.856 250.486 468.174C251.65 467.545 252.338 466.601 252.549 465.29C252.654 464.661 252.548 464.084 252.126 463.717C251.755 463.298 251.226 463.088 250.486 463.14C250.486 463.193 250.486 463.193 250.433 463.193H250.274C249.904 463.245 249.533 463.35 249.11 463.612C247.628 464.399 246.465 466.182 245.776 468.909Z" fill="white"/>
<path d="M233.925 475.935C233.978 476.827 234.084 477.508 234.296 477.823C234.455 478.19 234.666 478.452 234.877 478.662C235.089 478.819 235.301 478.977 235.407 479.082C235.513 479.239 235.513 479.344 235.354 479.606C234.983 480.393 234.137 481.127 232.921 481.808C231.703 482.543 230.486 482.857 229.217 482.857C227.629 482.857 226.412 482.385 225.46 481.494C224.507 480.602 223.979 479.396 223.926 477.823H223.82C221.333 481.179 218.634 482.91 215.672 482.91C212.974 482.91 211.016 481.651 209.799 479.134C208.582 476.617 208.318 473.733 208.9 470.482C209.482 467.126 210.858 464.189 212.868 461.777C214.932 459.365 217.418 458.106 220.275 458.106C223.238 458.106 225.196 459.47 226.306 462.249H226.412C226.571 461.515 226.889 459.732 227.312 456.9C227.788 454.068 227.999 452.653 228.052 452.6C228.264 451.132 229.005 450.083 230.169 449.401C231.332 448.772 232.497 448.458 233.714 448.458H233.767C234.983 448.458 236.042 448.772 236.941 449.401C237.894 450.083 238.211 451.132 238 452.6C237.947 452.705 237.788 453.596 237.47 455.379C237.1 457.162 236.729 459.05 236.307 461.148C235.936 463.193 235.671 464.609 235.513 465.395L234.243 472.737C234.031 473.943 233.872 475.096 233.925 475.935ZM223.609 474.729C224.402 473.576 224.984 472.107 225.302 470.324C225.619 468.541 225.566 467.021 225.143 465.867C224.719 464.713 223.979 464.137 222.92 464.137C221.81 464.137 220.857 464.713 220.011 465.867C219.164 467.073 218.634 468.541 218.318 470.324C218 472.107 218.053 473.576 218.477 474.729C218.846 475.935 219.64 476.512 220.751 476.512C221.81 476.512 222.762 475.883 223.609 474.729Z" fill="white"/>
<path d="M194.984 456.061C195.09 455.904 195.143 455.694 195.355 455.274C195.514 454.855 195.62 454.435 195.725 454.016C195.99 452.443 195.567 451.656 194.403 451.656C193.556 451.656 192.922 451.918 192.498 452.548C192.075 453.124 191.863 453.911 191.863 454.855C191.863 455.746 191.916 456.533 192.022 457.162C192.128 457.791 192.234 458.421 192.392 458.998C195.355 458.945 196.889 458.945 197.048 458.945C197.736 458.945 198.159 459.155 198.371 459.627C198.529 460.151 198.582 460.623 198.529 461.148C198.424 461.672 198.212 462.196 197.842 462.668C197.471 463.14 196.942 463.35 196.255 463.35L191.81 463.297C190.17 473.208 189.324 478.347 189.271 478.662C189.006 480.078 188.318 481.127 187.207 481.756C186.043 482.438 184.879 482.752 183.768 482.805H183.716C182.551 482.752 181.546 482.438 180.699 481.756C179.8 481.127 179.43 480.078 179.747 478.662L183.451 458.998C183.663 457.057 184.244 455.327 185.038 453.806C185.832 452.338 186.784 451.184 187.948 450.398C189.112 449.611 190.276 449.034 191.598 448.615C192.869 448.248 194.191 448.09 195.567 448.09C198.212 448.09 200.223 448.615 201.546 449.663C202.868 450.712 203.45 451.971 203.133 453.439C202.974 454.593 202.392 455.537 201.493 456.323C200.54 457.11 199.429 457.529 198.212 457.529C197.471 457.529 196.783 457.424 196.149 457.215C195.461 457.057 195.09 456.848 195.037 456.69C194.879 456.323 194.931 456.166 194.984 456.061Z" fill="white"/>
<path d="M216.942 451.184C216.73 450.24 215.831 449.506 214.878 449.191C214.032 448.929 213.079 448.982 212.233 449.139C211.651 449.244 211.439 449.191 211.069 448.667C210.699 448.143 210.275 447.723 209.746 447.409C209.112 447.042 208.318 446.884 207.63 447.094C205.884 447.566 205.408 449.611 205.726 451.184C206.042 452.862 207.101 454.488 208.635 455.379C211.174 456.847 214.984 455.589 216.519 453.229C216.836 452.705 217.047 452.128 216.994 451.499C216.994 451.394 216.994 451.289 216.942 451.184Z" fill="white"/>
</g>
<g clip-path="url(#clip1_622_68)">
<path d="M81.3608 294.681C81.6748 294.681 81.9887 294.681 82.2579 294.637C81.944 294.681 81.6748 294.681 81.3608 294.681Z" fill="white"/>
<path d="M82.3029 294.371C76.7409 293.839 72.9731 288.872 72.9731 283.195C72.9731 280.047 74.1394 277.164 76.0681 274.991C74.1394 277.164 72.9731 280.047 72.9731 283.195C72.9731 288.872 76.7409 293.839 82.3029 294.371Z" fill="white"/>
<path d="M89.4346 286.965C90.4663 278.273 86.7433 276.455 84.2764 276.455C86.7882 276.455 90.4663 278.273 89.4346 286.965L86.8331 308.384H91.3185C90.6008 308.695 89.7486 309.005 89.2552 309.182C89.7486 309.049 90.556 308.695 91.3185 308.384H86.8331L89.4346 286.965Z" fill="white"/>
<path d="M82.3026 294.371C76.7407 293.839 72.9729 288.872 72.9729 283.195C72.9729 280.047 74.1391 277.164 76.0679 274.991C73.4214 277.12 71.6721 280.401 71.6721 284.127C71.6721 290.069 75.9333 294.725 81.3607 294.725C81.6747 294.725 81.9887 294.725 82.2578 294.681L82.3026 294.371Z" fill="white"/>
<path d="M86.8329 308.384L89.4344 286.965C90.4661 278.273 86.7432 276.455 84.2762 276.455C83.7379 276.455 83.1997 276.588 82.7063 276.721C83.693 276.809 85.2181 277.164 86.4292 278.583C88.044 280.49 88.6271 283.639 88.0889 287.94L85.263 309.094H89.2101C89.7036 308.961 90.5109 308.606 91.2735 308.295H86.8329V308.384Z" fill="white"/>
<path d="M71.6721 284.127C71.6721 280.401 73.3766 277.12 76.0679 274.991C73.3766 277.076 71.6721 280.401 71.6721 284.127C71.6721 290.069 75.9333 294.725 81.3607 294.725C75.9333 294.681 71.6721 290.025 71.6721 284.127Z" fill="white"/>
<path d="M86.4744 278.628C85.2633 277.209 83.7382 276.854 82.7515 276.765C83.2448 276.588 83.7831 276.499 84.3213 276.499C83.7831 276.499 83.2448 276.632 82.7515 276.765C83.7382 276.809 85.2633 277.164 86.4744 278.628C88.0891 280.535 88.6723 283.683 88.1339 287.985L85.3082 309.138L88.1339 287.985C88.6723 283.683 88.0891 280.535 86.4744 278.628Z" fill="white"/>
<path d="M124.421 290.912C126.036 290.912 126.664 291.843 126.664 292.863C126.664 293.705 126.215 294.637 125.229 295.435C125.498 294.947 125.632 294.415 125.632 293.927C125.632 292.774 124.87 291.399 122.807 291.399C122.672 291.399 122.537 291.399 122.403 291.444C123.031 291.089 123.704 290.912 124.421 290.912Z" fill="white"/>
<path d="M120.922 309.581C114.553 309.581 110.561 305.989 110.561 300.224C110.561 297.741 111.548 294.991 113.252 292.552C112.176 294.592 111.593 296.898 111.593 299.16C111.593 305.324 115.854 309.094 122.537 309.094C123.748 309.094 124.915 308.96 125.991 308.694C124.376 309.271 122.717 309.581 120.922 309.581Z" fill="white"/>
<path d="M132.944 300.402C133.168 300.091 133.437 299.781 133.661 299.426L133.706 299.338V299.204C134.155 296.499 135.366 294.016 136.98 291.932C135.859 293.794 135.097 295.923 134.738 298.051C134.2 298.938 133.616 299.737 132.944 300.402Z" fill="white"/>
<path d="M140.345 309.448C136.981 309.448 134.603 307.541 133.796 304.304C134.155 303.949 134.469 303.595 134.783 303.24C135.635 306.965 138.326 309.005 141.914 309.005C142.453 309.005 142.946 308.96 143.44 308.872C142.498 309.226 141.466 309.448 140.345 309.448Z" fill="white"/>
<path d="M139.492 323.817C135.949 323.817 133.751 321.998 133.751 319.116C133.751 317.564 134.424 316.411 135.455 315.479C135.052 316.233 134.783 317.076 134.783 318.052C134.783 321.156 137.115 323.329 141.107 323.329C141.735 323.329 142.408 323.24 143.126 323.107C141.87 323.595 140.614 323.817 139.492 323.817Z" fill="white"/>
<path d="M142.408 319.16C143.529 317.741 144.516 315.834 145.144 313.927C145.413 313.883 145.637 313.794 145.907 313.75C145.054 316.411 143.798 318.273 142.408 319.16Z" fill="white"/>
<path d="M146.983 310.247C146.759 310.291 146.49 310.38 146.22 310.424L146.938 307.985L147.118 307.364C147.432 307.187 147.701 306.965 147.97 306.743L146.983 310.247Z" fill="white"/>
<path d="M148.374 301.821C149.495 300.18 150.168 298.14 150.168 296.278C150.168 293.572 148.643 291.843 146.265 291.843C146.176 291.843 146.086 291.843 145.996 291.887C146.624 291.577 147.252 291.399 147.88 291.399C149.674 291.399 151.199 292.641 151.199 295.258C151.199 297.564 150.033 300.18 148.374 301.821Z" fill="white"/>
<path d="M153.352 289.448C153.218 289.138 153.083 288.872 152.949 288.605L153.397 287.142L154.25 286.61L153.352 289.448Z" fill="white"/>
<path d="M157.883 304.659C158.511 303.905 159.139 303.107 159.722 302.175C161.336 299.736 162.638 296.987 163.804 293.705L166.091 287.186L166.944 286.61L164.88 293.306C163.983 296.144 162.772 298.85 160.978 301.244C160.081 302.486 159.049 303.595 157.883 304.659Z" fill="white"/>
<path d="M166.36 309.448C162.682 309.448 161.606 307.231 161.381 305.324C161.74 304.969 162.054 304.57 162.368 304.171C162.682 307.009 164.431 308.96 167.974 308.96C169.051 308.96 170.083 308.739 171.07 308.384C169.679 309.093 168.11 309.448 166.36 309.448Z" fill="white"/>
<path d="M195.426 287.186L196.278 286.654L195.426 289.404C195.292 289.138 195.156 288.872 195.022 288.606L195.426 287.186Z" fill="white"/>
<path d="M175.735 299.559L175.78 299.426C176.542 294.592 178.919 289.537 183.404 287.187C179.951 289.537 177.484 293.838 176.811 298.273C176.453 298.938 176.049 299.559 175.689 300.136C175.689 299.914 175.735 299.692 175.735 299.559Z" fill="white"/>
<path d="M182.553 309.449C179.054 309.449 176.811 307.275 176.093 305.103L176.004 304.792C176.318 304.393 176.677 303.994 176.991 303.595C177.888 307.054 180.579 308.961 184.212 308.961C184.706 308.961 185.2 308.916 185.692 308.828C184.661 309.227 183.585 309.449 182.553 309.449Z" fill="white"/>
<path d="M192.197 296.189C192.197 293.572 190.672 291.843 188.249 291.843C188.16 291.843 188.115 291.843 188.025 291.843C188.608 291.532 189.237 291.355 189.864 291.355C191.838 291.355 193.228 292.73 193.228 295.124C193.228 297.519 192.062 300.136 190.402 301.776C191.523 300.136 192.197 298.051 192.197 296.189Z" fill="white"/>
<path d="M194.753 309.449C192.466 309.449 191.075 308.384 190.627 306.344C190.985 306.034 191.344 305.723 191.659 305.369C192.062 307.409 193.407 309.005 196.367 309.005C196.771 309.005 197.22 308.961 197.624 308.872C196.682 309.227 195.695 309.449 194.753 309.449Z" fill="white"/>
<path d="M206.729 309.271L201.392 309.227L202.064 307.054L202.199 306.655C202.513 306.389 202.827 306.122 203.141 305.856L202.289 308.562H207.851L206.729 309.271Z" fill="white"/>
<path d="M206.953 293.44C206.146 296.056 205.025 298.539 203.454 300.801C202.647 301.998 201.84 302.93 201.077 303.551C201.526 302.93 202.019 302.22 202.558 301.333C203.724 299.382 204.756 297.165 205.608 294.726L208.299 287.142L209.196 286.521L206.953 293.44Z" fill="white"/>
<path d="M221.531 309.448C221.352 309.448 221.217 309.448 221.038 309.404C219.648 309.271 218.571 308.694 217.853 307.586C216.777 306.033 216.552 303.506 217.315 301.2L218.75 296.277C219.557 293.616 219.648 292.419 219.109 291.71C218.795 291.31 218.301 291.089 217.629 291.089C217.27 291.089 216.866 291.133 216.373 291.222C216.238 291.222 216.149 291.31 216.059 291.31C216.687 290.956 217.36 290.734 218.122 290.734C220.41 290.734 220.679 292.685 219.961 294.991L218.392 299.958C217.226 303.772 217.36 308.916 222.653 308.916C223.281 308.916 223.864 308.827 224.492 308.694C223.46 309.226 222.473 309.448 221.531 309.448Z" fill="white"/>
<path d="M249.88 287.186L250.731 286.654L249.88 289.404C249.745 289.138 249.61 288.872 249.476 288.606L249.88 287.186Z" fill="white"/>
<path d="M230.189 299.559L230.233 299.426C230.726 296.278 232.207 293.085 234.36 290.69C232.79 292.907 231.713 295.524 231.264 298.273C230.906 298.938 230.502 299.559 230.143 300.136C230.143 299.87 230.189 299.648 230.189 299.559Z" fill="white"/>
<path d="M237.006 309.448C233.686 309.448 231.309 307.719 230.457 304.748C230.772 304.393 231.085 303.994 231.4 303.55C232.296 307.054 234.988 308.961 238.621 308.961C239.115 308.961 239.607 308.916 240.101 308.828C239.07 309.227 238.038 309.448 237.006 309.448Z" fill="white"/>
<path d="M246.649 296.189C246.649 293.572 245.125 291.843 242.703 291.843C242.613 291.843 242.568 291.843 242.478 291.843C243.061 291.532 243.689 291.355 244.318 291.355C246.291 291.355 247.681 292.73 247.681 295.124C247.681 297.519 246.515 300.136 244.855 301.776C245.977 300.136 246.649 298.051 246.649 296.189Z" fill="white"/>
<path d="M252.078 308.828C251.135 309.227 250.148 309.404 249.207 309.404C246.919 309.404 245.529 308.34 245.08 306.3C245.438 305.989 245.798 305.679 246.111 305.324C246.515 307.364 247.86 308.961 250.821 308.961C251.225 308.961 251.674 308.916 252.078 308.828Z" fill="white"/>
<path d="M169.231 277.208C168.827 277.829 168.603 278.583 168.603 279.381C168.603 281.377 170.083 282.929 172.056 283.151C171.653 283.328 171.16 283.417 170.666 283.417C168.827 283.417 167.392 282.042 167.392 280.18C167.437 278.849 168.154 277.741 169.231 277.208Z" fill="white"/>
<path d="M170.666 284.038C173.224 284.126 176.318 282.175 176.318 279.381C176.318 277.696 175.152 276.1 173.492 275.656C170.308 274.858 166.629 277.075 166.629 280.091C166.629 282.22 168.289 283.905 170.666 284.038ZM169.231 277.208C168.827 277.829 168.603 278.583 168.603 279.381C168.603 281.377 170.083 282.929 172.057 283.151C171.653 283.328 171.16 283.417 170.666 283.417C168.827 283.417 167.392 282.042 167.392 280.18C167.437 278.849 168.155 277.741 169.231 277.208Z" fill="white"/>
<path d="M89.4348 286.965C90.4664 278.273 86.7434 276.455 84.2765 276.455C83.7382 276.455 83.2 276.588 82.7065 276.721C83.6934 276.809 85.2185 277.164 86.4295 278.583C88.0442 280.49 88.6273 283.639 88.0891 287.94L85.2632 309.094H89.2105C89.7038 308.961 90.5113 308.606 91.2738 308.295H86.7883L89.4348 286.965Z" fill="white"/>
<path d="M72.9729 283.195C72.9729 280.047 74.1391 277.164 76.0679 274.991C73.4214 277.12 71.6721 280.401 71.6721 284.127C71.6721 290.069 75.9333 294.725 81.3607 294.725C81.4504 294.725 81.4953 294.725 81.585 294.725L81.6298 294.282C76.4267 293.395 72.9729 288.65 72.9729 283.195Z" fill="white"/>
<path d="M106.524 276.055C106.255 279.958 104.954 283.55 103.25 287.053C101.635 290.335 99.4821 293.262 96.9254 295.79C96.3424 296.411 95.7144 296.987 95.0864 297.519L96.2975 289.315C97.6879 278.273 93.8304 271 84.7698 271C77.8622 271 70.9995 276.721 70.9995 284.127C70.9995 290.158 75.2158 295.391 81.316 295.391C81.5852 295.391 81.8543 295.391 82.1682 295.346L83.1102 286.876C81.0021 286.477 79.2079 284.437 79.2079 281.732C79.2079 280.047 80.0153 278.539 81.2712 277.563C81.63 277.475 81.944 277.43 82.3477 277.43C84.8147 277.43 88.5376 279.204 87.5059 287.94L84.5904 309.848H89.3451C90.1075 309.626 92.126 308.828 92.8436 308.428C96.746 306.522 100.2 303.772 103.205 300.623C106.3 297.431 108.946 293.794 111.144 289.892C113.252 286.211 115.136 282.308 115.809 278.007C115.899 277.386 115.989 276.765 116.033 276.144C116.033 276.055 106.524 276.055 106.524 276.055ZM81.63 294.282L81.5852 294.725C81.4955 294.725 81.4506 294.725 81.3609 294.725C75.9335 294.725 71.6723 290.069 71.6723 284.127C71.6723 280.401 73.3768 277.12 76.0681 274.991C74.1393 277.164 72.9731 280.047 72.9731 283.195C72.9731 288.65 76.4269 293.395 81.63 294.282ZM89.2553 309.138H85.3081L88.1339 287.985C88.6273 283.683 88.0891 280.534 86.4743 278.628C85.2633 277.209 83.7382 276.854 82.7514 276.765C83.2448 276.588 83.7831 276.499 84.3213 276.499C86.7883 276.499 90.5112 278.273 89.4796 287.009L86.878 308.428H91.3635C90.601 308.694 89.7487 309.005 89.2553 309.138ZM104.82 287.32C103.25 290.601 101.142 293.617 98.5402 296.322C97.9571 296.943 97.3291 297.519 96.7012 298.096C96.7012 298.14 95.8489 298.983 94.8173 299.781L94.9967 298.362C95.6246 297.83 96.0732 297.342 96.0732 297.342C96.7012 296.765 97.3291 296.144 97.9122 295.568C100.424 292.952 102.487 290.025 104.012 286.832C105.762 283.151 106.749 279.958 107.107 276.765H108.004C107.646 280.135 106.659 283.461 104.82 287.32Z" fill="white"/>
<path d="M107.107 276.765C106.748 279.958 105.762 283.195 104.012 286.832C102.487 290.025 100.424 292.952 97.9121 295.568C97.329 296.145 96.7458 296.765 96.073 297.342C96.073 297.342 95.6245 297.83 94.9966 298.362L94.8171 299.781C95.8488 298.983 96.6562 298.14 96.701 298.096C97.329 297.519 97.957 296.898 98.5401 296.322C101.142 293.617 103.25 290.601 104.82 287.32C106.659 283.506 107.646 280.136 108.004 276.765H107.107Z" fill="white"/>
<path d="M257.998 300.934C257.37 301.954 255.755 304.171 253.781 303.905C252.346 303.727 252.257 302.974 252.75 301.466L257.594 285.767H251.001L249.386 286.831L249.027 287.985C247.771 286.299 245.887 285.368 243.644 285.368C240.415 285.368 237.544 287.142 235.167 289.137C232.835 291.089 231.175 293.927 230.278 296.809C230.144 297.209 230.053 297.652 229.919 298.096C229.829 298.45 229.829 299.071 229.65 299.382C229.605 299.47 229.515 300.313 229.47 301.155C227.99 303.195 226.6 304.437 225.389 304.437C224.043 304.437 224.088 303.018 224.581 301.466C225.613 298.362 227.093 294.903 227.183 291.577C227.228 289.359 226.465 287.009 224.312 285.945C223.46 285.501 222.474 285.368 221.531 285.368C219.692 285.368 218.077 286.033 216.553 287.275C216.104 287.497 215.655 287.807 215.251 288.117L215.97 285.812H209.241L207.761 286.876L205.025 294.636C204.218 296.898 203.275 299.071 202.019 301.155C201.168 302.575 200.404 303.683 199.642 304.437C199.463 304.481 199.329 304.481 199.149 304.481C197.758 304.481 197.848 303.062 198.342 301.51L203.186 285.812H196.592L194.977 286.876L194.619 288.029C194.664 287.851 193.766 287.098 193.632 286.965C193.228 286.654 192.825 286.344 192.376 286.122C191.434 285.634 190.402 285.457 189.326 285.412C182.733 285.191 178.023 289.847 176.093 295.745C175.69 296.942 175.421 298.184 175.197 299.426C175.152 299.515 175.062 300.446 174.972 301.244C173.492 303.24 172.057 304.437 170.532 304.437C168.782 304.437 168.514 302.929 169.097 300.978L173.806 285.767H167.212L165.598 286.831L163.266 293.572C162.368 296.189 161.202 298.761 159.767 301.111C158.376 303.328 156.761 305.413 154.563 307.054L161.202 285.723H154.608L152.994 286.787L152.635 287.985C151.424 286.255 149.54 285.324 147.118 285.324C143.888 285.324 141.017 287.142 138.775 289.271C136.532 291.399 134.738 294.104 133.751 297.031C133.572 297.608 133.527 298.628 133.213 299.115C132.136 300.801 130.835 302.175 129.49 303.24C127.92 304.082 126.305 304.57 124.646 304.57C121.909 304.57 119.981 303.417 119.128 301.333C124.376 301.111 132.674 297.962 132.674 291.71C132.674 288.251 129.535 285.324 124.556 285.324C121.999 285.324 119.756 286.078 117.873 287.319C113.297 290.157 110.023 295.479 110.023 300.18C110.023 306.344 114.284 310.113 120.967 310.113C125.588 310.113 130.118 307.807 133.392 304.703C134.334 308.118 136.981 309.98 140.389 309.98C142.632 309.98 144.695 309.182 146.445 307.807L145.637 310.601C145.593 310.734 144.023 311 143.843 311.045C143.17 311.222 142.498 311.399 141.87 311.577C140.569 311.976 139.313 312.464 138.102 313.085C135.725 314.326 133.213 316.233 133.213 319.116C133.213 322.22 135.545 324.393 139.537 324.393C145.458 324.393 149.988 319.604 152.141 314.592C152.59 313.572 152.904 312.464 153.263 311.399L153.352 311.133C153.308 311.222 153.308 311.311 153.263 311.399C154.16 310.912 155.012 310.335 155.819 309.803C157.748 308.65 159.453 307.32 160.933 305.812C161.427 308.295 163.13 309.98 166.405 309.98C169.949 309.98 173.088 308.561 175.555 305.235C176.363 307.719 178.919 309.98 182.552 309.98C185.289 309.98 188.07 308.384 190.133 306.699C190.627 308.561 191.972 309.98 194.753 309.98C196.771 309.98 198.61 309.182 200.315 307.852C200.674 307.674 201.032 307.453 201.392 307.186L200.584 309.759L206.908 309.803L208.883 308.517L213.278 294.282C213.412 293.883 213.592 293.528 213.861 293.217C213.951 293.129 213.995 293.04 214.085 292.951C214.355 292.685 214.623 292.464 214.983 292.286C215.476 292.064 215.925 291.887 216.462 291.798C216.911 291.71 217.315 291.665 217.629 291.665C219.109 291.665 219.199 292.685 218.212 296.056L216.777 300.978C215.61 304.792 216.642 309.537 221.038 309.936C221.217 309.936 221.397 309.98 221.576 309.98C224.806 309.98 227.946 307.364 230.008 305.147C229.874 305.28 230.636 306.61 230.772 306.787C231.085 307.275 231.444 307.763 231.892 308.162C232.79 309.005 233.911 309.537 235.077 309.803C236.782 310.158 238.531 309.98 240.146 309.404C240.953 309.093 241.716 308.739 242.433 308.251C242.658 308.073 244.631 306.876 244.587 306.743C245.08 308.606 246.426 310.025 249.207 310.025C251.314 310.025 253.289 308.872 254.948 307.674C256.159 306.743 257.28 305.634 258.133 304.348C258.536 303.772 259.164 302.486 259.209 302.441L257.998 300.934ZM124.421 290.911C126.036 290.911 126.664 291.843 126.664 292.863C126.664 293.705 126.215 294.636 125.229 295.435C125.498 294.947 125.632 294.415 125.632 293.927C125.632 292.774 124.87 291.399 122.807 291.399C122.672 291.399 122.537 291.399 122.403 291.444C123.031 291.089 123.704 290.911 124.421 290.911ZM121.147 292.286C121.685 292.064 122.223 291.931 122.807 291.931C124.421 291.931 125.049 292.863 125.049 293.883C125.049 294.681 124.646 295.523 123.838 296.277C122.582 296.854 120.878 297.297 118.635 297.297C118.994 295.302 119.891 293.483 121.147 292.286ZM120.923 309.581C114.553 309.581 110.561 305.989 110.561 300.224C110.561 297.741 111.548 294.991 113.253 292.552C112.176 294.592 111.593 296.898 111.593 299.16C111.593 305.324 115.854 309.093 122.537 309.093C123.748 309.093 124.915 308.96 125.991 308.694C124.421 309.271 122.717 309.581 120.923 309.581ZM132.944 300.402C133.168 300.091 133.437 299.781 133.661 299.426L133.706 299.337V299.204C134.155 296.499 135.366 294.016 136.981 291.931C135.859 293.794 135.097 295.923 134.738 298.051C134.2 298.938 133.616 299.736 132.944 300.402ZM140.345 309.448C136.981 309.448 134.603 307.541 133.796 304.304C134.155 303.949 134.469 303.594 134.783 303.24C135.635 306.965 138.326 309.005 141.915 309.005C142.453 309.005 142.946 308.96 143.44 308.872C142.498 309.226 141.466 309.448 140.345 309.448ZM144.785 303.55C142.901 303.55 141.556 302.175 141.556 299.736C141.556 297.209 142.901 294.415 144.695 292.774C145.189 292.552 145.727 292.419 146.265 292.419C148.06 292.419 149.585 293.661 149.585 296.277C149.585 298.761 148.239 301.555 146.445 303.151C145.907 303.417 145.323 303.55 144.785 303.55ZM144.471 314.06C143.664 316.322 142.408 318.406 141.107 319.692C140.883 319.737 140.659 319.781 140.479 319.781C139.044 319.781 138.326 318.85 138.326 317.83C138.326 315.701 141.376 314.814 144.471 314.06ZM139.492 323.816C135.949 323.816 133.751 321.998 133.751 319.116C133.751 317.564 134.424 316.411 135.455 315.479C135.052 316.233 134.783 317.076 134.783 318.051C134.783 321.156 137.115 323.329 141.107 323.329C141.735 323.329 142.408 323.24 143.126 323.107C141.87 323.595 140.614 323.816 139.492 323.816ZM142.408 319.16C143.529 317.741 144.516 315.834 145.144 313.927C145.413 313.883 145.637 313.794 145.907 313.75C145.054 316.411 143.798 318.273 142.408 319.16ZM146.983 310.246C146.759 310.291 146.49 310.379 146.221 310.424L146.938 307.985L147.118 307.364C147.432 307.186 147.701 306.965 147.97 306.743L146.983 310.246ZM148.374 301.821C149.495 300.18 150.168 298.14 150.168 296.277C150.168 293.572 148.643 291.843 146.265 291.843C146.176 291.843 146.086 291.843 145.996 291.887C146.624 291.577 147.252 291.399 147.88 291.399C149.674 291.399 151.199 292.641 151.199 295.257C151.199 297.563 150.033 300.18 148.374 301.821ZM153.352 289.448C153.218 289.137 153.083 288.871 152.949 288.605L153.397 287.142L154.249 286.61L153.352 289.448ZM157.883 304.659C158.511 303.905 159.139 303.107 159.722 302.175C161.336 299.736 162.638 296.987 163.804 293.705L166.091 287.186L166.943 286.61L164.88 293.306C163.983 296.144 162.772 298.849 160.978 301.244C160.081 302.486 159.049 303.594 157.883 304.659ZM166.36 309.448C162.682 309.448 161.606 307.231 161.382 305.324C161.74 304.969 162.054 304.57 162.368 304.171C162.682 307.009 164.432 308.96 167.975 308.96C169.051 308.96 170.083 308.739 171.07 308.384C169.68 309.093 168.11 309.448 166.36 309.448ZM195.426 287.186L196.278 286.654L195.426 289.404C195.292 289.137 195.157 288.871 195.022 288.605L195.426 287.186ZM175.735 299.559L175.78 299.426C176.542 294.592 178.919 289.537 183.405 287.186C179.951 289.537 177.484 293.838 176.812 298.273C176.453 298.938 176.049 299.559 175.69 300.135C175.69 299.914 175.735 299.692 175.735 299.559ZM182.552 309.448C179.054 309.448 176.812 307.275 176.093 305.102L176.004 304.792C176.318 304.393 176.676 303.994 176.991 303.594C177.887 307.054 180.579 308.96 184.212 308.96C184.706 308.96 185.199 308.916 185.693 308.827C184.661 309.226 183.584 309.448 182.552 309.448ZM188.428 303.195C187.935 303.417 187.397 303.55 186.859 303.55C184.885 303.55 183.584 302.175 183.584 299.736C183.584 297.164 184.93 294.37 186.769 292.774C187.262 292.552 187.756 292.419 188.249 292.419C190.223 292.419 191.614 293.794 191.614 296.189C191.614 298.761 190.267 301.555 188.428 303.195ZM192.197 296.189C192.197 293.572 190.671 291.843 188.249 291.843C188.16 291.843 188.115 291.843 188.025 291.843C188.608 291.532 189.236 291.355 189.864 291.355C191.838 291.355 193.228 292.73 193.228 295.124C193.228 297.519 192.062 300.135 190.402 301.776C191.523 300.135 192.197 298.051 192.197 296.189ZM194.753 309.448C192.466 309.448 191.075 308.384 190.627 306.344C190.985 306.034 191.344 305.723 191.658 305.368C192.062 307.408 193.408 309.005 196.368 309.005C196.771 309.005 197.22 308.96 197.624 308.872C196.682 309.226 195.695 309.448 194.753 309.448ZM206.729 309.271L201.392 309.226L202.064 307.054L202.199 306.654C202.513 306.388 202.827 306.122 203.141 305.856L202.289 308.561H207.851L206.729 309.271ZM206.953 293.439C206.146 296.056 205.025 298.539 203.455 300.801C202.647 301.998 201.84 302.929 201.078 303.55C201.526 302.929 202.019 302.22 202.558 301.333C203.724 299.382 204.756 297.164 205.608 294.725L208.299 287.142L209.196 286.521L206.953 293.439ZM221.531 309.448C221.352 309.448 221.217 309.448 221.038 309.404C219.648 309.271 218.571 308.694 217.853 307.586C216.777 306.034 216.553 303.506 217.315 301.2L218.75 296.277C219.558 293.616 219.648 292.419 219.109 291.71C218.795 291.31 218.302 291.089 217.629 291.089C217.27 291.089 216.866 291.133 216.373 291.222C216.238 291.222 216.149 291.31 216.059 291.31C216.687 290.956 217.36 290.734 218.122 290.734C220.41 290.734 220.679 292.685 219.961 294.991L218.392 299.958C217.225 303.772 217.36 308.916 222.653 308.916C223.281 308.916 223.864 308.827 224.492 308.694C223.46 309.226 222.474 309.448 221.531 309.448ZM249.879 287.186L250.731 286.654L249.879 289.404C249.745 289.137 249.61 288.871 249.475 288.605L249.879 287.186ZM230.189 299.559L230.233 299.426C230.727 296.277 232.207 293.084 234.36 290.69C232.79 292.907 231.713 295.523 231.264 298.273C230.906 298.938 230.502 299.559 230.144 300.135C230.144 299.869 230.189 299.648 230.189 299.559ZM237.006 309.448C233.687 309.448 231.31 307.719 230.457 304.747C230.772 304.393 231.085 303.994 231.4 303.55C232.296 307.054 234.988 308.96 238.621 308.96C239.115 308.96 239.608 308.916 240.101 308.827C239.07 309.226 238.038 309.448 237.006 309.448ZM242.882 303.195C242.388 303.417 241.85 303.55 241.312 303.55C239.338 303.55 238.038 302.175 238.038 299.736C238.038 297.164 239.383 294.37 241.222 292.774C241.716 292.552 242.209 292.419 242.703 292.419C244.676 292.419 246.066 293.794 246.066 296.189C246.066 298.761 244.721 301.555 242.882 303.195ZM246.649 296.189C246.649 293.572 245.125 291.843 242.703 291.843C242.613 291.843 242.568 291.843 242.478 291.843C243.061 291.532 243.689 291.355 244.317 291.355C246.291 291.355 247.681 292.73 247.681 295.124C247.681 297.519 246.515 300.135 244.855 301.776C245.977 300.135 246.649 298.051 246.649 296.189ZM252.078 308.827C251.135 309.226 250.148 309.404 249.207 309.404C246.919 309.404 245.528 308.34 245.08 306.3C245.438 305.989 245.798 305.679 246.111 305.324C246.515 307.364 247.86 308.96 250.821 308.96C251.225 308.96 251.674 308.916 252.078 308.827Z" fill="white"/>
</g>
<g clip-path="url(#clip2_622_68)">
<path d="M101.107 122.975C106.527 115.065 106.412 110.85 105.259 108.714C104.394 106.982 102.548 106.058 100.068 106.058C98.5114 106.058 96.666 106.462 94.8205 107.213C88.9959 109.522 86.3431 110.908 80.2879 114.488L79.9995 114.661V114.95V116.624V117.086L80.4609 117.144C81.8449 117.375 82.364 117.548 82.364 119.396L82.9406 153.807C82.9406 155.193 82.4216 155.828 80.9799 155.886H80.4609V156.406V157.849V158.426H81.0376L98.8573 158.022C102.087 157.965 104.97 155.944 107.104 152.248C108.95 149.015 110.161 144.627 110.334 140.181C110.507 135.851 109.757 131.809 108.258 128.749C106.643 125.631 104.163 123.61 101.107 122.975ZM90.1493 128.229L90.3223 116.105C92.1677 114.488 95.1088 112.871 96.9543 112.871C97.5887 112.871 97.9923 113.044 98.2807 113.449C98.6844 114.026 98.9727 115.412 97.877 118.587C96.4353 122.975 93.2635 125.92 90.1493 128.229ZM99.4341 150.863C97.8193 152.595 95.7432 153.519 93.3211 153.519C92.3408 153.519 91.3027 153.345 90.2647 153.057L90.1493 135.331C92.4561 131.521 94.9935 129.384 97.1273 129.384C99.8954 129.384 101.799 133.253 102.375 140.008C102.779 144.396 101.741 148.38 99.4341 150.863Z" fill="white"/>
<path d="M135.362 111.543L135.593 111.37L135.535 111.082C134.266 101.555 131.21 96.3584 127.058 96.3584C126.193 96.3584 125.27 96.5894 124.347 97.109C120.137 99.3608 116.216 106.405 113.563 116.393C111.026 125.978 110.103 148.149 119.561 156.002C121.521 157.676 123.944 158.484 126.596 158.484C128.903 158.484 131.498 157.849 134.324 156.637L134.67 156.521V156.175L135.42 135.332V134.754H134.843H133.286H132.825L132.767 135.216C131.498 147.052 127.923 147.976 126.885 147.976C124.29 147.976 121.002 143.588 119.734 135.158C119.561 133.83 119.33 130.712 119.964 129.5C124.866 119.858 135.304 111.659 135.362 111.543ZM128.499 110.908C127.75 111.486 125.674 113.218 122.098 117.548C120.772 119.165 119.561 120.897 118.753 122.167C119.042 117.433 119.676 113.564 121.579 109.292C122.963 106.232 124.463 104.442 125.616 104.442C126.942 104.326 128.038 106.751 128.499 110.908Z" fill="white"/>
<path d="M197.761 150.055L197.184 116.624C196.952 104.846 196.145 97.1666 194.415 91.7392C192.454 85.5613 189.283 82.2702 184.611 81.7506C184.439 81.7506 184.208 81.6929 184.035 81.6929C182.709 81.6929 181.555 82.2702 180.632 82.7321C180.056 83.0208 179.537 83.2518 179.191 83.2518C179.075 83.2518 178.729 83.2518 178.441 82.2125L178.325 81.8083H177.922H176.538H176.019V82.328L175.673 104.442V105.019H176.25H177.807H178.325V104.499C178.902 94.4529 181.209 88.275 184.381 88.275C185.188 88.275 185.996 88.6792 186.745 89.4875C189.283 92.2589 190.379 99.1297 189.686 107.848C176.365 111.37 171.578 125.054 175.5 148.553C176.48 154.5 179.595 158.542 183.17 158.542C186.457 158.542 189.341 155.366 191.359 149.766L191.82 153.865C192.513 157.503 194.877 157.849 197.414 157.849C197.702 157.849 197.991 157.849 198.279 157.849C198.568 157.849 198.913 157.849 199.259 157.849C199.49 157.849 199.663 157.849 199.894 157.849H200.413V157.33L200.47 155.771V155.309L200.009 155.193C198.452 154.674 197.818 153.288 197.761 150.055ZM189.283 139.315C188.764 144.858 187.091 146.821 185.765 146.821C184.439 146.821 182.824 144.916 182.305 141.394C180.402 127.479 182.766 119.569 189.917 115.816C190.206 123.553 189.975 131.867 189.283 139.315Z" fill="white"/>
<path d="M250.874 155.078C249.489 154.789 249.028 153.981 248.971 151.902L248.509 130.481C248.221 117.895 247.932 106 237.552 106H237.494C236.168 106 235.015 106.405 234.035 106.693C233.342 106.924 232.765 107.098 232.304 107.098C231.958 107.098 231.728 106.982 231.497 106.462L231.382 106.116H231.035L229.824 106.058L229.248 106V106.578L228.901 123.149V123.726H229.478H230.458H230.978V123.206C231.324 115.585 234.957 112.063 237.264 112.063C238.301 112.063 239.109 112.409 239.801 113.102C241.416 114.777 242.05 118.587 241.762 124.419C236.803 125.458 233.112 127.768 230.747 131.347C227.576 136.082 226.883 143.126 228.729 151.671C229.594 155.713 232.478 158.427 235.822 158.427C238.821 158.427 241.531 156.29 243.262 152.595L243.607 154.385C244.242 156.925 246.318 157.156 248.509 157.156C248.74 157.156 249.028 157.156 249.259 157.156C249.548 157.156 249.835 157.156 250.066 157.156C250.239 157.156 250.412 157.156 250.643 157.156H251.162L251.219 156.637L251.278 155.597L251.335 155.135L250.874 155.078ZM240.724 145.551C240.321 149.131 238.937 150.401 237.783 150.401C236.63 150.401 235.303 149.188 234.899 146.937C233.285 137.756 235.187 132.675 241.358 130.193C241.474 135.216 241.301 140.643 240.724 145.551Z" fill="white"/>
<path d="M152.086 112.987C148.049 109.811 144.589 107.04 146.319 95.8386C146.896 92.0279 148.511 89.5452 150.356 89.5452C153.067 89.5452 156.181 94.6839 156.873 104.557L156.93 105.077H157.449H159.122H159.698V104.499L159.41 82.3857V81.8661H158.891H157.507H157.103L156.988 82.2703C156.7 83.2518 156.411 83.2518 156.296 83.2518C156.008 83.2518 155.489 83.0208 154.97 82.7321C154.047 82.2702 152.894 81.6929 151.509 81.6929C151.279 81.6929 151.048 81.6929 150.817 81.7506C149.26 81.9816 147.819 82.5589 146.492 83.5982C145.858 84.0601 144.935 84.9262 143.897 86.0809C140.61 90.0071 139.687 95.3767 139.457 96.9357L139.341 97.9172C138.303 105.827 137.323 113.333 145.281 118.934L145.454 119.049C150.125 122.34 154.22 125.17 154.393 132.849C154.451 134.696 152.894 144.338 149.318 148.034C148.395 148.958 147.473 149.419 146.435 149.419C143.955 149.419 141.014 145.724 140.149 135.274L140.091 134.754H139.572H138.13H137.611V135.274L137.553 157.503V158.022H138.073H139.341H139.687L139.86 157.734L141.648 154.269C143.436 156.925 146.031 158.427 148.914 158.427C153.067 158.427 158.257 155.078 159.698 147.745C162.063 135.967 161.659 127.421 158.372 120.089C156.757 116.624 154.393 114.777 152.086 112.987Z" fill="white"/>
<path d="M227.46 156.06V155.655L227.056 155.54C226.364 155.367 225.845 155.02 225.787 152.076L225.326 120.147C225.326 103.403 220.194 97.4555 215.406 97.4555C213.274 97.4555 211.14 98.668 209.524 100.689L209.467 96.8204V96.3008H208.948C208.948 96.3008 207.795 96.3008 207.391 96.3008C206.699 96.3008 206.179 96.8204 205.545 97.3978C204.622 98.3216 203.297 99.5918 200.817 99.7073H200.297V100.227V103.172V103.576L200.701 103.691C201.566 103.922 202.316 104.5 202.374 107.098L202.893 151.036C202.95 154.212 202.604 154.847 201.97 154.905L201.509 154.963V155.424V157.099V157.618H202.027L213.331 157.965H213.908V157.388V156.002V155.655L213.561 155.54C212.293 155.02 211.024 154.443 211.024 152.133L210.332 114.488C210.274 111.428 211.081 108.714 212.465 107.271C213.042 106.694 213.619 106.405 214.254 106.405C216.215 106.405 218.233 109.754 218.233 117.26L219.156 151.671C219.213 153.981 218.636 155.136 217.137 155.598L216.733 155.713V156.117L216.791 157.561V158.08H217.31L226.999 158.311H227.575V157.734L227.46 156.06Z" fill="white"/>
<path d="M171.693 81.5196C170.829 81.2887 169.733 81 167.484 81H167.311C165.292 81 164.254 81.2887 163.332 81.5196C162.813 81.6351 162.294 81.8083 161.602 81.8661L161.083 81.9238V82.4434L161.14 84.2333V84.6375L161.544 84.753C162.294 84.9839 163.332 85.5613 163.332 88.2172V90.2958V147.456L163.447 150.228C163.447 150.286 163.562 152.711 163.216 153.923C162.87 155.193 162.005 155.251 161.832 155.251H161.313V155.771V157.965V158.484H161.832H167.541H167.657H173.366H173.885V157.965V155.771V155.193H173.309C173.136 155.193 172.27 155.136 171.925 153.865C171.578 152.595 171.693 150.17 171.693 150.17L171.809 147.456V89.5452V88.2172C171.809 85.5613 172.847 84.9839 173.654 84.753L174.058 84.6375V84.2333V82.3857V81.8661H173.539C172.732 81.8083 172.27 81.6929 171.693 81.5196Z" fill="white"/>
</g>
<defs>
<clipPath id="clip0_622_68">
<rect width="192" height="40" fill="white" transform="translate(69.9995 447)"/>
</clipPath>
<clipPath id="clip1_622_68">
<rect width="189" height="54" fill="white" transform="translate(70.9995 271)"/>
</clipPath>
<clipPath id="clip2_622_68">
<rect width="172" height="78" fill="white" transform="translate(79.9995 81)"/>
</clipPath>
</defs>
</svg>
