<svg width="40" height="25" viewBox="0 0 40 25" fill="none" xmlns="http://www.w3.org/2000/svg">
<path d="M19.8894 4.83502C6.43115 5.22863 11.7402 4.78663 3.96129 4.84505C1.16586 4.866 -0.000900003 4.48951 0.0305 3.46566C0.0891686 1.53037 -0.35539 0.560218 0.89648 0.264865C1.19974 0.193461 1.46416 0.168086 2.83419 0.122352C5.73457 0.0255729 7.18475 -0.0228166 9.09107 0.0229174C13.1946 0.121762 29.6176 0.0394407 35.5084 0.000788051C38.9145 -0.0216364 40.0763 0.432458 39.9962 1.62656C39.873 3.46448 40.1738 4.25553 39.2186 4.59248C38.0452 5.00645 35.715 4.93652 31.1562 4.83414C30.1266 4.81112 29.8548 4.79076 28.9194 4.76273C25.4017 4.65681 22.8418 4.74857 19.8894 4.83502Z" fill="white"/>
<path d="M27.9336 14.835C19.8587 15.2286 23.0441 14.7866 18.3768 14.8451C16.6995 14.866 15.9995 14.4895 16.0183 13.4657C16.0535 11.5304 15.7868 10.5602 16.5379 10.2649C16.7198 10.1935 16.8785 10.1681 17.7005 10.1224C19.4407 10.0256 20.3109 9.97718 21.4546 10.0229C23.9167 10.1218 33.7706 10.0394 37.3051 10.0008C39.3487 9.97836 40.0458 10.4325 39.9977 11.6266C39.9238 13.4645 40.1043 14.2555 39.5312 14.5925C38.8271 15.0065 37.429 14.9365 34.6937 14.8341C34.076 14.8111 33.9129 14.7908 33.3516 14.7627C31.241 14.6568 29.7051 14.7486 27.9336 14.835Z" fill="white"/>
<path d="M19.8894 24.835C6.43115 25.2286 11.7402 24.7866 3.96129 24.8451C1.16586 24.866 -0.000900003 24.4895 0.0305 23.4657C0.0891686 21.5304 -0.35539 20.5602 0.89648 20.2649C1.19974 20.1935 1.46416 20.1681 2.83419 20.1224C5.73457 20.0256 7.18475 19.9772 9.09107 20.0229C13.1946 20.1218 29.6176 20.0394 35.5084 20.0008C38.9145 19.9784 40.0763 20.4325 39.9962 21.6266C39.873 23.4645 40.1738 24.2555 39.2186 24.5925C38.0452 25.0065 35.715 24.9365 31.1562 24.8341C30.1266 24.8111 29.8548 24.7908 28.9194 24.7627C25.4017 24.6568 22.8418 24.7486 19.8894 24.835Z" fill="white"/>
</svg>
