<svg width="430" height="77" viewBox="0 0 430 77" fill="none" xmlns="http://www.w3.org/2000/svg">
<path d="M213.811 74.4593C69.1349 80.5209 126.208 73.7141 42.5839 74.6138C12.533 74.9364 -0.00967503 69.1384 0.327875 53.3711C0.958562 23.5677 -3.82044 8.62736 9.63716 4.07892C12.8972 2.9793 15.7397 2.58852 30.4676 1.88422C61.6466 0.393823 77.2361 -0.351376 97.729 0.352928C141.841 1.87513 318.389 0.607386 381.716 0.012136C418.331 -0.3332 430.82 6.65986 429.959 25.049C428.635 53.3529 431.868 65.5351 421.6 70.7242C408.986 77.0993 383.936 76.0224 334.929 74.4457C323.861 74.0913 320.939 73.7777 310.883 73.3461C273.069 71.7148 245.549 73.128 213.811 74.4593Z" fill="#4E9326"/>
</svg>
