<svg width="38" height="39" viewBox="0 0 38 39" fill="none" xmlns="http://www.w3.org/2000/svg">
<path d="M36.6645 7.85262C36.1178 4.5102 35.6885 1.69029 31.9282 1.12426C29.4206 0.747016 26.8787 0.89663 24.3758 0.617804C20.9325 0.564998 17.456 0.722212 13.9727 0.713414C11.1688 0.706613 6.61531 0.234957 4.56083 2.63241C2.5352 4.99505 1.93508 9.29317 2.10747 12.2679C2.3578 16.5904 1.84856 21.0157 1.58031 25.3306C1.32491 29.439 1.65244 34.2264 5.65383 36.3777C9.17046 38.2679 12.8143 37.3911 16.5471 37.8287C20.7489 38.3212 24.8259 37.8891 29.0285 37.3126C30.0598 37.171 31.1122 37.0234 32.0464 36.5534C36.7013 34.2107 35.9019 27.8387 36.1613 23.5184C36.4685 18.4018 37.4975 12.9495 36.665 7.85345L36.6645 7.85262Z" fill="white"/>
<g clip-path="url(#clip0_84_116)">
<rect width="19.7468" height="24.1558" transform="translate(9.3756 7.01318)" fill="white"/>
<path d="M28.3287 24.9597L28.1699 24.8258C27.9862 24.5432 27.7127 24.4169 27.4706 24.3051L26.9995 24.1899L26.9605 24.1264L26.8587 24.1024C26.556 23.9528 26.2378 23.8243 25.9294 23.6997C25.6112 23.5711 25.309 23.4488 25.0272 23.3064L25.0328 23.2948C24.9535 23.2532 24.8716 23.204 24.7868 23.1534C24.4568 22.9553 24.0458 22.7094 23.5849 22.7996C23.5017 22.8162 23.4206 22.8379 23.3406 22.8624C23.2773 22.8532 23.2182 22.8515 23.1605 22.8567C22.956 22.8765 22.8048 22.9726 22.7013 23.0424C22.5155 23.114 22.2084 23.3081 22.2125 23.3094H22.2133C21.897 23.431 21.5403 23.5682 21.2343 23.7145C21.0869 23.7318 20.9481 23.7311 20.8007 23.7118C20.7542 23.7091 20.6299 23.6777 20.4978 23.6446C20.0764 23.5385 19.4442 23.3796 18.9755 23.4876C18.7317 23.3889 18.4734 23.2824 18.217 23.1598C18.0505 23.073 17.8322 22.922 17.6475 22.766L17.616 22.7393L17.5758 22.7291C17.5283 22.7178 17.4706 22.675 17.4764 22.6856C16.8236 21.9232 16.3457 21.0575 15.8783 19.7937C15.7084 19.3035 15.3841 18.4868 15.2266 18.0937C15.6858 17.819 16.1943 17.4964 16.193 17.4944C16.944 17.1773 18.0304 16.5325 18.6285 15.7526C18.8143 15.4807 18.8955 15.1227 18.847 14.806C18.8289 14.6073 18.6796 14.3549 18.659 14.3232C18.5686 14.1309 18.4763 13.8987 18.3839 13.6382C18.3609 13.524 18.3224 13.3799 18.2739 13.2318C18.2402 13.0461 18.21 12.8526 18.1835 12.6521C18.2196 12.2516 18.2286 11.8378 18.0728 11.524C18.0391 11.4336 17.978 11.354 17.8869 11.2813C17.8532 11.1448 17.8326 11.0123 17.8324 11.0098L17.8234 10.9747C17.7888 10.8805 17.7612 10.817 17.7338 10.7532C17.7083 10.6954 17.6834 10.6373 17.6368 10.5211L17.5736 10.4247C17.4951 10.2121 17.237 9.98712 17.1864 9.9441L17.1551 9.92284C17.0911 9.88947 17.0351 9.8509 16.9804 9.81357C16.8679 9.73694 16.7514 9.65808 16.5919 9.6205C16.4228 9.58045 16.3188 9.55202 16.2553 9.53224L16.1257 9.45882C15.7556 9.29591 15.3461 9.17428 14.9504 9.0566C14.7568 8.99925 14.5617 8.94115 14.3938 8.8885C14.2823 8.8304 14.1718 8.78986 14.0543 8.74709C13.9595 8.71248 13.8587 8.67589 13.7172 8.61409L13.6156 8.59011C13.5517 8.57528 13.5017 8.5508 13.4509 8.52732C13.3869 8.4979 13.3139 8.46428 13.2211 8.44227L13.0425 8.4C13.0183 8.3869 12.9926 8.37478 12.9703 8.36564C12.2518 8.0005 11.2469 7.77628 10.7828 8.34907C10.5586 8.62546 10.4709 9.01282 10.3861 9.3871C10.3476 9.55545 10.3115 9.7149 10.2649 9.85384C10.1881 9.99351 10.1224 10.2434 10.0967 10.349C9.87574 10.6145 9.77299 11.0676 9.70805 11.3559C9.63971 11.8152 9.66225 12.1791 9.68624 12.564C9.70054 12.7712 9.71411 12.9892 9.71411 13.2439C9.72914 13.6985 9.72671 14.0814 9.72477 14.4861C9.72332 14.8105 9.72138 15.1452 9.72865 15.5439L9.75095 15.9254C9.83043 17.306 9.90555 18.6104 10.3052 19.9253C10.4942 20.4988 10.7452 21.0573 10.9881 21.5977C11.0755 21.793 11.1628 21.9873 11.2452 22.1769L11.3675 22.4785C11.6469 23.1709 11.8488 23.6718 12.2542 24.3976C12.7617 25.2997 13.6132 26.114 14.3904 26.8005C14.5603 26.9279 14.7478 27.0292 14.9286 27.1269C15.1067 27.2235 15.2749 27.3147 15.4317 27.4312C15.6016 27.5464 15.7424 27.6937 15.8914 27.8497C16.0462 28.0124 16.2069 28.1805 16.3971 28.3088C16.9717 28.7634 17.721 29.0583 18.3826 29.3184L18.5059 29.3668C18.7679 29.4717 18.9697 29.5542 19.134 29.621L19.3897 29.7248C19.5164 29.8499 19.7139 29.9228 19.926 29.9251C20.1288 29.9918 20.3721 30.0623 20.8066 30.1849C21.0644 30.2459 21.6697 30.3359 21.6814 30.3369L21.9509 30.4007C22.0044 30.4368 22.1241 30.4964 22.3565 30.5493C22.712 30.6897 22.9791 30.7527 23.3838 30.8484C23.4674 30.8682 23.5491 30.8632 23.6087 30.8598C23.6278 30.8588 23.6448 30.857 23.6494 30.8566L23.8891 30.9144C24.3602 31.0296 24.8475 31.1473 25.3121 31.1463C25.8006 31.2494 26.3008 31.1505 26.6005 30.9003C26.807 30.7688 26.9146 30.5438 27.0094 30.3453C27.0539 30.2521 27.0959 30.1639 27.147 30.0887L27.2638 29.9038C27.6077 29.3609 27.835 29.0022 28.0412 28.3044C28.1568 28.0188 28.2993 27.6488 28.3705 27.3318C28.5101 26.8987 28.513 26.4174 28.5154 25.9521C28.5164 25.7862 28.5176 25.6226 28.5249 25.4636L28.5065 25.3474C28.48 25.2196 28.4488 25.0607 28.3288 24.9598L28.3287 24.9597Z" fill="#67AE3E"/>
</g>
<defs>
<clipPath id="clip0_84_116">
<rect width="19.7468" height="24.1558" fill="white" transform="translate(9.3756 7.01318)"/>
</clipPath>
</defs>
</svg>
