<svg width="69" height="44" viewBox="0 0 69 44" fill="none" xmlns="http://www.w3.org/2000/svg">
<path d="M34.1566 43.908C29.7459 44.1317 25.0415 43.1619 20.4106 41.8939C19.0138 41.5209 17.7643 40.8497 16.588 40.0292C15.6322 39.358 14.6769 38.6869 13.7212 38.0152C12.9125 37.4928 12.4716 36.6728 11.8101 36.0011C9.60469 33.9126 8.06127 31.3018 6.44409 28.7659C3.94441 24.8877 2.32722 20.5614 1.15095 16.0859C0.709981 14.4449 0.415659 12.8038 0.121861 11.0884C-0.0253002 10.4172 -0.0253007 9.74608 0.0485372 9.07438C0.121861 8.40319 0.269023 7.73203 0.857157 7.2841C3.20969 5.1956 5.92937 3.7784 9.08997 3.18155C12.3977 2.58477 15.6322 1.76422 18.94 1.16751C19.9691 1.01819 20.9982 0.943782 21.954 0.943782C24.0122 0.943782 25.9231 0.197677 27.9819 0.0488711C28.8639 -0.0255304 29.8196 -0.0255309 30.7016 0.123272C33.2747 0.421403 35.8471 0.421403 38.4201 0.64565C41.875 0.943781 45.33 0.571249 48.7849 1.0187C51.358 1.39176 53.8572 1.91361 56.4296 2.21225C59.3696 2.5853 62.2365 3.10716 65.03 4.15144C65.7653 4.44957 66.574 4.67382 67.3087 5.04635C68.6316 5.71754 69.2198 6.68732 68.9259 8.02966C68.1172 11.386 68.0439 14.8174 67.1615 18.1738C66.4262 20.859 65.3972 23.3949 64.4418 26.0058C64.148 26.9007 63.3394 27.4975 62.8979 28.2436C61.4279 30.7795 59.6634 33.0917 57.7524 35.3295C56.65 36.5974 55.3999 37.5673 54.0036 38.5365C52.5336 39.5808 51.2102 40.9237 49.3725 41.5199C48.0496 41.9673 46.7262 42.266 45.4765 42.7878C41.9483 44.3555 38.2728 43.9824 34.1565 43.908L34.1566 43.908ZM2.76853 13.5501C2.54805 14.1469 2.76853 14.6688 2.84186 15.1911C3.28283 17.6525 4.3858 19.8904 5.19439 22.2026C5.56204 23.2468 5.78252 24.2911 6.44397 25.1859C7.32591 26.3795 8.13453 27.6474 8.86975 28.9154C9.31072 29.7359 9.89884 30.7057 10.7075 31.1532C12.5452 32.123 13.942 33.6147 15.6325 34.7334C16.7349 35.4795 17.9112 36.3 19.0142 37.1205C19.3818 37.3442 19.6756 37.5679 19.9699 36.9712C20.7052 35.7032 21.9548 35.032 23.2045 34.4353C25.7036 33.2417 28.3499 32.645 31.1434 32.7198C34.5983 32.7942 38.0533 32.3468 41.5082 33.018C42.9782 33.3161 44.4483 33.3161 45.919 33.5403C48.2715 33.8385 50.1824 34.8827 51.1383 37.1205C53.5641 35.9269 55.6223 34.5096 57.3868 32.6449C58.4159 31.5262 59.2979 30.2577 60.1803 28.9899C61.3565 27.2744 62.7533 25.7078 63.1942 23.545C63.2676 23.3213 63.4147 23.0975 63.488 22.8738C64.9581 19.5174 66.0611 16.086 66.4281 12.3566C66.5014 11.7598 66.8691 11.163 66.5014 10.5663C65.9133 10.4919 65.4724 10.79 64.9575 11.0138C62.826 11.7599 60.694 12.4311 58.4886 12.7292C57.3862 12.8785 56.2832 13.1022 55.1809 13.4004C53.7841 13.6985 52.4612 14.1465 51.0645 14.4446C49.6679 14.7427 48.3449 14.4446 47.0214 14.8176C45.919 15.1158 44.7428 15.1158 43.5665 15.2651C41.4351 15.4888 39.3031 15.4888 37.1714 15.6381C34.5251 15.8619 31.8055 16.1605 29.1591 16.5331C25.2632 17.0554 21.5145 15.9363 17.6181 15.6381C15.8537 15.4888 14.0898 14.967 12.3254 15.5637C11.7373 15.7875 11.1492 15.6381 10.4877 15.4893C7.98753 14.7437 5.41499 14.147 2.76869 13.5501L2.76853 13.5501ZM2.62137 8.62711C4.53246 9.74573 6.66447 10.2681 8.79595 10.4174C10.707 10.5667 12.6919 10.6411 14.5296 11.0142C19.3813 11.8347 24.1591 12.4315 29.0843 12.1328C29.3781 12.1328 29.6724 12.0584 29.9662 12.0584C33.1268 12.2077 36.288 11.9091 39.3753 11.6109C42.5359 11.3872 45.6238 11.1635 48.7844 11.2379C53.1213 11.3872 57.3849 10.9397 61.6484 9.89554C63.4127 9.44808 65.1033 8.92572 66.5734 7.88149C67.1616 7.43404 67.1616 6.98658 66.5001 6.61354C66.2796 6.46422 65.9853 6.46422 65.7648 6.38982C63.5594 5.79303 61.3541 4.89816 59.002 4.52508C55.4738 4.0027 51.945 3.48086 48.4906 2.73481C45.9914 2.21243 43.4184 2.58548 40.9192 2.43668C37.7586 2.13854 34.6707 2.21295 31.5101 1.98922C30.1134 1.91482 28.6433 1.69109 27.2467 1.98922C25.1884 2.5116 23.0564 2.6604 20.9249 2.88413C20.3368 2.95853 19.6753 2.88413 19.0872 3.03346C16.5881 3.70464 14.015 4.07768 11.5158 4.6001C9.16331 5.12247 6.8113 5.56992 4.67982 6.76292C3.94504 7.21038 3.20978 7.80662 2.62158 8.62712L2.62137 8.62711ZM36.8028 40.5513C39.4491 40.7751 42.0222 40.9244 44.5213 39.9545C45.8442 39.4322 47.1676 38.9103 48.4905 38.3136C49.4463 37.9405 49.5196 37.4931 48.7843 36.8219C48.1229 36.2995 47.3875 35.927 46.5789 35.8521C42.9769 35.4047 39.3752 34.6586 35.6998 34.7335C34.4502 34.7335 33.274 34.8828 32.0244 34.7335C30.1133 34.5842 28.2756 34.8079 26.4379 35.3303C24.894 35.7033 23.4239 36.2252 22.1744 37.2694C21.4391 37.8662 21.5129 38.3137 22.3216 38.6118C25.997 39.9541 29.8196 40.2528 33.7155 40.4765C34.6708 40.5514 35.7737 40.6264 36.8029 40.5514L36.8028 40.5513Z" fill="#FBB04C"/>
</svg>
