<svg width="206" height="55" viewBox="0 0 206 55" fill="none" xmlns="http://www.w3.org/2000/svg">
<path d="M205.935 37.6769C205.902 39.5861 204.874 41.6914 202.71 44.305C197.941 50.0711 181.352 53.754 158.337 54.1573C148.603 54.3286 138.754 54.4585 127.356 54.6132C121.64 54.6878 115.49 54.7707 108.69 54.8674H108.628C105.774 54.8784 102.755 54.9005 99.5704 54.9254C95.009 54.9613 90.1241 55 85.0235 55C72.5183 55 58.6904 54.7707 45.0817 53.718C20.7255 51.8338 6.3152 47.3386 3.39648 40.7161C-0.446021 31.9882 -1.02114 24.2495 1.63518 17.0633C1.85445 16.4721 2.00901 15.867 2.15279 15.2813C2.36846 14.4193 2.59491 13.5241 3.03703 12.6483C6.32238 6.11419 18.8815 2.45618 42.5799 1.13554C51.8609 0.618884 61.1741 0.298394 70.2718 0.182354C105.803 -0.270753 137.291 0.118809 166.539 1.37038C183.311 2.08596 193.872 4.30728 197.919 7.96806C202.092 11.7476 204.296 14.8199 204.842 17.6353C206.089 24.081 206.078 30.5239 205.935 37.6769Z" fill="#EE303C"/>
</svg>
