<svg width="383" height="298" viewBox="0 0 383 298" fill="none" xmlns="http://www.w3.org/2000/svg">
<path d="M380.7 159.974C379.242 156.948 378.326 157.796 374.713 151.947C372.924 149.05 372.299 147.467 371.885 146.163C371.3 144.327 370.17 140.77 370.587 136.811C371.078 132.148 373.192 131.885 374.1 126.284C374.591 123.253 374.416 120.817 374.285 118.917C373.723 110.717 373.595 98.2802 374.291 87.9417C373.041 85.8879 371.78 83.849 370.51 81.8349C365.818 74.4035 360.976 67.2449 356.013 60.3444C354.772 58.618 353.522 56.9065 352.264 55.2148C352.007 54.8675 351.736 54.4756 351.462 54.0837C351.333 53.9399 351.208 53.791 351.102 53.6521C348.542 50.3581 345.971 47.0938 343.366 43.904C339.973 39.7517 336.534 35.7186 333.064 31.7499C318.824 23.2023 304.824 13.469 290.442 5.60106C290.279 5.51177 290.114 5.43239 289.951 5.3431C282.372 3.64647 271.873 1.7663 262.034 1.61251C261.483 1.60259 258.692 1.57283 254.911 1.12139C252.817 0.873343 250.739 0.198664 248.645 0.0547985C244.176 -0.257737 239.73 0.843578 235.278 1.00729C225.048 1.37935 214.812 1.25533 204.579 1.33967C199.807 1.37935 195.036 1.35951 190.265 1.52818C184.808 1.72165 179.367 3.17023 173.896 1.87048C172.509 1.54306 171.102 1.32478 169.704 1.29006C168.311 1.25533 166.793 0.957678 165.552 1.77126C163.492 3.12062 161.426 3.0214 159.337 3.05613C156.671 3.10078 154 3.00156 151.335 2.89242C143.202 2.56004 135.072 2.53028 126.945 3.1355C123.441 3.39843 119.939 3.93421 116.435 4.12272C114.472 4.2269 112.528 4.04831 110.625 5.25876C109.886 5.73004 108.941 5.78957 108.168 5.47208C107.443 5.17939 106.713 4.95119 105.985 4.76267C105.177 4.9115 104.37 5.0504 103.565 5.20419C100.951 5.70524 98.3399 6.23109 95.7317 6.78671C94.8613 6.97522 93.9938 7.16374 93.1234 7.35721C93.8254 7.1935 94.5274 7.03476 95.2323 6.87105C93.9282 7.10421 92.6298 7.48619 91.3313 7.80865C85.9237 9.15305 80.5331 10.676 75.1683 12.4421C64.6811 15.8998 54.2881 20.2952 44.1576 26.0845C41.7064 27.4835 39.295 29.071 36.8551 30.5245C36.7496 30.589 36.6582 30.6436 36.5698 30.6932C36.5641 30.6981 36.5584 30.7031 36.5527 30.7081C35.2828 31.7399 34.0015 32.7271 32.7459 33.8185C31.9954 34.4684 31.2591 35.1679 30.5229 35.8575C28.1429 43.9834 25.4862 51.7769 21.6652 57.8937C21.5567 61.9219 21.1686 65.9353 20.3667 69.899C17.242 85.3174 10.8641 96.3951 6.61499 110.633C4.90851 116.353 3.19917 122.008 1.35001 127.495C0.493912 131.806 -0.279428 135.283 0.100108 141.033C0.231376 143.042 0.26562 141.673 1.06464 148.003C2.7911 161.65 2.49147 166.835 5.15678 173.001C5.85022 174.603 5.88731 174.291 6.70631 176.196C8.0675 179.361 10.2791 184.495 10.4474 190.87C10.613 197.16 8.74096 202.717 6.48373 209.414C6.42665 209.582 6.38099 209.721 6.3496 209.811C5.15107 212.013 3.78132 215.312 3.93256 219.157C4.02388 221.479 4.60317 222.372 5.54773 226.107C6.1099 228.33 6.48373 230.602 7.0088 234.253C12.0426 241.545 15.584 250.941 19.1397 260.511C19.4079 260.952 19.6762 261.429 19.9358 261.964C20.9375 264.018 21.2343 265.497 21.5339 266.905C21.668 267.258 21.8021 267.615 21.9363 267.967C22.4784 269.381 23.0292 270.78 23.5885 272.174C24.6929 273.99 25.2094 274.426 31.476 278.023C35.0003 280.047 38.6216 281.634 42.0802 283.946C42.3313 284.115 42.6424 283.996 42.9134 284.105C45.496 285.137 48.2298 285.588 50.6212 287.379C54.5649 290.326 59.0166 290.693 62.5123 291.328C66.71 292.087 69.4581 292.588 73.2221 291.799C78.0019 290.802 79.9595 288.659 82.3395 290.976C83.558 292.161 84.5711 294.205 86.9596 295.311C87.5674 295.594 88.238 296.046 89.4308 295.936C91.6681 295.733 93.9367 294.999 96.1369 295.391C101.89 296.408 107.637 295.639 113.382 295.857C115.042 295.922 116.715 296.368 118.347 296.939C119.474 297.33 120.496 297.4 121.637 296.909C123.401 296.155 125.238 295.778 126.942 297.524C127.907 298.511 128.811 297.752 129.77 297.395C130.983 296.948 132.353 296.175 133.457 296.715C136.148 298.035 138.711 297.36 141.322 296.472C143.382 295.768 145.397 294.974 147.431 297.053C148.042 297.678 149.064 297.276 149.883 297.137C155.031 296.269 160.164 295.088 165.324 294.493C172.854 293.625 180.402 293.208 187.939 292.494C190.019 292.295 192.071 292.96 194.203 292.112C195.726 291.506 197.479 292.841 199.134 292.871C204.593 292.97 210.052 292.836 215.508 292.846C219.843 292.851 224.183 293.183 228.512 292.905C233.851 292.563 236.676 292.305 240.626 291.199C242.917 290.559 245.169 289.73 248.673 289.562C250.017 289.497 251.016 289.577 251.284 289.592C253.998 289.78 262.499 289.914 264.499 289.919C275.007 289.934 279.624 286.486 285.006 288.331C286.761 288.932 288.085 289.879 289.452 290.703C295.693 290.564 301.931 290.341 308.172 290.048C310.917 285.915 313.494 281.128 316.99 281.123C319.663 281.123 319.555 283.921 323.556 285.935C327.314 287.83 330.955 287.146 333.786 285.916C337.824 282.096 341.779 278.028 345.643 273.682C347.258 270.209 348.791 266.499 352.672 262.535C362.223 252.777 368.25 259.643 372.973 249.741C373.626 248.372 374.705 240.861 376.859 225.834C378.514 214.3 379.342 208.531 380.007 201.382C380.209 199.179 380.555 195.201 381.222 189.541C382.076 182.298 382.024 182.526 382.469 179.787C383.437 173.829 383.217 165.193 380.7 159.974Z" fill="#65AC45"/>
</svg>
