<svg width="716" height="342" viewBox="0 0 716 342" fill="white" xmlns="http://www.w3.org/2000/svg">
<path d="M711.7 183.594C708.974 180.121 707.262 181.094 700.508 174.382C697.163 171.057 695.995 169.241 695.221 167.743C694.128 165.637 692.015 161.555 692.794 157.011C693.711 151.66 697.664 151.358 699.361 144.93C700.279 141.451 699.953 138.656 699.708 136.475C698.657 127.064 698.417 112.791 699.718 100.926C697.382 98.5691 695.024 96.2291 692.65 93.9176C683.88 85.389 674.826 77.1735 665.549 69.254C663.229 67.2727 660.892 65.3085 658.539 63.3671C658.059 62.9685 657.552 62.5188 657.04 62.069C656.8 61.9039 656.565 61.7331 656.368 61.5737C651.583 57.7933 646.776 54.047 641.906 50.3862C635.563 45.6209 629.134 40.9922 622.647 36.4375C596.027 26.6278 569.854 15.4575 542.967 6.42781C542.663 6.32533 542.354 6.23423 542.049 6.13175C527.88 4.18462 508.254 2.02684 489.859 1.85035C488.83 1.83896 483.612 1.8048 476.544 1.2867C472.628 1.00204 468.744 0.227739 464.829 0.0626315C456.474 -0.29605 448.163 0.967875 439.841 1.15576C420.716 1.58276 401.58 1.44042 382.449 1.53721C373.53 1.58276 364.61 1.55998 355.69 1.75356C345.49 1.9756 335.317 3.63806 325.09 2.1464C322.497 1.77064 319.867 1.52013 317.253 1.48028C314.65 1.44042 311.812 1.09882 309.491 2.03253C305.639 3.58113 301.777 3.46726 297.872 3.50711C292.889 3.55835 287.896 3.44449 282.913 3.31923C267.709 2.93778 252.51 2.90362 237.317 3.59821C230.766 3.89995 224.22 4.51484 217.669 4.73118C213.999 4.85075 210.366 4.64578 206.808 6.03496C205.426 6.57583 203.66 6.64415 202.214 6.27978C200.859 5.94387 199.494 5.68198 198.133 5.46563C196.623 5.63643 195.114 5.79584 193.609 5.97234C188.723 6.54737 183.841 7.15086 178.965 7.78852C177.338 8.00487 175.717 8.22121 174.089 8.44325C175.402 8.25537 176.714 8.07319 178.032 7.8853C175.594 8.15289 173.167 8.59128 170.739 8.96135C160.63 10.5042 150.552 12.2521 140.523 14.2789C120.918 18.2472 101.489 23.2915 82.5502 29.9357C77.9677 31.5412 73.4598 33.3631 68.8986 35.0312C68.7012 35.1052 68.5304 35.1679 68.3651 35.2248C68.3544 35.2305 68.3437 35.2362 68.3331 35.2419C65.9591 36.4261 63.5638 37.5591 61.2165 38.8116C59.8134 39.5575 58.4371 40.3602 57.0607 41.1516C52.6115 50.4773 47.6448 59.4216 40.5016 66.4415C40.2989 71.0645 39.5733 75.6704 38.0743 80.2194C32.2327 97.9144 20.3095 110.628 12.3661 126.968C9.17586 133.532 5.98034 140.022 2.52341 146.319C0.922984 151.267 -0.522738 155.258 0.186786 161.856C0.432185 164.162 0.496202 162.591 1.98994 169.856C5.21747 185.518 4.65732 191.468 9.63999 198.544C10.9363 200.383 11.0057 200.025 12.5368 202.211C15.0814 205.843 19.2159 211.736 19.5306 219.052C19.8401 226.271 16.3405 232.648 12.1207 240.334C12.014 240.527 11.9286 240.687 11.8699 240.789C9.62932 243.317 7.06863 247.103 7.35137 251.515C7.52209 254.18 8.60504 255.205 10.3709 259.492C11.4218 262.042 12.1207 264.65 13.1022 268.84C22.5128 277.21 29.1332 287.993 35.7803 298.975C36.2818 299.482 36.7833 300.029 37.2687 300.643C39.1412 303 39.696 304.697 40.2562 306.314C40.5069 306.718 40.7577 307.128 41.0084 307.532C42.022 309.155 43.0516 310.761 44.0972 312.36C46.1618 314.444 47.1274 314.945 58.8425 319.073C65.431 321.396 72.2008 323.218 78.6665 325.871C79.136 326.064 79.7175 325.928 80.2243 326.053C85.0522 327.237 90.1629 327.755 94.6335 329.811C102.006 333.192 110.328 333.614 116.863 334.342C124.711 335.214 129.848 335.789 136.885 334.883C145.821 333.739 149.48 331.279 153.929 333.938C156.207 335.299 158.101 337.645 162.566 338.914C163.703 339.239 164.956 339.757 167.186 339.632C171.369 339.398 175.61 338.556 179.723 339.005C190.478 340.172 201.222 339.29 211.961 339.54C215.066 339.615 218.192 340.127 221.243 340.782C223.351 341.231 225.26 341.311 227.394 340.747C230.691 339.882 234.127 339.449 237.312 341.453C239.115 342.586 240.806 341.715 242.598 341.305C244.866 340.793 247.426 339.905 249.491 340.525C254.522 342.04 259.312 341.266 264.194 340.246C268.045 339.438 271.812 338.527 275.615 340.913C276.757 341.63 278.667 341.169 280.198 341.009C289.822 340.013 299.419 338.658 309.064 337.975C323.143 336.978 337.253 336.5 351.342 335.68C355.231 335.453 359.067 336.216 363.052 335.242C365.901 334.547 369.176 336.079 372.271 336.113C382.476 336.227 392.681 336.073 402.881 336.085C410.985 336.09 419.099 336.472 427.192 336.153C437.173 335.76 442.455 335.464 449.838 334.194C454.122 333.46 458.331 332.509 464.882 332.316C467.395 332.242 469.262 332.333 469.763 332.35C474.837 332.566 490.729 332.72 494.469 332.725C514.111 332.743 522.743 328.786 532.804 330.904C536.085 331.593 538.56 332.68 541.116 333.625C552.783 333.466 564.445 333.209 576.112 332.874C581.244 328.131 586.061 322.637 592.596 322.631C597.595 322.631 597.392 325.842 604.872 328.154C611.898 330.329 618.705 329.543 623.997 328.131C631.546 323.747 638.939 319.079 646.163 314.091C649.182 310.106 652.047 305.847 659.302 301.298C677.158 290.099 688.425 297.979 697.254 286.615C698.475 285.044 700.492 276.424 704.52 259.179C707.614 245.942 709.161 239.32 710.404 231.116C710.783 228.588 711.428 224.022 712.677 217.526C714.272 209.214 714.176 209.476 715.008 206.333C716.816 199.495 716.406 189.583 711.7 183.594Z" fill="white"/>
</svg>
