<svg width="141" height="156" viewBox="0 0 141 156" fill="none" xmlns="http://www.w3.org/2000/svg">
<g style="mix-blend-mode:multiply">
<path d="M140.955 106.866C140.933 112.281 140.229 118.252 138.748 125.665C135.484 142.02 124.129 152.466 108.376 153.61C101.713 154.096 94.9723 154.464 87.1706 154.903C83.2588 155.114 79.0492 155.35 74.3943 155.624H74.3525C72.399 155.655 70.3324 155.718 68.1525 155.788C65.0304 155.89 61.6869 156 58.1957 156C49.6363 156 40.1716 155.35 30.8569 152.364C14.1859 147.019 4.32254 134.27 2.32477 115.486C-0.305286 90.7303 -0.698934 68.7804 1.11923 48.3979C1.26931 46.7209 1.3751 45.0047 1.47351 43.3434C1.62113 40.8984 1.77613 38.3594 2.07874 35.8752C4.32746 17.3421 12.9237 6.96661 29.1445 3.22079C35.497 1.75538 41.8716 0.846353 48.0986 0.517223C72.4187 -0.767953 93.9709 0.336985 113.99 3.88689C125.47 5.91653 132.698 12.217 135.469 22.6003C138.325 33.3206 139.833 42.0347 140.207 50.02C141.061 68.3024 141.054 86.577 140.955 106.866Z" fill="#00000010"/>
</g>
</svg>
